<svg xmlns="http://www.w3.org/2000/svg" xmlns:xlink="http://www.w3.org/1999/xlink" width="300" zoomAndPan="magnify" viewBox="0 0 224.87999 225" height="300" preserveAspectRatio="xMidYMid meet" version="1.0"><defs><clipPath id="632181672f"><path d="M 9.59375 54.648438 L 214.984375 54.648438 L 214.984375 170.085938 L 9.59375 170.085938 Z M 9.59375 54.648438 " clip-rule="nonzero"/></clipPath></defs><g clip-path="url(#632181672f)"><path fill="#ffffff" d="M 199.207031 151.0625 L 189.300781 151.0625 C 189.464844 150.007812 189.566406 148.941406 189.566406 147.847656 C 189.566406 135.445312 179.472656 125.351562 167.070312 125.351562 C 154.667969 125.351562 144.574219 135.445312 144.574219 147.847656 C 144.574219 148.941406 144.671875 150.007812 144.835938 151.0625 L 80.035156 151.0625 C 80.195312 150.007812 80.296875 148.941406 80.296875 147.847656 C 80.296875 135.445312 70.203125 125.351562 57.800781 125.351562 C 45.398438 125.351562 35.304688 135.445312 35.304688 147.847656 C 35.304688 148.941406 35.40625 150.007812 35.566406 151.0625 L 25.664062 151.0625 C 20.339844 151.0625 16.023438 146.742188 16.023438 141.421875 L 16.023438 131.78125 L 22.449219 131.78125 C 23.917969 131.78125 25.210938 130.773438 25.5625 129.34375 L 28.777344 116.488281 C 29.015625 115.535156 28.800781 114.519531 28.199219 113.738281 C 27.582031 112.949219 26.65625 112.496094 25.664062 112.496094 L 18.871094 112.496094 C 20.078125 111.304688 21.582031 110.402344 23.328125 109.972656 L 33.972656 107.300781 C 38.203125 106.246094 41.871094 103.46875 44.03125 99.691406 L 48.511719 91.847656 C 59.359375 72.863281 79.667969 61.078125 101.527344 61.078125 L 110.488281 61.078125 C 132.34375 61.078125 152.65625 72.863281 163.503906 91.847656 L 167.683594 99.152344 C 170.082031 103.359375 174.199219 106.234375 178.984375 107.023438 L 190.054688 108.867188 C 193.394531 109.421875 196.445312 110.703125 199.082031 112.496094 L 192.78125 112.496094 C 191.007812 112.496094 189.566406 113.941406 189.566406 115.710938 C 189.566406 119.964844 191.234375 123.996094 194.285156 127.097656 C 197.347656 130.109375 201.378906 131.78125 205.632812 131.78125 L 208.847656 131.78125 L 208.847656 141.421875 C 208.847656 146.742188 204.53125 151.0625 199.207031 151.0625 Z M 167.070312 163.917969 C 158.207031 163.917969 151 156.710938 151 147.847656 C 151 138.984375 158.207031 131.78125 167.070312 131.78125 C 175.933594 131.78125 183.136719 138.984375 183.136719 147.847656 C 183.136719 156.710938 175.933594 163.917969 167.070312 163.917969 Z M 57.800781 163.917969 C 48.9375 163.917969 41.730469 156.710938 41.730469 147.847656 C 41.730469 138.984375 48.9375 131.78125 57.800781 131.78125 C 66.664062 131.78125 73.871094 138.984375 73.871094 147.847656 C 73.871094 156.710938 66.664062 163.917969 57.800781 163.917969 Z M 16.058594 118.925781 L 21.546875 118.925781 L 19.9375 125.351562 L 16.023438 125.351562 L 16.023438 119.3125 C 16.023438 119.1875 16.046875 119.0625 16.058594 118.925781 Z M 205.296875 118.925781 C 206.550781 120.882812 207.519531 123.042969 208.109375 125.351562 L 205.632812 125.351562 C 203.074219 125.351562 200.652344 124.347656 198.832031 122.550781 C 197.789062 121.496094 197.023438 120.269531 196.546875 118.925781 Z M 191.109375 102.527344 L 180.039062 100.683594 C 177.175781 100.207031 174.703125 98.488281 173.257812 95.964844 L 169.078125 88.65625 C 157.101562 67.679688 134.644531 54.648438 110.488281 54.648438 L 101.527344 54.648438 C 77.371094 54.648438 54.914062 67.679688 42.9375 88.65625 L 38.457031 96.503906 C 37.148438 98.761719 34.953125 100.433594 32.417969 101.074219 L 21.769531 103.734375 C 16.246094 105.117188 12.042969 109.234375 10.386719 114.429688 C 10.347656 114.519531 10.347656 114.605469 10.308594 114.695312 C 9.871094 116.175781 9.59375 117.71875 9.59375 119.3125 L 9.59375 141.421875 C 9.59375 150.285156 16.800781 157.488281 25.664062 157.488281 L 37.5 157.488281 C 41.128906 165.074219 48.851562 170.34375 57.800781 170.34375 C 66.75 170.34375 74.472656 165.074219 78.101562 157.488281 L 146.769531 157.488281 C 150.398438 165.074219 158.117188 170.34375 167.070312 170.34375 C 176.019531 170.34375 183.742188 165.074219 187.367188 157.488281 L 199.207031 157.488281 C 208.070312 157.488281 215.277344 150.285156 215.277344 141.421875 L 215.277344 131.0625 C 215.277344 116.867188 205.109375 104.863281 191.109375 102.527344 " fill-opacity="1" fill-rule="nonzero"/></g><path fill="#ffffff" d="M 118.863281 106.070312 L 112.433594 106.070312 C 110.664062 106.070312 109.222656 107.511719 109.222656 109.28125 C 109.222656 111.054688 110.664062 112.496094 112.433594 112.496094 L 118.863281 112.496094 C 120.632812 112.496094 122.078125 111.054688 122.078125 109.28125 C 122.078125 107.511719 120.632812 106.070312 118.863281 106.070312 " fill-opacity="1" fill-rule="nonzero"/><path fill="#ffffff" d="M 57.800781 106.070312 L 51.375 106.070312 C 49.601562 106.070312 48.160156 107.511719 48.160156 109.28125 C 48.160156 111.054688 49.601562 112.496094 51.375 112.496094 L 57.800781 112.496094 C 59.570312 112.496094 61.015625 111.054688 61.015625 109.28125 C 61.015625 107.511719 59.570312 106.070312 57.800781 106.070312 " fill-opacity="1" fill-rule="nonzero"/><path fill="#ffffff" d="M 167.070312 151.0625 C 165.300781 151.0625 163.855469 149.617188 163.855469 147.847656 C 163.855469 146.078125 165.300781 144.632812 167.070312 144.632812 C 168.839844 144.632812 170.28125 146.078125 170.28125 147.847656 C 170.28125 149.617188 168.839844 151.0625 167.070312 151.0625 Z M 167.070312 138.207031 C 161.746094 138.207031 157.429688 142.527344 157.429688 147.847656 C 157.429688 153.171875 161.746094 157.488281 167.070312 157.488281 C 172.390625 157.488281 176.710938 153.171875 176.710938 147.847656 C 176.710938 142.527344 172.390625 138.207031 167.070312 138.207031 " fill-opacity="1" fill-rule="nonzero"/><path fill="#ffffff" d="M 57.800781 151.0625 C 56.03125 151.0625 54.585938 149.617188 54.585938 147.847656 C 54.585938 146.078125 56.03125 144.632812 57.800781 144.632812 C 59.570312 144.632812 61.015625 146.078125 61.015625 147.847656 C 61.015625 149.617188 59.570312 151.0625 57.800781 151.0625 Z M 57.800781 138.207031 C 52.476562 138.207031 48.160156 142.527344 48.160156 147.847656 C 48.160156 153.171875 52.476562 157.488281 57.800781 157.488281 C 63.125 157.488281 67.441406 153.171875 67.441406 147.847656 C 67.441406 142.527344 63.125 138.207031 57.800781 138.207031 " fill-opacity="1" fill-rule="nonzero"/><path fill="#ffffff" d="M 96.367188 96.429688 L 59.332031 96.429688 C 65.671875 81.261719 80.035156 71.332031 96.367188 70.742188 Z M 99.578125 64.289062 L 97.910156 64.289062 C 78.101562 64.289062 60.523438 76.179688 53.144531 94.59375 L 51.597656 98.449219 C 51.210938 99.441406 51.324219 100.558594 51.925781 101.4375 C 52.527344 102.328125 53.519531 102.855469 54.585938 102.855469 L 99.578125 102.855469 C 101.351562 102.855469 102.792969 101.410156 102.792969 99.640625 L 102.792969 67.503906 C 102.792969 65.734375 101.351562 64.289062 99.578125 64.289062 " fill-opacity="1" fill-rule="nonzero"/><path fill="#ffffff" d="M 158.871094 94.582031 C 156.160156 87.839844 152.082031 81.941406 146.746094 77.03125 C 145.4375 75.828125 143.40625 75.914062 142.210938 77.21875 C 141.007812 78.527344 141.09375 80.558594 142.402344 81.753906 C 146.882812 85.882812 150.335938 90.816406 152.683594 96.429688 L 115.648438 96.429688 L 115.648438 70.742188 C 121.839844 70.980469 127.964844 72.601562 133.4375 75.464844 C 135.019531 76.292969 136.964844 75.675781 137.78125 74.105469 C 138.597656 72.539062 137.996094 70.59375 136.425781 69.761719 C 129.570312 66.1875 121.851562 64.289062 114.105469 64.289062 L 112.433594 64.289062 C 110.664062 64.289062 109.222656 65.734375 109.222656 67.503906 L 109.222656 99.640625 C 109.222656 101.410156 110.664062 102.855469 112.433594 102.855469 L 157.429688 102.855469 C 158.496094 102.855469 159.488281 102.328125 160.089844 101.4375 C 160.691406 100.558594 160.804688 99.441406 160.414062 98.449219 L 158.871094 94.582031 " fill-opacity="1" fill-rule="nonzero"/></svg>