<svg xmlns="http://www.w3.org/2000/svg" xmlns:xlink="http://www.w3.org/1999/xlink" width="300" zoomAndPan="magnify" viewBox="0 0 224.87999 225" height="300" preserveAspectRatio="xMidYMid meet" version="1.0"><defs><clipPath id="49e01dd4c8"><path d="M 29 25.667969 L 197.820312 25.667969 L 197.820312 198 L 29 198 Z M 29 25.667969 " clip-rule="nonzero"/></clipPath></defs><g clip-path="url(#49e01dd4c8)"><path fill="#ffffff" d="M 178.867188 121.757812 C 178.328125 121.222656 177.792969 120.953125 176.988281 120.953125 L 152.828125 120.953125 L 137.800781 106.191406 L 158.199219 85.792969 L 167.324219 85.253906 C 167.859375 85.253906 168.667969 84.984375 169.203125 84.449219 C 169.203125 84.449219 169.472656 84.179688 169.472656 83.914062 L 189.871094 52.507812 C 190.675781 51.433594 190.40625 50.09375 189.601562 49.019531 L 177.792969 37.207031 C 176.71875 36.402344 175.375 36.136719 174.304688 36.941406 L 143.167969 57.339844 C 142.898438 57.339844 142.898438 57.609375 142.628906 57.609375 C 142.09375 58.144531 141.824219 58.679688 141.824219 59.21875 L 141.289062 68.613281 L 120.621094 89.28125 L 102.367188 71.027344 L 102.367188 46.871094 C 102.367188 46.066406 102.101562 45.53125 101.5625 44.992188 L 83.042969 26.472656 C 83.042969 25.9375 82.238281 25.667969 81.433594 25.667969 L 55.664062 25.667969 C 53.25 25.667969 52.175781 28.621094 53.785156 30.230469 L 72.574219 49.019531 L 70.160156 61.632812 L 57.8125 63.78125 L 39.023438 44.992188 C 37.414062 43.382812 34.460938 44.457031 34.460938 46.871094 L 34.460938 72.640625 C 34.460938 73.445312 34.730469 73.980469 35.265625 74.519531 L 53.785156 93.039062 C 54.324219 93.574219 54.859375 93.84375 55.664062 93.84375 L 78.75 93.84375 L 97.269531 112.363281 L 93.511719 116.121094 L 88.679688 111.558594 C 87.605469 110.484375 85.996094 110.484375 84.921875 111.558594 L 35.535156 160.945312 C 27.214844 169.265625 27.214844 182.6875 35.535156 191.007812 C 43.855469 199.328125 57.277344 199.328125 65.597656 191.007812 L 114.984375 141.621094 C 115.519531 141.082031 115.789062 140.546875 115.789062 139.742188 C 115.789062 138.9375 115.519531 138.398438 114.984375 137.863281 L 110.152344 133.03125 L 113.910156 129.273438 L 129.476562 144.839844 L 129.476562 167.925781 C 129.476562 168.730469 129.746094 169.265625 130.285156 169.804688 L 148.804688 188.324219 C 149.339844 188.859375 149.878906 189.128906 150.683594 189.128906 L 176.449219 189.128906 C 178.867188 189.128906 179.9375 186.175781 178.328125 184.566406 L 159.539062 165.777344 L 161.6875 153.429688 L 174.304688 151.015625 L 193.089844 169.804688 C 194.703125 171.414062 197.65625 170.339844 197.65625 167.925781 L 197.65625 142.15625 C 197.65625 141.351562 197.386719 140.816406 196.847656 140.277344 Z M 145.851562 71.566406 C 146.386719 71.027344 146.65625 70.492188 146.65625 69.953125 L 147.195312 61.097656 L 175.375 42.578125 L 184.234375 51.433594 L 165.980469 79.617188 L 157.125 80.15625 C 156.585938 80.15625 155.78125 80.421875 155.246094 80.960938 L 134.042969 102.164062 L 124.378906 92.769531 Z M 62.109375 187.519531 C 55.933594 193.691406 45.734375 193.691406 39.5625 187.519531 C 33.386719 181.34375 33.386719 171.144531 39.5625 164.972656 L 86.800781 117.195312 L 109.347656 139.742188 Z M 106.664062 129.542969 L 97.269531 120.148438 L 101.027344 116.390625 L 110.421875 125.785156 Z M 192.554688 161.484375 L 177.253906 146.183594 C 176.71875 145.644531 175.644531 145.378906 174.839844 145.378906 L 159.273438 148.597656 C 158.199219 148.867188 157.394531 149.671875 157.125 150.746094 L 154.441406 166.3125 C 154.171875 167.121094 154.441406 168.191406 155.246094 168.730469 L 170.546875 184.027344 L 152.292969 184.027344 L 135.113281 167.121094 L 135.113281 144.035156 C 135.113281 143.230469 134.847656 142.695312 134.308594 142.15625 C 115.253906 123.101562 101.027344 108.875 81.703125 89.546875 C 81.164062 89.011719 80.628906 88.742188 79.824219 88.742188 L 56.738281 88.742188 L 39.828125 71.832031 L 39.828125 53.582031 L 55.128906 68.882812 C 55.664062 69.417969 56.738281 69.6875 57.542969 69.6875 L 73.113281 67.003906 C 74.1875 66.734375 74.992188 65.929688 75.257812 64.855469 L 78.210938 49.019531 C 78.480469 48.214844 78.210938 47.140625 77.40625 46.601562 L 62.109375 31.035156 L 80.359375 31.035156 L 97.269531 47.945312 L 97.269531 72.101562 C 97.269531 72.90625 97.539062 73.445312 98.074219 73.980469 C 132.96875 108.875 113.910156 89.816406 149.878906 125.785156 C 150.414062 126.320312 150.953125 126.589844 151.757812 126.589844 L 175.914062 126.589844 L 192.824219 143.5 Z M 192.554688 161.484375 " fill-opacity="1" fill-rule="nonzero"/></g><path fill="#ffffff" d="M 78.480469 144.574219 L 50.835938 172.21875 C 49.761719 173.292969 49.761719 174.902344 50.835938 175.976562 C 51.90625 177.050781 53.519531 177.050781 54.59375 175.976562 L 82.238281 148.332031 C 83.3125 147.257812 83.3125 145.644531 82.238281 144.574219 C 81.164062 143.5 79.554688 143.5 78.480469 144.574219 Z M 78.480469 144.574219 " fill-opacity="1" fill-rule="nonzero"/></svg>