<svg xmlns="http://www.w3.org/2000/svg" xmlns:xlink="http://www.w3.org/1999/xlink" width="300" zoomAndPan="magnify" viewBox="0 0 224.87999 225" height="300" preserveAspectRatio="xMidYMid meet" version="1.0"><defs><clipPath id="d04a2d111f"><path d="M 194 29 L 215.210938 29 L 215.210938 196 L 194 196 Z M 194 29 " clip-rule="nonzero"/></clipPath><clipPath id="936a1e562c"><path d="M 9.820312 30 L 44 30 L 44 196.449219 L 9.820312 196.449219 Z M 9.820312 30 " clip-rule="nonzero"/></clipPath></defs><path fill="#ffffff" d="M 115.082031 93.976562 C 102.097656 93.976562 91.539062 104.539062 91.539062 117.519531 C 91.539062 130.503906 102.097656 141.0625 115.082031 141.0625 C 128.0625 141.0625 138.625 130.503906 138.625 117.519531 C 138.625 104.539062 128.0625 93.976562 115.082031 93.976562 Z M 115.082031 137.804688 C 103.894531 137.804688 94.796875 128.707031 94.796875 117.519531 C 94.796875 106.335938 103.894531 97.234375 115.082031 97.234375 C 126.265625 97.234375 135.367188 106.335938 135.367188 117.519531 C 135.367188 128.707031 126.265625 137.804688 115.082031 137.804688 Z M 115.082031 137.804688 " fill-opacity="1" fill-rule="nonzero"/><path fill="#ffffff" d="M 115.082031 54.75 C 80.46875 54.75 52.308594 82.910156 52.308594 117.519531 C 52.308594 152.132812 80.46875 180.292969 115.082031 180.292969 C 149.691406 180.292969 177.851562 152.132812 177.851562 117.519531 C 177.851562 82.910156 149.691406 54.75 115.082031 54.75 Z M 115.082031 177.035156 C 82.265625 177.035156 55.566406 150.335938 55.566406 117.519531 C 55.566406 84.707031 82.265625 58.007812 115.082031 58.007812 C 147.898438 58.007812 174.59375 84.703125 174.59375 117.519531 C 174.59375 150.339844 147.898438 177.035156 115.082031 177.035156 Z M 115.082031 177.035156 " fill-opacity="1" fill-rule="nonzero"/><path fill="#ffffff" d="M 115.082031 41.539062 C 73.183594 41.539062 39.097656 75.625 39.097656 117.519531 C 39.097656 159.414062 73.183594 193.503906 115.082031 193.503906 C 156.976562 193.503906 191.0625 159.417969 191.0625 117.519531 C 191.0625 75.625 156.976562 41.539062 115.082031 41.539062 Z M 115.082031 190.246094 C 74.980469 190.246094 42.355469 157.621094 42.355469 117.519531 C 42.355469 77.421875 74.980469 44.796875 115.082031 44.796875 C 155.179688 44.796875 187.804688 77.421875 187.804688 117.519531 C 187.804688 157.621094 155.179688 190.246094 115.082031 190.246094 Z M 115.082031 190.246094 " fill-opacity="1" fill-rule="nonzero"/><g clip-path="url(#d04a2d111f)"><path fill="#ffffff" d="M 213.726562 29.046875 C 212.953125 28.902344 212.191406 29.332031 211.90625 30.070312 C 199.023438 63.847656 193.285156 94.558594 194.367188 123.957031 C 194.457031 126.441406 196.488281 128.386719 198.988281 128.386719 L 201.214844 128.386719 L 198.023438 186.96875 C 197.894531 189.332031 198.71875 191.578125 200.34375 193.292969 C 201.96875 195.011719 204.167969 195.957031 206.535156 195.957031 C 211.234375 195.957031 215.058594 192.132812 215.058594 187.4375 L 215.058594 30.648438 C 215.058594 29.863281 214.496094 29.1875 213.726562 29.046875 Z M 211.800781 187.433594 C 211.800781 190.335938 209.4375 192.699219 206.535156 192.699219 C 205.074219 192.699219 203.714844 192.117188 202.707031 191.050781 C 201.703125 189.992188 201.195312 188.605469 201.273438 187.148438 L 204.558594 126.847656 C 204.585938 126.398438 204.425781 125.960938 204.117188 125.636719 C 203.8125 125.3125 203.382812 125.128906 202.933594 125.128906 L 198.988281 125.128906 C 198.261719 125.128906 197.648438 124.546875 197.621094 123.835938 C 196.648438 97.390625 201.292969 69.832031 211.800781 39.835938 Z M 211.800781 187.433594 " fill-opacity="1" fill-rule="nonzero"/></g><g clip-path="url(#936a1e562c)"><path fill="#ffffff" d="M 32.929688 91.242188 C 33.230469 91.023438 33.535156 90.800781 33.84375 90.578125 C 38.40625 87.253906 43.582031 83.492188 43.582031 78.292969 L 42.441406 40.382812 C 42.367188 37.96875 40.421875 36.082031 38.007812 36.082031 C 35.566406 36.082031 33.578125 38.070312 33.578125 40.511719 L 33.578125 67.367188 C 33.578125 67.863281 33.175781 68.265625 32.679688 68.265625 C 32.183594 68.265625 31.777344 67.863281 31.777344 67.371094 L 31.648438 35.511719 C 31.636719 32.792969 29.414062 30.582031 26.699219 30.582031 C 23.980469 30.582031 21.761719 32.792969 21.75 35.511719 L 21.621094 67.371094 C 21.617188 67.863281 21.214844 68.265625 20.71875 68.265625 C 20.222656 68.265625 19.820312 67.863281 19.820312 67.367188 L 19.820312 40.511719 C 19.820312 38.070312 17.832031 36.082031 15.390625 36.082031 C 12.976562 36.082031 11.03125 37.96875 10.957031 40.378906 L 9.820312 78.34375 C 9.820312 83.496094 14.996094 87.261719 19.5625 90.582031 C 19.867188 90.804688 20.167969 91.027344 20.46875 91.246094 L 15.742188 184.613281 C 15.589844 187.644531 16.65625 190.527344 18.75 192.726562 C 20.839844 194.925781 23.664062 196.140625 26.699219 196.140625 C 29.738281 196.140625 32.5625 194.925781 34.652344 192.726562 C 36.742188 190.523438 37.8125 187.644531 37.660156 184.613281 Z M 32.289062 190.484375 C 30.820312 192.027344 28.835938 192.882812 26.699219 192.882812 C 24.5625 192.882812 22.578125 192.03125 21.105469 190.484375 C 19.636719 188.9375 18.886719 186.910156 18.992188 184.777344 L 23.765625 90.535156 C 23.792969 89.992188 23.546875 89.472656 23.113281 89.144531 C 22.585938 88.753906 22.035156 88.351562 21.476562 87.949219 C 17.542969 85.082031 13.078125 81.835938 13.078125 78.390625 L 14.21875 40.476562 C 14.234375 39.839844 14.75 39.339844 15.390625 39.339844 C 16.039062 39.339844 16.566406 39.867188 16.566406 40.515625 L 16.566406 67.367188 C 16.566406 69.660156 18.429688 71.523438 20.722656 71.523438 C 23.007812 71.523438 24.871094 69.667969 24.878906 67.382812 L 25.007812 35.523438 C 25.011719 34.59375 25.773438 33.839844 26.699219 33.839844 C 27.628906 33.839844 28.386719 34.59375 28.390625 35.523438 L 28.519531 67.382812 C 28.53125 69.667969 30.394531 71.523438 32.679688 71.523438 C 34.96875 71.523438 36.835938 69.660156 36.835938 67.367188 L 36.835938 40.511719 C 36.835938 39.867188 37.359375 39.339844 38.007812 39.339844 C 38.648438 39.339844 39.164062 39.839844 39.183594 40.476562 L 40.324219 78.34375 C 40.324219 81.835938 35.863281 85.082031 31.925781 87.945312 C 31.367188 88.351562 30.816406 88.753906 30.289062 89.144531 C 29.851562 89.472656 29.609375 89.992188 29.636719 90.535156 L 34.40625 184.777344 C 34.511719 186.910156 33.761719 188.9375 32.289062 190.484375 Z M 32.289062 190.484375 " fill-opacity="1" fill-rule="nonzero"/></g></svg>