<svg xmlns="http://www.w3.org/2000/svg" xmlns:xlink="http://www.w3.org/1999/xlink" width="300" zoomAndPan="magnify" viewBox="0 0 224.87999 225" height="300" preserveAspectRatio="xMidYMid meet" version="1.0"><defs><clipPath id="f3d8657f79"><path d="M 80 148 L 146 148 L 146 189.285156 L 80 189.285156 Z M 80 148 " clip-rule="nonzero"/></clipPath><clipPath id="537db1fe0a"><path d="M 96 35.617188 L 130 35.617188 L 130 69 L 96 69 Z M 96 35.617188 " clip-rule="nonzero"/></clipPath><clipPath id="19feb71e02"><path d="M 14.03125 107 L 90 107 L 90 170 L 14.03125 170 Z M 14.03125 107 " clip-rule="nonzero"/></clipPath></defs><path fill="#ffffff" d="M 191.570312 112.964844 L 191.542969 112.964844 L 182.917969 112.976562 C 181.734375 112.988281 178.800781 114.410156 176.917969 116.472656 L 162.6875 131.996094 C 162.207031 132.527344 161.515625 132.820312 160.792969 132.820312 L 145.332031 132.820312 C 143.492188 132.820312 142.4375 133.40625 141.691406 134.21875 C 140.949219 135.019531 140.527344 136.160156 140.527344 137.339844 C 140.527344 138.511719 140.949219 139.667969 141.691406 140.46875 C 142.433594 141.28125 143.492188 141.859375 145.332031 141.859375 L 163.710938 141.859375 C 165.113281 141.859375 166.269531 141.328125 166.867188 140.574219 L 172.019531 134.03125 C 173.375 132.324219 176.105469 132.972656 176.539062 135.113281 L 182.179688 164.121094 L 205.046875 164.121094 L 196.101562 118.351562 C 195.773438 116.667969 195.136719 115.199219 194.371094 114.292969 C 193.605469 113.402344 192.851562 112.964844 191.570312 112.964844 Z M 191.542969 107.847656 C 194.3125 107.835938 196.710938 109.152344 198.265625 110.976562 C 199.832031 112.8125 200.691406 115.0625 201.140625 117.367188 L 210.660156 166.195312 C 210.976562 167.773438 209.765625 169.234375 208.164062 169.246094 L 180.0625 169.246094 C 178.839844 169.234375 177.789062 168.375 177.554688 167.171875 L 172.585938 141.574219 L 170.480469 144.1875 C 168.679688 145.964844 166.257812 146.964844 163.726562 146.976562 L 145.332031 146.976562 C 142.257812 146.976562 139.636719 145.792969 137.925781 143.941406 C 136.210938 142.09375 135.414062 139.691406 135.414062 137.339844 C 135.414062 134.976562 136.210938 132.574219 137.925781 130.726562 C 139.636719 128.875 142.257812 127.691406 145.332031 127.691406 L 159.675781 127.691406 L 173.152344 113.003906 C 175.789062 110.117188 179.191406 107.871094 182.921875 107.859375 Z M 191.542969 107.847656 " fill-opacity="1" fill-rule="nonzero"/><g clip-path="url(#f3d8657f79)"><path fill="#ffffff" d="M 99.84375 153.449219 L 125.261719 153.449219 C 131.078125 153.449219 136.054688 157.914062 137.925781 162.242188 C 140.035156 167.128906 140.195312 172.402344 139.621094 175.414062 C 138.972656 178.894531 138.492188 180.238281 137.5625 181.601562 C 136.867188 182.617188 135.230469 183.78125 134.152344 184.160156 L 90.933594 184.160156 C 89.859375 183.78125 88.203125 182.617188 87.519531 181.601562 C 86.589844 180.25 86.117188 178.898438 85.457031 175.414062 C 84.894531 172.402344 85.058594 167.128906 87.167969 162.242188 C 89.027344 157.925781 94.027344 153.449219 99.84375 153.449219 Z M 99.84375 148.332031 C 91.558594 148.332031 85.09375 154.097656 82.460938 160.207031 C 79.882812 166.183594 79.636719 172.199219 80.425781 176.367188 C 81.128906 180.074219 81.847656 182.417969 83.285156 184.511719 C 84.777344 186.714844 87.039062 188.417969 89.613281 189.183594 C 89.847656 189.242188 90.097656 189.277344 90.335938 189.277344 L 134.761719 189.277344 C 134.996094 189.277344 135.242188 189.242188 135.464844 189.183594 C 138.054688 188.417969 140.292969 186.699219 141.800781 184.511719 C 143.222656 182.417969 143.964844 180.074219 144.660156 176.367188 C 145.449219 172.199219 145.203125 166.1875 142.632812 160.207031 C 139.996094 154.097656 133.558594 148.332031 125.261719 148.332031 Z M 99.84375 148.332031 " fill-opacity="1" fill-rule="nonzero"/></g><path fill="#ffffff" d="M 125.855469 119.617188 C 129.019531 126.960938 125.664062 135.433594 118.324219 138.597656 C 110.953125 141.777344 102.46875 138.421875 99.289062 131.066406 C 96.125 123.710938 99.46875 115.261719 106.847656 112.085938 C 110.53125 110.496094 114.472656 110.53125 117.910156 111.898438 C 121.347656 113.261719 124.25 115.929688 125.855469 119.617188 Z M 104.832031 107.367188 C 94.910156 111.640625 90.324219 123.203125 94.59375 133.105469 C 98.867188 143.015625 110.4375 147.578125 120.34375 143.308594 C 130.242188 139.050781 134.816406 127.46875 130.546875 117.582031 C 128.40625 112.640625 124.453125 109.015625 119.792969 107.167969 C 115.128906 105.304688 109.777344 105.234375 104.832031 107.367188 Z M 104.832031 107.367188 " fill-opacity="1" fill-rule="evenodd"/><path fill="#ffffff" d="M 166.152344 149.132812 C 165.878906 149.097656 165.609375 149.109375 165.347656 149.171875 C 163.957031 149.4375 163.0625 150.78125 163.324219 152.171875 L 165.644531 164.128906 L 149.78125 164.128906 C 148.367188 164.128906 147.222656 165.269531 147.214844 166.683594 C 147.214844 168.09375 148.363281 169.25 149.78125 169.25 L 168.761719 169.25 C 170.375 169.238281 171.574219 167.777344 171.269531 166.203125 L 168.359375 151.195312 C 168.160156 150.097656 167.265625 149.261719 166.152344 149.132812 Z M 166.152344 149.132812 " fill-opacity="1" fill-rule="nonzero"/><path fill="#ffffff" d="M 101.714844 77.964844 L 123.390625 77.964844 C 128.21875 77.964844 132.347656 81.554688 133.855469 84.917969 C 135.375 88.308594 135.664062 91.945312 135.417969 94.382812 L 89.675781 94.382812 C 89.414062 91.945312 89.71875 88.308594 91.238281 84.917969 C 92.746094 81.566406 96.886719 77.964844 101.714844 77.964844 Z M 101.714844 72.847656 C 94.511719 72.847656 88.871094 77.636719 86.546875 82.828125 C 84.699219 86.945312 84.238281 91.078125 84.519531 94.382812 L 69.878906 94.382812 C 68.652344 94.382812 67.59375 95.253906 67.359375 96.464844 L 62.898438 119.40625 C 62.625 120.796875 63.53125 122.148438 64.933594 122.40625 C 66.324219 122.679688 67.664062 121.773438 67.933594 120.394531 L 71.984375 99.527344 L 153.082031 99.527344 L 157.140625 120.394531 C 157.414062 121.78125 158.765625 122.6875 160.152344 122.40625 C 161.542969 122.136719 162.449219 120.796875 162.167969 119.40625 L 157.722656 96.464844 C 157.5 95.253906 156.4375 94.382812 155.203125 94.382812 L 140.5625 94.382812 C 140.84375 91.078125 140.371094 86.945312 138.527344 82.828125 C 136.207031 77.648438 130.59375 72.847656 123.390625 72.847656 Z M 101.714844 72.847656 " fill-opacity="1" fill-rule="nonzero"/><g clip-path="url(#537db1fe0a)"><path fill="#ffffff" d="M 112.46875 40.824219 C 116.898438 40.789062 121.144531 43.34375 123.027344 47.695312 C 125.535156 53.472656 122.886719 60.160156 117.09375 62.65625 C 111.273438 65.160156 104.621094 62.527344 102.117188 56.722656 C 99.621094 50.921875 102.246094 44.257812 108.070312 41.753906 C 109.515625 41.128906 111 40.835938 112.46875 40.824219 Z M 112.4375 35.699219 C 110.292969 35.710938 108.117188 36.152344 106.035156 37.058594 C 97.664062 40.644531 93.816406 50.398438 97.40625 58.734375 C 97.40625 58.746094 97.40625 58.746094 97.40625 58.757812 C 101.019531 67.101562 110.777344 70.964844 119.117188 67.359375 C 127.464844 63.761719 131.335938 54.003906 127.734375 45.671875 C 125.027344 39.421875 118.871094 35.65625 112.4375 35.699219 Z M 112.4375 35.699219 " fill-opacity="1" fill-rule="nonzero"/></g><path fill="#ffffff" d="M 55.988281 79.90625 C 59 86.886719 55.816406 94.957031 48.832031 97.972656 C 41.820312 101 33.757812 97.808594 30.730469 90.796875 C 27.71875 83.800781 30.894531 75.746094 37.921875 72.71875 C 41.417969 71.210938 45.183594 71.269531 48.445312 72.566406 C 51.71875 73.859375 54.472656 76.398438 55.988281 79.90625 Z M 35.886719 68.011719 C 26.332031 72.128906 21.921875 83.277344 26.027344 92.820312 C 30.144531 102.363281 41.300781 106.789062 50.847656 102.671875 C 60.390625 98.566406 64.816406 87.394531 60.699219 77.875 C 58.625 73.097656 54.816406 69.613281 50.316406 67.835938 C 45.820312 66.042969 40.65625 65.960938 35.886719 68.011719 Z M 35.886719 68.011719 " fill-opacity="1" fill-rule="evenodd"/><path fill="#ffffff" d="M 187.167969 72.714844 C 194.183594 75.742188 197.371094 83.800781 194.359375 90.792969 C 191.335938 97.808594 183.273438 100.996094 176.257812 97.972656 C 169.269531 94.957031 166.078125 86.886719 169.101562 79.90625 C 170.609375 76.398438 173.375 73.859375 176.632812 72.5625 C 179.90625 71.269531 183.671875 71.210938 187.167969 72.714844 Z M 164.398438 77.875 C 160.277344 87.394531 164.675781 98.5625 174.222656 102.667969 C 183.777344 106.789062 194.9375 102.359375 199.058594 92.820312 C 203.175781 83.273438 198.75 72.128906 189.179688 68.007812 C 184.414062 65.957031 179.246094 66.042969 174.753906 67.832031 C 170.269531 69.609375 166.453125 73.09375 164.398438 77.875 Z M 164.398438 77.875 " fill-opacity="1" fill-rule="evenodd"/><g clip-path="url(#19feb71e02)"><path fill="#ffffff" d="M 33.523438 112.964844 L 33.535156 112.964844 L 42.160156 112.976562 C 43.363281 112.988281 46.28125 114.410156 48.164062 116.472656 L 62.390625 131.996094 C 62.886719 132.527344 63.582031 132.820312 64.296875 132.820312 L 79.765625 132.820312 C 81.597656 132.820312 82.648438 133.40625 83.398438 134.21875 C 84.140625 135.019531 84.566406 136.160156 84.566406 137.339844 C 84.566406 138.511719 84.140625 139.667969 83.398438 140.46875 C 82.648438 141.28125 81.597656 141.859375 79.765625 141.859375 L 61.378906 141.859375 C 59.976562 141.859375 58.8125 141.328125 58.226562 140.574219 L 53.070312 134.03125 C 51.714844 132.324219 48.976562 132.972656 48.550781 135.113281 L 42.914062 164.121094 L 20.050781 164.121094 L 28.980469 118.351562 C 29.3125 116.667969 29.945312 115.199219 30.722656 114.292969 C 31.484375 113.402344 32.242188 112.964844 33.523438 112.964844 Z M 33.535156 107.847656 C 30.769531 107.835938 28.367188 109.152344 26.816406 110.976562 C 25.261719 112.8125 24.402344 115.0625 23.941406 117.367188 L 14.421875 166.199219 C 14.117188 167.773438 15.316406 169.234375 16.929688 169.246094 L 45.03125 169.246094 C 46.246094 169.234375 47.292969 168.378906 47.53125 167.175781 L 52.507812 141.578125 L 54.601562 144.191406 C 56.402344 145.96875 58.832031 146.96875 61.355469 146.980469 L 79.765625 146.980469 C 82.824219 146.980469 85.460938 145.792969 87.167969 143.945312 C 88.875 142.097656 89.6875 139.695312 89.6875 137.34375 C 89.6875 134.976562 88.875 132.578125 87.167969 130.730469 C 85.460938 128.878906 82.824219 127.691406 79.765625 127.691406 L 65.417969 127.691406 L 51.941406 113.003906 C 49.296875 110.121094 45.894531 107.871094 42.164062 107.859375 Z M 33.535156 107.847656 " fill-opacity="1" fill-rule="nonzero"/></g><path fill="#ffffff" d="M 59.71875 149.15625 C 58.335938 148.898438 56.992188 149.804688 56.71875 151.191406 L 53.800781 166.195312 C 53.496094 167.773438 54.707031 169.246094 56.320312 169.246094 L 75.304688 169.246094 C 76.714844 169.234375 77.859375 168.089844 77.859375 166.679688 C 77.859375 165.265625 76.71875 164.121094 75.304688 164.121094 L 59.441406 164.121094 L 61.757812 152.167969 C 62.027344 150.769531 61.121094 149.429688 59.71875 149.15625 Z M 59.71875 149.15625 " fill-opacity="1" fill-rule="evenodd"/></svg>