<svg xmlns="http://www.w3.org/2000/svg" xmlns:xlink="http://www.w3.org/1999/xlink" width="300" zoomAndPan="magnify" viewBox="0 0 224.87999 225" height="300" preserveAspectRatio="xMidYMid meet" version="1.0"><defs><clipPath id="c5da8e348c"><path d="M 25.300781 26.667969 L 198 26.667969 L 198 197 L 25.300781 197 Z M 25.300781 26.667969 " clip-rule="nonzero"/></clipPath></defs><path fill="#ffffff" d="M 170.398438 169.632812 C 166.882812 173.148438 166.871094 178.851562 170.378906 182.359375 C 173.898438 185.851562 179.617188 185.855469 183.121094 182.355469 C 186.636719 178.839844 186.636719 173.121094 183.121094 169.605469 C 179.628906 166.113281 173.910156 166.113281 170.398438 169.632812 Z M 180.277344 179.511719 C 178.339844 181.449219 175.167969 181.445312 173.210938 179.511719 C 171.277344 177.578125 171.289062 174.417969 173.238281 172.46875 C 175.1875 170.523438 178.339844 170.507812 180.277344 172.441406 C 182.226562 174.390625 182.226562 177.5625 180.277344 179.511719 Z M 180.277344 179.511719 " fill-opacity="1" fill-rule="nonzero"/><g clip-path="url(#c5da8e348c)"><path fill="#ffffff" d="M 192.195312 166.683594 L 169.210938 143.699219 C 172.21875 138.359375 174.480469 132.839844 175.875 127.242188 L 190.992188 124.582031 C 191.949219 124.414062 192.652344 123.578125 192.652344 122.601562 L 192.652344 97.296875 C 192.652344 96.324219 191.957031 95.492188 191 95.320312 L 175.917969 92.605469 C 174.359375 86.542969 171.914062 80.664062 168.636719 75.097656 L 177.425781 62.480469 C 177.984375 61.683594 177.886719 60.59375 177.195312 59.910156 L 159.253906 42.046875 C 158.566406 41.367188 157.488281 41.265625 156.691406 41.820312 L 144.101562 50.558594 C 138.589844 47.3125 132.730469 44.898438 126.640625 43.375 L 123.925781 28.199219 C 123.753906 27.242188 122.921875 26.542969 121.949219 26.542969 L 96.644531 26.542969 C 95.671875 26.542969 94.839844 27.242188 94.667969 28.199219 L 91.953125 43.375 C 85.875 44.898438 80.003906 47.308594 74.46875 50.558594 L 61.847656 41.816406 C 61.054688 41.265625 59.972656 41.359375 59.285156 42.046875 L 41.398438 59.910156 C 40.707031 60.597656 40.613281 61.679688 41.167969 62.476562 L 49.957031 75.09375 C 46.679688 80.660156 44.234375 86.539062 42.675781 92.601562 L 27.597656 95.316406 C 26.640625 95.492188 25.945312 96.320312 25.945312 97.292969 L 25.945312 122.601562 C 25.945312 123.574219 26.644531 124.40625 27.605469 124.578125 L 42.699219 127.242188 C 44.222656 133.265625 46.664062 139.148438 49.960938 144.769531 L 41.167969 157.363281 C 40.613281 158.160156 40.707031 159.242188 41.394531 159.929688 L 59.28125 177.847656 C 59.972656 178.539062 61.054688 178.628906 61.851562 178.074219 L 74.472656 169.28125 C 79.992188 172.5 85.859375 174.921875 91.949219 176.488281 L 94.664062 191.648438 C 94.835938 192.601562 95.667969 193.300781 96.640625 193.300781 L 121.949219 193.300781 C 122.917969 193.300781 123.753906 192.605469 123.921875 191.648438 L 126.640625 176.488281 C 132.738281 174.917969 138.597656 172.5 144.089844 169.28125 L 148.078125 172.058594 L 167.445312 191.425781 C 174.25 198.230469 185.3125 198.332031 192.214844 191.425781 C 199.023438 184.628906 199.011719 173.53125 192.195312 166.683594 Z M 124.4375 172.898438 C 123.660156 173.082031 123.0625 173.710938 122.921875 174.5 L 120.273438 189.289062 L 98.328125 189.289062 L 95.679688 174.5 C 95.539062 173.710938 94.941406 173.082031 94.164062 172.898438 C 87.609375 171.347656 81.304688 168.753906 75.4375 165.183594 C 74.757812 164.769531 73.898438 164.796875 73.246094 165.25 L 60.941406 173.820312 L 45.433594 158.289062 L 54 146.007812 C 54.460938 145.355469 54.488281 144.492188 54.070312 143.8125 C 50.40625 137.820312 47.792969 131.503906 46.304688 125.046875 C 46.125 124.261719 45.492188 123.660156 44.695312 123.523438 L 29.96875 120.921875 L 29.96875 98.980469 L 44.675781 96.332031 C 45.464844 96.191406 46.09375 95.597656 46.277344 94.816406 C 47.808594 88.304688 50.433594 81.996094 54.066406 76.070312 C 54.484375 75.390625 54.457031 74.527344 54 73.871094 L 45.429688 61.570312 L 60.941406 46.078125 L 73.25 54.605469 C 73.90625 55.054688 74.765625 55.082031 75.441406 54.667969 C 81.324219 51.0625 87.617188 48.480469 94.148438 46.984375 C 94.933594 46.804688 95.535156 46.171875 95.675781 45.382812 L 98.328125 30.566406 L 120.269531 30.566406 L 122.921875 45.382812 C 123.0625 46.171875 123.667969 46.804688 124.453125 46.984375 C 130.992188 48.480469 137.277344 51.066406 143.128906 54.664062 C 143.804688 55.082031 144.671875 55.0625 145.328125 54.605469 L 157.609375 46.078125 L 173.167969 61.570312 L 164.601562 73.871094 C 164.144531 74.527344 164.117188 75.390625 164.535156 76.070312 C 168.167969 81.996094 170.792969 88.304688 172.324219 94.816406 C 172.507812 95.597656 173.136719 96.191406 173.925781 96.332031 L 188.632812 98.980469 L 188.632812 120.921875 L 173.875 123.523438 C 173.082031 123.664062 172.445312 124.269531 172.265625 125.058594 C 171.0625 130.382812 169.054688 135.660156 166.28125 140.773438 L 155.714844 130.207031 C 158.527344 123.800781 159.953125 116.972656 159.953125 109.886719 C 159.953125 81.964844 137.222656 59.246094 109.285156 59.246094 C 81.363281 59.246094 58.644531 81.964844 58.644531 109.886719 C 58.644531 137.871094 81.363281 160.636719 109.285156 160.636719 C 116.992188 160.636719 124.640625 158.867188 131.5 155.507812 L 141.917969 165.910156 C 136.429688 169.105469 130.554688 171.453125 124.4375 172.898438 Z M 152.59375 127.082031 L 142.726562 117.210938 C 143.621094 114.015625 144.0625 110.777344 144.0625 107.570312 C 144.0625 97.035156 139.335938 86.875 130.746094 79.910156 C 122.652344 73.347656 112.0625 70.722656 101.703125 72.722656 C 100.128906 73.027344 99.523438 74.976562 100.664062 76.117188 L 116.335938 91.789062 L 113.097656 112.9375 L 92.574219 115.585938 L 76.859375 99.871094 C 75.714844 98.71875 73.765625 99.34375 73.464844 100.910156 C 71.214844 112.605469 74.9375 124.519531 83.257812 132.839844 C 92.378906 141.960938 105.574219 145.402344 117.953125 141.957031 L 128.484375 152.488281 C 122.46875 155.230469 116.023438 156.617188 109.289062 156.617188 C 83.582031 156.617188 62.664062 135.652344 62.664062 109.886719 C 62.664062 84.175781 83.582031 63.261719 109.289062 63.261719 C 135.011719 63.261719 155.9375 84.175781 155.9375 109.886719 C 155.9375 115.863281 154.769531 121.621094 152.59375 127.082031 Z M 189.382812 188.589844 C 184.058594 193.914062 175.542969 193.839844 170.292969 188.589844 C 159.984375 178.269531 129.039062 147.351562 119.945312 138.269531 C 119.417969 137.742188 118.636719 137.550781 117.925781 137.773438 C 106.644531 141.320312 94.449219 138.34375 86.097656 129.996094 C 79.671875 123.570312 76.316406 114.710938 76.90625 105.59375 L 90.4375 119.121094 C 90.875 119.5625 91.488281 119.777344 92.113281 119.691406 L 115.117188 116.71875 C 116.007812 116.605469 116.710938 115.917969 116.847656 115.03125 C 120.75 89.4375 120.484375 91.359375 120.484375 91.082031 C 120.484375 90.554688 120.277344 90.042969 119.894531 89.664062 L 106.390625 76.160156 C 114.292969 75.621094 122.066406 78.042969 128.214844 83.03125 C 135.851562 89.214844 140.046875 98.242188 140.046875 107.589844 C 140.046875 110.78125 139.554688 114.007812 138.546875 117.175781 C 138.484375 117.375 138.453125 117.578125 138.453125 117.78125 C 138.453125 118.308594 138.65625 118.820312 139.042969 119.203125 C 148.195312 128.359375 129.765625 109.929688 189.359375 169.519531 C 194.605469 174.796875 194.621094 183.351562 189.382812 188.589844 Z M 189.382812 188.589844 " fill-opacity="1" fill-rule="nonzero"/></g></svg>