<svg xmlns="http://www.w3.org/2000/svg" xmlns:xlink="http://www.w3.org/1999/xlink" width="300" zoomAndPan="magnify" viewBox="0 0 224.87999 225" height="300" preserveAspectRatio="xMidYMid meet" version="1.0"><defs><clipPath id="cd1383c7e5"><path d="M 22.488281 22.546875 L 113.9375 22.546875 L 113.9375 115.5 L 22.488281 115.5 Z M 22.488281 22.546875 " clip-rule="nonzero"/></clipPath><clipPath id="5ddde94f9f"><path d="M 83.140625 122.503906 L 202.328125 122.503906 L 202.328125 202 L 83.140625 202 Z M 83.140625 122.503906 " clip-rule="nonzero"/></clipPath></defs><g clip-path="url(#cd1383c7e5)"><path fill="#ffffff" d="M 111.652344 46.542969 L 105.359375 46.542969 C 105.359375 45.71875 104.683594 45.042969 103.859375 45.042969 L 93.371094 45.042969 C 92.546875 45.042969 91.871094 45.71875 91.871094 46.542969 L 85.429688 46.542969 L 85.429688 34.554688 L 96.292969 34.554688 C 96.910156 34.554688 97.417969 34.050781 97.417969 33.429688 L 97.417969 25.1875 C 97.417969 24.570312 96.910156 24.066406 96.292969 24.066406 L 70.070312 24.066406 C 69.449219 24.066406 68.945312 24.570312 68.945312 25.1875 L 68.945312 33.429688 C 68.945312 34.050781 69.449219 34.554688 70.070312 34.554688 L 80.933594 34.554688 L 80.933594 46.542969 L 59.203125 46.542969 C 57.96875 46.542969 56.957031 47.554688 56.957031 48.789062 L 56.957031 50.289062 C 56.957031 51.261719 57.574219 52.085938 58.457031 52.40625 L 58.457031 52.539062 L 52.125 52.539062 L 54.859375 40.15625 C 54.914062 40.175781 54.972656 40.175781 55.027344 40.175781 C 55.175781 40.175781 55.308594 40.136719 55.441406 40.0625 C 55.609375 39.949219 55.722656 39.78125 55.777344 39.59375 L 56.265625 37.402344 L 62.859375 38.863281 C 63.269531 38.957031 63.664062 38.695312 63.757812 38.300781 L 64.394531 35.453125 L 67.445312 28.523438 C 67.539062 28.316406 67.523438 28.074219 67.429688 27.886719 C 67.335938 27.679688 67.148438 27.550781 66.921875 27.492188 L 44.914062 22.605469 C 44.6875 22.546875 44.464844 22.605469 44.292969 22.753906 C 44.125 22.902344 44.011719 23.109375 44.011719 23.335938 L 43.84375 30.902344 L 43.207031 33.75 C 43.113281 34.160156 43.375 34.554688 43.769531 34.648438 L 50.363281 36.109375 L 49.875 38.300781 C 49.78125 38.714844 50.046875 39.105469 50.4375 39.199219 L 47.515625 52.539062 L 35.976562 52.539062 C 35.152344 52.539062 34.480469 53.210938 34.480469 54.035156 L 34.480469 55.535156 C 34.480469 56.359375 35.152344 57.03125 35.976562 57.03125 L 46.523438 57.03125 L 42.890625 73.515625 L 27.734375 73.515625 C 27.324219 73.515625 26.988281 73.855469 26.988281 74.265625 L 26.988281 75.015625 L 26.238281 75.015625 C 25.824219 75.015625 25.488281 75.351562 25.488281 75.765625 L 25.488281 76.511719 L 23.988281 76.511719 C 23.578125 76.511719 23.242188 76.851562 23.242188 77.261719 C 23.242188 82.207031 24.832031 86.796875 27.699219 90.261719 L 28.429688 103.488281 L 24.738281 103.488281 C 23.503906 103.488281 22.492188 104.5 22.492188 105.734375 L 22.492188 107.234375 C 22.492188 108.46875 23.503906 109.480469 24.738281 109.480469 L 26.238281 109.480469 C 25.769531 110.097656 25.488281 110.886719 25.488281 111.730469 C 25.488281 113.789062 27.175781 115.476562 29.234375 115.476562 C 31.296875 115.476562 32.980469 113.789062 32.980469 111.730469 C 32.980469 110.886719 32.699219 110.097656 32.230469 109.480469 L 69.695312 109.480469 C 71.175781 113.003906 74.640625 115.476562 78.6875 115.476562 C 83.800781 115.476562 88.015625 111.503906 88.386719 106.484375 L 89.175781 106.484375 C 89.585938 106.484375 89.925781 106.148438 89.925781 105.734375 C 89.925781 104.421875 89.699219 103.167969 89.289062 101.988281 L 108.65625 101.988281 C 109.890625 101.988281 110.902344 100.976562 110.902344 99.742188 L 110.902344 98.242188 C 110.902344 97.003906 109.890625 95.996094 108.65625 95.996094 L 106.800781 95.996094 C 107.476562 95.226562 107.90625 94.195312 107.90625 93.089844 L 107.90625 52.539062 L 111.652344 52.539062 C 112.890625 52.539062 113.902344 51.527344 113.902344 50.289062 L 113.902344 48.789062 C 113.902344 47.554688 112.890625 46.542969 111.652344 46.542969 Z M 90.148438 56.75 C 89.941406 56.9375 89.699219 57.050781 89.417969 57.03125 C 89.136719 57.03125 88.894531 56.902344 88.707031 56.714844 C 88.539062 56.527344 88.445312 56.285156 88.445312 56.019531 C 88.445312 55.757812 88.539062 55.496094 88.726562 55.308594 L 93.183594 50.738281 C 93.316406 50.609375 93.390625 50.421875 93.390625 50.214844 L 93.390625 46.542969 L 103.878906 46.542969 L 103.878906 63.738281 C 103.878906 64.09375 103.636719 64.433594 103.28125 64.507812 C 102.960938 64.5625 102.660156 64.433594 102.492188 64.152344 C 102.417969 64.039062 102.382812 63.886719 102.382812 63.757812 L 102.382812 57.800781 C 102.382812 57.40625 102.101562 57.050781 101.707031 57.015625 C 101.257812 56.976562 100.882812 57.3125 100.882812 57.761719 L 100.882812 63.71875 C 100.882812 64.113281 100.601562 64.46875 100.207031 64.507812 C 99.757812 64.542969 99.382812 64.207031 99.382812 63.757812 L 99.382812 57.800781 C 99.382812 57.40625 99.101562 57.050781 98.710938 57.015625 C 98.261719 56.976562 97.886719 57.3125 97.886719 57.761719 L 97.886719 63.71875 C 97.886719 64.113281 97.605469 64.46875 97.210938 64.507812 C 96.761719 64.542969 96.386719 64.207031 96.386719 63.757812 L 96.386719 57.800781 C 96.386719 57.40625 96.105469 57.050781 95.710938 57.015625 C 95.261719 56.976562 94.886719 57.3125 94.886719 57.761719 L 94.886719 63.71875 C 94.886719 64.074219 94.644531 64.414062 94.289062 64.488281 C 93.96875 64.542969 93.671875 64.414062 93.503906 64.132812 C 93.425781 64.019531 93.390625 63.871094 93.390625 63.738281 L 93.390625 55.367188 C 93.390625 54.710938 92.601562 54.371094 92.117188 54.824219 Z M 85.390625 104.984375 C 85.015625 101.613281 82.152344 98.992188 78.6875 98.992188 C 75.21875 98.992188 72.355469 101.613281 71.980469 104.984375 L 68.964844 104.984375 C 69.339844 99.964844 73.554688 95.996094 78.667969 95.996094 C 83.78125 95.996094 87.996094 99.964844 88.371094 104.984375 Z M 83.929688 105.734375 C 83.929688 108.621094 81.570312 110.980469 78.6875 110.980469 C 75.800781 110.980469 73.441406 108.621094 73.441406 105.734375 C 73.441406 102.851562 75.800781 100.488281 78.6875 100.488281 C 81.570312 100.488281 83.929688 102.851562 83.929688 105.734375 Z M 67.671875 103.488281 L 67.445312 103.488281 L 67.445312 100.488281 L 68.757812 100.488281 C 68.253906 101.425781 67.894531 102.417969 67.671875 103.488281 Z M 52.332031 79.511719 L 53.210938 79.511719 C 53.621094 79.511719 53.960938 79.171875 53.960938 78.761719 L 53.960938 78.011719 L 54.691406 78.011719 C 54.558594 81.644531 53.546875 84.925781 51.882812 87.566406 Z M 50.269531 89.738281 C 47.609375 92.714844 43.921875 94.496094 39.722656 94.496094 C 35.527344 94.496094 31.839844 92.714844 29.179688 89.738281 L 28.617188 79.511719 L 50.851562 79.511719 Z M 51.75 90.261719 C 54.632812 86.796875 56.207031 82.207031 56.207031 77.261719 C 56.207031 76.851562 55.871094 76.511719 55.457031 76.511719 L 53.960938 76.511719 L 53.960938 75.765625 C 53.960938 75.351562 53.621094 75.015625 53.210938 75.015625 L 52.460938 75.015625 L 52.460938 74.265625 C 52.460938 73.855469 52.125 73.515625 51.710938 73.515625 L 47.496094 73.515625 L 51.132812 57.03125 L 58.457031 57.03125 L 58.457031 103.488281 L 51 103.488281 Z M 61.453125 52.539062 L 61.453125 103.488281 L 59.953125 103.488281 L 59.953125 52.539062 Z M 83.929688 95.808594 C 83.445312 95.542969 82.957031 95.339844 82.433594 95.152344 L 82.433594 52.539062 L 83.929688 52.539062 Z M 62.953125 76.511719 L 80.933594 76.511719 L 80.933594 78.011719 L 62.953125 78.011719 Z M 66.699219 64.523438 L 67.953125 64.523438 C 68.90625 64.523438 69.695312 65.3125 69.695312 66.265625 L 69.695312 72.019531 L 66.699219 72.019531 Z M 66.699219 73.515625 L 70.445312 73.515625 C 70.855469 73.515625 71.191406 73.179688 71.191406 72.765625 L 71.191406 66.265625 C 71.191406 64.46875 69.730469 63.027344 67.953125 63.027344 L 66.699219 63.027344 L 66.699219 61.902344 C 66.699219 60.871094 67.539062 60.03125 68.570312 60.03125 L 74.847656 60.03125 C 76.136719 60.03125 77.1875 61.078125 77.1875 62.371094 L 77.1875 75.015625 L 66.699219 75.015625 Z M 71.191406 58.53125 L 69.695312 58.53125 L 69.695312 55.535156 L 71.191406 55.535156 Z M 80.933594 75.015625 L 78.6875 75.015625 L 78.6875 62.371094 C 78.6875 60.253906 76.960938 58.53125 74.847656 58.53125 L 72.691406 58.53125 L 72.691406 55.535156 C 72.691406 54.710938 72.015625 54.035156 71.191406 54.035156 L 69.695312 54.035156 C 68.871094 54.035156 68.195312 54.710938 68.195312 55.535156 L 68.195312 58.550781 C 66.511719 58.738281 65.199219 60.160156 65.199219 61.902344 L 65.199219 75.015625 L 62.953125 75.015625 L 62.953125 52.539062 L 80.933594 52.539062 Z M 62.953125 79.511719 L 80.933594 79.511719 L 80.933594 94.71875 C 80.203125 94.570312 79.453125 94.496094 78.6875 94.496094 C 78.441406 94.496094 78.179688 94.515625 77.9375 94.515625 L 77.9375 92.433594 C 77.9375 90.335938 76.269531 88.613281 74.191406 88.519531 L 74.191406 85.503906 C 74.191406 84.679688 73.515625 84.007812 72.691406 84.007812 L 71.191406 84.007812 C 70.367188 84.007812 69.695312 84.679688 69.695312 85.503906 L 69.695312 88.519531 C 67.617188 88.613281 65.949219 90.335938 65.949219 92.433594 L 65.949219 103.488281 L 62.953125 103.488281 Z M 69.695312 98.992188 L 67.445312 98.992188 L 67.445312 94.496094 L 71.941406 94.496094 L 71.941406 96.742188 C 71.097656 97.378906 70.332031 98.148438 69.695312 98.992188 Z M 72.691406 92.996094 L 67.445312 92.996094 L 67.445312 92.433594 C 67.445312 91.085938 68.53125 90 69.882812 90 L 74.003906 90 C 75.351562 90 76.4375 91.085938 76.4375 92.433594 L 76.4375 94.71875 C 75.371094 94.945312 74.378906 95.300781 73.441406 95.789062 L 73.441406 93.726562 C 73.441406 93.335938 73.105469 92.996094 72.691406 92.996094 Z M 72.691406 88.5 L 71.191406 88.5 L 71.191406 85.503906 L 72.691406 85.503906 Z M 85.429688 52.539062 L 86.925781 52.539062 L 86.925781 93.089844 C 86.925781 94.195312 87.339844 95.226562 88.03125 95.996094 L 85.429688 95.996094 Z M 88.425781 52.539062 L 89.324219 52.539062 L 88.425781 53.453125 Z M 70.445312 33.054688 L 70.445312 25.5625 L 95.917969 25.5625 L 95.917969 33.054688 L 85.429688 33.054688 L 85.429688 31.558594 L 88.800781 31.558594 C 89.417969 31.558594 89.925781 31.050781 89.925781 30.433594 L 89.925781 28.1875 C 89.925781 27.566406 89.417969 27.0625 88.800781 27.0625 L 77.5625 27.0625 C 76.945312 27.0625 76.4375 27.566406 76.4375 28.1875 L 76.4375 30.433594 C 76.4375 31.050781 76.945312 31.558594 77.5625 31.558594 L 80.933594 31.558594 L 80.933594 33.054688 Z M 81.683594 30.058594 L 77.9375 30.058594 L 77.9375 28.5625 L 88.425781 28.5625 L 88.425781 30.058594 L 84.679688 30.058594 C 84.269531 30.058594 83.929688 30.398438 83.929688 30.808594 L 83.929688 46.542969 L 82.433594 46.542969 L 82.433594 30.808594 C 82.433594 30.398438 82.09375 30.058594 81.683594 30.058594 Z M 58.457031 48.789062 C 58.457031 48.378906 58.792969 48.042969 59.203125 48.042969 L 91.871094 48.042969 L 91.871094 49.914062 L 90.765625 51.039062 L 59.203125 51.039062 C 58.792969 51.039062 58.457031 50.703125 58.457031 50.289062 Z M 48.339844 24.90625 L 47.367188 29.292969 C 47.273438 29.703125 47.535156 30.097656 47.929688 30.191406 C 47.984375 30.210938 48.039062 30.210938 48.097656 30.210938 C 48.433594 30.210938 48.753906 29.964844 48.828125 29.628906 L 49.800781 25.246094 L 51.167969 25.546875 L 50.53125 28.46875 C 50.4375 28.878906 50.699219 29.273438 51.09375 29.367188 C 51.148438 29.386719 51.207031 29.386719 51.261719 29.386719 C 51.601562 29.386719 51.917969 29.140625 51.992188 28.804688 L 52.628906 25.882812 L 57.011719 26.855469 L 56.171875 30.695312 C 56.078125 31.109375 56.339844 31.5 56.730469 31.59375 C 56.789062 31.613281 56.84375 31.613281 56.902344 31.613281 C 57.238281 31.613281 57.554688 31.371094 57.632812 31.035156 L 58.472656 27.195312 L 61.398438 27.832031 L 60.910156 30.023438 C 60.816406 30.433594 61.078125 30.828125 61.472656 30.921875 C 61.527344 30.941406 61.582031 30.941406 61.640625 30.941406 C 61.976562 30.941406 62.296875 30.695312 62.371094 30.359375 L 62.859375 28.167969 L 65.628906 28.785156 L 63.175781 34.386719 L 45.34375 30.453125 L 45.457031 24.347656 Z M 44.835938 33.335938 L 45.15625 31.875 L 62.707031 35.753906 L 62.390625 37.214844 L 55.796875 35.753906 C 55.382812 35.660156 54.992188 35.921875 54.898438 36.316406 L 54.410156 38.507812 L 51.488281 37.871094 L 51.972656 35.679688 C 52.066406 35.265625 51.804688 34.875 51.414062 34.78125 Z M 51.917969 39.5 L 53.378906 39.820312 L 50.589844 52.539062 L 49.050781 52.539062 Z M 35.976562 54.035156 L 58.457031 54.035156 L 58.457031 55.535156 L 35.976562 55.535156 Z M 48.058594 57.03125 L 49.59375 57.03125 L 45.960938 73.515625 L 44.425781 73.515625 Z M 26.988281 76.511719 L 27.734375 76.511719 C 28.148438 76.511719 28.484375 76.175781 28.484375 75.765625 L 28.484375 75.015625 L 50.964844 75.015625 L 50.964844 75.765625 C 50.964844 76.175781 51.300781 76.511719 51.710938 76.511719 L 52.460938 76.511719 L 52.460938 78.011719 L 26.988281 78.011719 Z M 24.757812 78.011719 L 25.488281 78.011719 L 25.488281 78.761719 C 25.488281 79.171875 25.824219 79.511719 26.238281 79.511719 L 27.117188 79.511719 L 27.566406 87.566406 C 25.882812 84.925781 24.871094 81.644531 24.757812 78.011719 Z M 29.308594 91.929688 C 32.195312 94.550781 35.828125 95.996094 39.722656 95.996094 C 43.621094 95.996094 47.253906 94.570312 50.140625 91.929688 L 49.503906 103.488281 L 29.945312 103.488281 Z M 31.480469 111.730469 C 31.480469 112.964844 30.472656 113.976562 29.234375 113.976562 C 28 113.976562 26.988281 112.964844 26.988281 111.730469 C 26.988281 110.492188 28 109.480469 29.234375 109.480469 C 30.472656 109.480469 31.480469 110.492188 31.480469 111.730469 Z M 24.738281 107.980469 C 24.328125 107.980469 23.988281 107.644531 23.988281 107.234375 L 23.988281 105.734375 C 23.988281 105.324219 24.328125 104.984375 24.738281 104.984375 L 67.464844 104.984375 C 67.445312 105.230469 67.445312 105.492188 67.445312 105.734375 C 67.445312 106.148438 67.785156 106.484375 68.195312 106.484375 L 68.984375 106.484375 C 69.019531 106.988281 69.09375 107.496094 69.207031 107.980469 Z M 78.6875 113.976562 C 74.394531 113.976562 70.855469 110.679688 70.480469 106.484375 L 71.980469 106.484375 C 72.355469 109.855469 75.21875 112.476562 78.6875 112.476562 C 82.152344 112.476562 85.015625 109.855469 85.390625 106.484375 L 86.890625 106.484375 C 86.515625 110.679688 82.976562 113.976562 78.6875 113.976562 Z M 109.40625 98.242188 L 109.40625 99.742188 C 109.40625 100.152344 109.066406 100.488281 108.65625 100.488281 L 88.613281 100.488281 C 88.015625 99.367188 87.226562 98.355469 86.308594 97.492188 L 108.65625 97.492188 C 109.066406 97.492188 109.40625 97.828125 109.40625 98.242188 Z M 106.410156 93.089844 C 106.410156 94.683594 105.097656 95.996094 103.503906 95.996094 L 91.328125 95.996094 C 89.738281 95.996094 88.425781 94.683594 88.425781 93.089844 L 88.425781 58.324219 C 88.726562 58.457031 89.042969 58.53125 89.382812 58.53125 C 90.074219 58.550781 90.710938 58.289062 91.199219 57.820312 L 91.871094 57.164062 L 91.871094 63.777344 C 91.871094 64.375 92.097656 64.9375 92.527344 65.367188 C 92.960938 65.800781 93.519531 66.023438 94.121094 66.023438 C 94.699219 66.023438 95.226562 65.800781 95.617188 65.441406 C 96.011719 65.800781 96.535156 66.023438 97.117188 66.023438 C 97.699219 66.023438 98.222656 65.800781 98.617188 65.441406 C 99.007812 65.800781 99.535156 66.023438 100.113281 66.023438 C 100.695312 66.023438 101.21875 65.800781 101.613281 65.441406 C 102.023438 65.816406 102.550781 66.023438 103.113281 66.023438 C 104.347656 66.023438 105.359375 65.011719 105.359375 63.777344 L 105.359375 52.539062 L 106.410156 52.539062 Z M 112.402344 50.289062 C 112.402344 50.703125 112.066406 51.039062 111.652344 51.039062 L 105.359375 51.039062 L 105.359375 48.042969 L 111.652344 48.042969 C 112.066406 48.042969 112.402344 48.378906 112.402344 48.789062 Z M 112.402344 50.289062 " fill-opacity="1" fill-rule="nonzero"/></g><path fill="#ffffff" d="M 74.433594 60.777344 L 72.691406 60.777344 C 72.28125 60.777344 71.941406 61.117188 71.941406 61.527344 L 71.941406 66.773438 C 71.941406 67.183594 72.28125 67.523438 72.691406 67.523438 L 75.6875 67.523438 C 76.101562 67.523438 76.4375 67.183594 76.4375 66.773438 L 76.4375 62.785156 C 76.4375 61.679688 75.539062 60.777344 74.433594 60.777344 Z M 74.9375 66.023438 L 73.441406 66.023438 L 73.441406 62.277344 L 74.433594 62.277344 C 74.714844 62.277344 74.9375 62.503906 74.9375 62.785156 Z M 74.9375 66.023438 " fill-opacity="1" fill-rule="nonzero"/><g clip-path="url(#5ddde94f9f)"><path fill="#ffffff" d="M 95.296875 122.539062 C 92.277344 122.542969 89.730469 124.933594 89.1875 128.132812 C 89.164062 128.269531 89.183594 128.40625 89.238281 128.527344 C 89.199219 128.804688 89.179688 129.082031 89.175781 129.363281 C 89.175781 132.746094 91.917969 135.488281 95.300781 135.488281 C 98.683594 135.488281 101.425781 132.746094 101.425781 129.363281 C 101.425781 129.214844 101.421875 129.070312 101.410156 128.921875 L 104.601562 128.921875 C 104.972656 128.921875 105.277344 128.621094 105.277344 128.246094 C 105.277344 127.875 104.976562 127.570312 104.601562 127.570312 L 101.296875 127.570312 C 100.566406 124.652344 98.144531 122.539062 95.300781 122.539062 Z M 95.300781 123.894531 C 97.355469 123.894531 99.125 125.390625 99.816406 127.570312 L 90.789062 127.570312 C 91.480469 125.394531 93.246094 123.894531 95.300781 123.894531 Z M 192.640625 125.121094 C 189.578125 125.125 186.984375 127.507812 186.429688 130.714844 C 186.417969 130.792969 186.417969 130.875 186.433594 130.953125 C 186.378906 131.28125 186.347656 131.613281 186.34375 131.945312 C 186.34375 135.328125 189.085938 138.070312 192.46875 138.070312 C 195.851562 138.070312 198.59375 135.328125 198.59375 131.945312 C 198.59375 131.800781 198.589844 131.652344 198.578125 131.507812 L 201.769531 131.507812 C 202.140625 131.503906 202.445312 131.203125 202.445312 130.832031 C 202.445312 130.457031 202.144531 130.15625 201.769531 130.152344 L 198.734375 130.152344 C 197.992188 127.234375 195.523438 125.121094 192.640625 125.121094 Z M 192.640625 126.476562 L 192.644531 126.476562 C 194.746094 126.476562 196.546875 127.980469 197.25 130.152344 L 188.039062 130.152344 C 188.742188 127.980469 190.539062 126.480469 192.640625 126.476562 Z M 112.566406 127.527344 C 112.191406 127.527344 111.890625 127.832031 111.890625 128.207031 L 111.890625 151.160156 L 111 151.035156 L 102.417969 141.554688 C 101.355469 140.109375 99.871094 139.035156 98.167969 138.480469 L 93.183594 136.859375 C 91.480469 136.304688 89.726562 137.578125 89.726562 139.371094 L 89.726562 166.640625 C 89.746094 166.640625 89.757812 166.640625 89.757812 166.640625 C 89.765625 167 90.050781 168.519531 90.332031 170.035156 L 92.050781 179.292969 L 84.15625 196.117188 C 83.207031 198.144531 84.078125 200.5625 86.109375 201.515625 C 88.140625 202.46875 90.558594 201.59375 91.511719 199.566406 L 99.957031 181.558594 C 100.316406 180.792969 100.425781 179.929688 100.269531 179.097656 L 99.070312 172.613281 L 106.800781 180.761719 L 106.625 197.796875 C 106.601562 200.039062 108.402344 201.875 110.644531 201.898438 C 112.886719 201.921875 114.722656 200.125 114.746094 197.882812 L 114.9375 179.199219 C 114.949219 178.144531 114.546875 177.128906 113.824219 176.363281 L 104.082031 166.101562 L 104.082031 151.460938 L 107.648438 155.398438 C 108.074219 155.871094 108.65625 156.179688 109.285156 156.265625 L 111.890625 156.625 L 111.890625 163.828125 C 111.890625 164.203125 112.191406 164.507812 112.566406 164.507812 L 171.183594 164.507812 C 171.558594 164.507812 171.859375 164.203125 171.859375 163.828125 L 171.859375 148.726562 L 178.628906 145.085938 L 175.082031 153.34375 C 173.929688 156.03125 173.308594 158.839844 173.21875 161.761719 L 173.128906 164.824219 L 173.136719 164.828125 C 173.113281 165.316406 173.320312 166.425781 173.484375 167.308594 L 175.6875 179.289062 L 167.796875 196.117188 C 166.84375 198.144531 167.71875 200.5625 169.746094 201.515625 C 171.777344 202.46875 174.195312 201.59375 175.148438 199.566406 L 183.59375 181.558594 C 183.953125 180.792969 184.0625 179.933594 183.910156 179.101562 L 182.71875 172.628906 L 190.4375 180.761719 L 190.261719 197.796875 C 190.238281 200.039062 192.039062 201.875 194.28125 201.898438 C 196.523438 201.921875 198.359375 200.125 198.382812 197.882812 L 198.574219 179.199219 C 198.585938 178.144531 198.1875 177.128906 197.460938 176.363281 L 186.25 164.554688 C 186.207031 164.507812 186.160156 164.464844 186.113281 164.425781 L 186.539062 163.039062 L 191.949219 150.449219 C 193.410156 147.039062 192.515625 143.074219 189.726562 140.628906 L 185.789062 137.175781 C 185.242188 136.695312 184.519531 136.464844 183.792969 136.535156 C 183.34375 136.535156 182.902344 136.644531 182.503906 136.855469 L 171.859375 142.578125 L 171.859375 128.207031 C 171.863281 127.832031 171.558594 127.527344 171.183594 127.527344 Z M 113.242188 128.882812 L 170.507812 128.882812 L 170.507812 143.304688 L 157.296875 150.410156 C 155.980469 151.117188 155.488281 152.761719 156.195312 154.078125 C 156.902344 155.394531 158.546875 155.886719 159.863281 155.175781 L 170.507812 149.453125 L 170.507812 163.152344 L 113.242188 163.152344 L 113.242188 156.808594 L 128.9375 158.972656 C 130.417969 159.175781 131.785156 158.140625 131.988281 156.660156 C 132.191406 155.179688 131.15625 153.8125 129.675781 153.609375 L 113.242188 151.34375 Z M 113.242188 128.882812 " fill-opacity="1" fill-rule="nonzero"/></g></svg>