<svg xmlns="http://www.w3.org/2000/svg" xmlns:xlink="http://www.w3.org/1999/xlink" width="251" zoomAndPan="magnify" viewBox="0 0 188.25 187.499992" height="250" preserveAspectRatio="xMidYMid meet" version="1.0"><defs><clipPath id="940e2e7374"><path d="M 109 93 L 187.152344 93 L 187.152344 185.957031 L 109 185.957031 Z M 109 93 " clip-rule="nonzero"/></clipPath><clipPath id="8396c908ab"><path d="M 12 0.121094 L 23 0.121094 L 23 43 L 12 43 Z M 12 0.121094 " clip-rule="nonzero"/></clipPath><clipPath id="3caa5a10ed"><path d="M 0 54 L 35 54 L 35 77.8125 L 0 77.8125 Z M 0 54 " clip-rule="nonzero"/></clipPath><clipPath id="85228b6dee"><path d="M 6 66 L 10 66 L 10 77.8125 L 6 77.8125 Z M 6 66 " clip-rule="nonzero"/></clipPath><clipPath id="d4c0b43b5a"><path d="M 12 66 L 17 66 L 17 77.8125 L 12 77.8125 Z M 12 66 " clip-rule="nonzero"/></clipPath><clipPath id="e57aa48183"><path d="M 19 66 L 23 66 L 23 77.8125 L 19 77.8125 Z M 19 66 " clip-rule="nonzero"/></clipPath><clipPath id="a547fcdfc9"><path d="M 25 66 L 29 66 L 29 77.8125 L 25 77.8125 Z M 25 66 " clip-rule="nonzero"/></clipPath><clipPath id="d09a323ddd"><path d="M 33 35 L 77.691406 35 L 77.691406 45 L 33 45 Z M 33 35 " clip-rule="nonzero"/></clipPath><clipPath id="a21c5811a3"><path d="M 36 41 L 75 41 L 75 77.8125 L 36 77.8125 Z M 36 41 " clip-rule="nonzero"/></clipPath><clipPath id="e1eddeeef0"><path d="M 0 0.121094 L 180 0.121094 L 180 180 L 0 180 Z M 0 0.121094 " clip-rule="nonzero"/></clipPath><clipPath id="877e3a5648"><path d="M 0.574219 178.515625 L 179.113281 -0.0234375 L 180.171875 1.03125 L 1.632812 179.570312 Z M 0.574219 178.515625 " clip-rule="nonzero"/></clipPath><clipPath id="d136859243"><path d="M 0.574219 178.515625 L 179.113281 -0.0234375 L 180.171875 1.03125 L 1.632812 179.570312 Z M 0.574219 178.515625 " clip-rule="nonzero"/></clipPath></defs><g clip-path="url(#940e2e7374)"><path fill="#ffffff" d="M 110.316406 97.945312 L 118.15625 102.363281 L 138.230469 172.261719 C 137.992188 173.132812 137.871094 174.015625 137.871094 174.917969 C 137.871094 175.351562 137.898438 175.785156 137.949219 176.214844 C 138.003906 176.644531 138.085938 177.070312 138.195312 177.492188 C 138.300781 177.914062 138.4375 178.324219 138.597656 178.726562 C 138.757812 179.128906 138.945312 179.523438 139.15625 179.902344 C 139.367188 180.28125 139.601562 180.644531 139.859375 180.992188 C 140.117188 181.34375 140.394531 181.675781 140.695312 181.988281 C 140.996094 182.300781 141.316406 182.59375 141.652344 182.867188 C 141.992188 183.140625 142.34375 183.390625 142.714844 183.617188 C 143.082031 183.84375 143.464844 184.046875 143.863281 184.226562 C 144.257812 184.40625 144.664062 184.558594 145.078125 184.683594 C 145.492188 184.8125 145.914062 184.910156 146.34375 184.984375 C 146.769531 185.054688 147.203125 185.101562 147.636719 185.117188 C 148.070312 185.136719 148.503906 185.125 148.933594 185.089844 C 149.367188 185.050781 149.796875 184.984375 150.21875 184.890625 C 150.644531 184.800781 151.058594 184.679688 151.46875 184.535156 C 151.878906 184.386719 152.277344 184.214844 152.664062 184.019531 C 153.050781 183.824219 153.421875 183.601562 153.78125 183.355469 C 154.140625 183.113281 154.480469 182.84375 154.804688 182.558594 C 155.128906 182.269531 155.433594 181.960938 155.71875 181.632812 C 156.003906 181.304688 156.265625 180.960938 156.507812 180.601562 C 156.75 180.238281 156.964844 179.863281 157.160156 179.476562 C 157.351562 179.085938 157.519531 178.6875 157.660156 178.277344 C 157.804688 177.867188 157.917969 177.449219 158.007812 177.023438 C 158.09375 176.597656 158.15625 176.171875 158.1875 175.738281 C 158.222656 175.304688 158.226562 174.871094 158.207031 174.4375 C 158.183594 174.003906 158.132812 173.574219 158.058594 173.148438 C 157.980469 172.71875 157.875 172.300781 157.746094 171.886719 C 157.613281 171.472656 157.457031 171.066406 157.277344 170.675781 C 157.09375 170.28125 156.886719 169.898438 156.65625 169.53125 C 156.421875 169.164062 156.167969 168.8125 155.894531 168.480469 C 155.617188 168.144531 155.320312 167.828125 155.003906 167.53125 C 154.6875 167.234375 154.351562 166.960938 154 166.707031 L 185.515625 153.515625 C 185.816406 153.390625 186.082031 153.210938 186.3125 152.976562 C 186.542969 152.742188 186.722656 152.476562 186.847656 152.171875 C 186.96875 151.867188 187.03125 151.550781 187.03125 151.226562 C 187.03125 150.898438 186.96875 150.582031 186.84375 150.277344 C 186.714844 149.972656 186.535156 149.703125 186.300781 149.472656 C 186.070312 149.238281 185.800781 149.058594 185.496094 148.933594 C 185.191406 148.808594 184.871094 148.746094 184.542969 148.746094 C 184.210938 148.746094 183.894531 148.8125 183.589844 148.9375 L 141.730469 166.46875 L 122.363281 98.953125 L 112.722656 93.605469 C 112.4375 93.445312 112.128906 93.347656 111.800781 93.308594 C 111.472656 93.273438 111.152344 93.296875 110.835938 93.390625 C 110.519531 93.480469 110.230469 93.628906 109.976562 93.832031 C 109.71875 94.039062 109.507812 94.285156 109.347656 94.570312 C 109.1875 94.859375 109.089844 95.167969 109.054688 95.496094 C 109.015625 95.820312 109.042969 96.144531 109.132812 96.460938 C 109.222656 96.777344 109.371094 97.0625 109.578125 97.320312 C 109.78125 97.578125 110.027344 97.785156 110.316406 97.945312 Z M 148.046875 180.128906 C 147.703125 180.128906 147.363281 180.097656 147.027344 180.03125 C 146.6875 179.964844 146.363281 179.867188 146.042969 179.734375 C 145.726562 179.605469 145.425781 179.445312 145.140625 179.253906 C 144.851562 179.0625 144.589844 178.847656 144.347656 178.605469 C 144.101562 178.363281 143.886719 178.097656 143.695312 177.8125 C 143.503906 177.527344 143.339844 177.226562 143.210938 176.910156 C 143.078125 176.59375 142.980469 176.265625 142.910156 175.929688 C 142.84375 175.59375 142.808594 175.253906 142.808594 174.910156 C 142.808594 174.566406 142.84375 174.226562 142.910156 173.890625 C 142.976562 173.554688 143.074219 173.226562 143.207031 172.910156 C 143.339844 172.59375 143.5 172.289062 143.691406 172.003906 C 143.878906 171.71875 144.097656 171.457031 144.339844 171.210938 C 144.582031 170.96875 144.847656 170.753906 145.132812 170.5625 C 145.417969 170.371094 145.71875 170.210938 146.035156 170.078125 C 146.355469 169.949219 146.679688 169.847656 147.015625 169.78125 C 147.355469 169.714844 147.695312 169.683594 148.039062 169.683594 C 148.378906 169.683594 148.722656 169.71875 149.058594 169.785156 C 149.394531 169.851562 149.722656 169.949219 150.039062 170.082031 C 150.355469 170.214844 150.65625 170.375 150.941406 170.566406 C 151.226562 170.757812 151.488281 170.976562 151.734375 171.21875 C 151.976562 171.460938 152.191406 171.726562 152.382812 172.011719 C 152.570312 172.296875 152.730469 172.597656 152.863281 172.917969 C 152.992188 173.234375 153.09375 173.5625 153.160156 173.898438 C 153.226562 174.234375 153.257812 174.574219 153.257812 174.917969 C 153.253906 175.261719 153.222656 175.597656 153.15625 175.933594 C 153.085938 176.269531 152.988281 176.59375 152.855469 176.910156 C 152.726562 177.226562 152.566406 177.527344 152.375 177.8125 C 152.183594 178.09375 151.96875 178.359375 151.726562 178.597656 C 151.484375 178.839844 151.222656 179.058594 150.9375 179.246094 C 150.652344 179.4375 150.355469 179.597656 150.039062 179.730469 C 149.722656 179.859375 149.398438 179.960938 149.0625 180.027344 C 148.726562 180.09375 148.386719 180.128906 148.046875 180.128906 Z M 148.046875 180.128906 " fill-opacity="1" fill-rule="nonzero"/></g><path fill="#ffffff" d="M 144.570312 158.949219 C 144.902344 159.828125 145.492188 160.460938 146.347656 160.847656 C 146.792969 161.050781 147.257812 161.15625 147.746094 161.160156 C 148.175781 161.164062 148.589844 161.089844 148.988281 160.9375 L 177.078125 150.414062 C 177.496094 150.253906 177.871094 150.019531 178.199219 149.714844 C 178.523438 149.40625 178.78125 149.046875 178.96875 148.640625 C 179.152344 148.230469 179.253906 147.800781 179.269531 147.351562 C 179.289062 146.902344 179.21875 146.46875 179.0625 146.046875 L 172.785156 129.296875 C 172.625 128.878906 172.390625 128.507812 172.082031 128.179688 C 171.773438 127.855469 171.414062 127.597656 171.007812 127.414062 C 170.597656 127.226562 170.171875 127.125 169.722656 127.109375 C 169.273438 127.09375 168.839844 127.160156 168.417969 127.3125 L 140.292969 137.847656 C 139.878906 138.011719 139.511719 138.25 139.191406 138.558594 C 138.871094 138.867188 138.621094 139.222656 138.441406 139.632812 C 138.261719 140.039062 138.164062 140.464844 138.152344 140.910156 C 138.140625 141.355469 138.210938 141.785156 138.367188 142.203125 Z M 168.640625 132.523438 L 173.816406 146.320312 L 148.679688 155.710938 L 143.515625 141.941406 Z M 168.640625 132.523438 " fill-opacity="1" fill-rule="nonzero"/><path fill="#ffffff" d="M 128.628906 113.53125 C 128.238281 114.378906 128.207031 115.238281 128.542969 116.109375 L 134.820312 132.882812 C 134.941406 133.207031 135.109375 133.503906 135.320312 133.773438 C 135.535156 134.046875 135.78125 134.28125 136.066406 134.476562 C 136.351562 134.671875 136.65625 134.824219 136.984375 134.925781 C 137.3125 135.027344 137.652344 135.078125 137.996094 135.082031 C 138.402344 135.078125 138.796875 135.003906 139.175781 134.855469 L 162.613281 126.085938 C 163.03125 125.925781 163.40625 125.695312 163.734375 125.386719 C 164.0625 125.078125 164.316406 124.71875 164.503906 124.308594 C 164.6875 123.902344 164.789062 123.472656 164.800781 123.023438 C 164.816406 122.574219 164.742188 122.136719 164.585938 121.71875 L 158.320312 104.96875 C 157.984375 104.097656 157.390625 103.464844 156.542969 103.070312 C 155.691406 102.6875 154.828125 102.65625 153.953125 102.984375 L 130.527344 111.769531 C 129.644531 112.085938 129.011719 112.671875 128.628906 113.53125 Z M 154.222656 108.167969 L 159.386719 121.980469 L 138.914062 129.660156 L 133.742188 115.863281 Z M 154.222656 108.167969 " fill-opacity="1" fill-rule="nonzero"/><g clip-path="url(#8396c908ab)"><path fill="#ffffff" d="M 21.429688 42.671875 L 13.617188 42.671875 C 12.78125 42.671875 12.097656 41.992188 12.097656 41.152344 L 12.097656 5.578125 C 12.097656 2.585938 14.53125 0.152344 17.523438 0.152344 C 20.515625 0.152344 22.949219 2.585938 22.949219 5.578125 L 22.949219 41.152344 C 22.949219 41.992188 22.269531 42.671875 21.429688 42.671875 Z M 15.136719 39.632812 L 19.910156 39.632812 L 19.910156 5.578125 C 19.910156 4.261719 18.839844 3.191406 17.523438 3.191406 C 16.207031 3.191406 15.136719 4.261719 15.136719 5.578125 Z M 15.136719 39.632812 " fill-opacity="1" fill-rule="nonzero"/></g><path fill="#ffffff" d="M 24.355469 48.746094 L 10.691406 48.746094 C 9.851562 48.746094 9.171875 48.066406 9.171875 47.226562 L 9.171875 41.152344 C 9.171875 40.3125 9.851562 39.632812 10.691406 39.632812 L 24.355469 39.632812 C 25.195312 39.632812 25.875 40.3125 25.875 41.152344 L 25.875 47.226562 C 25.875 48.066406 25.195312 48.746094 24.355469 48.746094 Z M 12.207031 45.707031 L 22.839844 45.707031 L 22.839844 42.671875 L 12.207031 42.671875 Z M 12.207031 45.707031 " fill-opacity="1" fill-rule="nonzero"/><g clip-path="url(#3caa5a10ed)"><path fill="#ffffff" d="M 33.46875 77.597656 L 1.578125 77.597656 C 0.695312 77.597656 -0.00390625 76.84375 0.0664062 75.960938 L 1.582031 56.222656 C 1.644531 55.429688 2.304688 54.820312 3.097656 54.820312 L 31.949219 54.820312 C 32.742188 54.820312 33.402344 55.429688 33.464844 56.222656 L 34.980469 75.960938 C 35.015625 76.382812 34.867188 76.800781 34.582031 77.109375 C 34.292969 77.417969 33.890625 77.597656 33.46875 77.597656 Z M 3.21875 74.558594 L 31.828125 74.558594 L 30.542969 57.855469 L 4.503906 57.855469 Z M 3.21875 74.558594 " fill-opacity="1" fill-rule="nonzero"/></g><path fill="#ffffff" d="M 31.949219 57.855469 L 3.097656 57.855469 C 2.257812 57.855469 1.578125 57.175781 1.578125 56.335938 L 1.578125 51.78125 C 1.578125 48.433594 4.304688 45.707031 7.652344 45.707031 L 27.394531 45.707031 C 30.742188 45.707031 33.46875 48.433594 33.46875 51.78125 L 33.46875 56.335938 C 33.46875 57.175781 32.789062 57.855469 31.949219 57.855469 Z M 4.617188 54.820312 L 30.429688 54.820312 L 30.429688 51.78125 C 30.429688 50.109375 29.066406 48.746094 27.394531 48.746094 L 7.652344 48.746094 C 5.980469 48.746094 4.617188 50.109375 4.617188 51.78125 Z M 4.617188 54.820312 " fill-opacity="1" fill-rule="nonzero"/><g clip-path="url(#85228b6dee)"><path fill="#ffffff" d="M 8.414062 77.597656 C 7.574219 77.597656 6.894531 76.917969 6.894531 76.078125 L 6.894531 68.484375 C 6.894531 67.648438 7.574219 66.96875 8.414062 66.96875 C 9.25 66.96875 9.929688 67.648438 9.929688 68.484375 L 9.929688 76.078125 C 9.929688 76.917969 9.25 77.597656 8.414062 77.597656 Z M 8.414062 77.597656 " fill-opacity="1" fill-rule="nonzero"/></g><g clip-path="url(#d4c0b43b5a)"><path fill="#ffffff" d="M 14.488281 77.597656 C 13.648438 77.597656 12.96875 76.917969 12.96875 76.078125 L 12.96875 68.484375 C 12.96875 67.648438 13.648438 66.96875 14.488281 66.96875 C 15.324219 66.96875 16.003906 67.648438 16.003906 68.484375 L 16.003906 76.078125 C 16.003906 76.917969 15.324219 77.597656 14.488281 77.597656 Z M 14.488281 77.597656 " fill-opacity="1" fill-rule="nonzero"/></g><g clip-path="url(#e57aa48183)"><path fill="#ffffff" d="M 20.558594 77.597656 C 19.722656 77.597656 19.042969 76.917969 19.042969 76.078125 L 19.042969 68.484375 C 19.042969 67.648438 19.722656 66.96875 20.558594 66.96875 C 21.398438 66.96875 22.078125 67.648438 22.078125 68.484375 L 22.078125 76.078125 C 22.078125 76.917969 21.398438 77.597656 20.558594 77.597656 Z M 20.558594 77.597656 " fill-opacity="1" fill-rule="nonzero"/></g><g clip-path="url(#a547fcdfc9)"><path fill="#ffffff" d="M 26.632812 77.597656 C 25.796875 77.597656 25.117188 76.917969 25.117188 76.078125 L 25.117188 68.484375 C 25.117188 67.648438 25.796875 66.96875 26.632812 66.96875 C 27.472656 66.96875 28.152344 67.648438 28.152344 68.484375 L 28.152344 76.078125 C 28.152344 76.917969 27.472656 77.597656 26.632812 77.597656 Z M 26.632812 77.597656 " fill-opacity="1" fill-rule="nonzero"/></g><g clip-path="url(#d09a323ddd)"><path fill="#ffffff" d="M 72.949219 44.191406 L 38.023438 44.191406 C 35.511719 44.191406 33.46875 42.144531 33.46875 39.632812 C 33.46875 37.121094 35.511719 35.078125 38.023438 35.078125 L 72.949219 35.078125 C 75.460938 35.078125 77.503906 37.121094 77.503906 39.632812 C 77.503906 42.144531 75.460938 44.191406 72.949219 44.191406 Z M 38.023438 38.117188 C 37.1875 38.117188 36.503906 38.796875 36.503906 39.632812 C 36.503906 40.472656 37.1875 41.152344 38.023438 41.152344 L 72.949219 41.152344 C 73.785156 41.152344 74.464844 40.472656 74.464844 39.632812 C 74.464844 38.796875 73.785156 38.117188 72.949219 38.117188 Z M 38.023438 38.117188 " fill-opacity="1" fill-rule="nonzero"/></g><path fill="#ffffff" d="M 55.484375 60.894531 C 45.796875 60.894531 37.6875 53.640625 36.621094 44.023438 C 36.570312 43.574219 36.535156 43.105469 36.523438 42.722656 C 36.492188 41.867188 37.183594 41.152344 38.042969 41.152344 L 72.929688 41.152344 C 73.789062 41.152344 74.476562 41.863281 74.449219 42.722656 C 74.433594 43.105469 74.398438 43.578125 74.347656 44.023438 C 73.285156 53.640625 65.175781 60.894531 55.484375 60.894531 Z M 39.703125 44.191406 C 40.820312 52.015625 47.515625 57.855469 55.484375 57.855469 C 63.457031 57.855469 70.152344 52.015625 71.269531 44.191406 Z M 39.703125 44.191406 " fill-opacity="1" fill-rule="nonzero"/><g clip-path="url(#a21c5811a3)"><path fill="#ffffff" d="M 65.75 77.597656 L 45.21875 77.597656 C 42.058594 77.597656 39.457031 75.222656 39.171875 72.070312 L 36.527344 42.808594 C 36.449219 41.917969 37.148438 41.152344 38.042969 41.152344 L 72.929688 41.152344 C 73.820312 41.152344 74.523438 41.917969 74.441406 42.808594 L 71.800781 72.070312 C 71.515625 75.222656 68.914062 77.597656 65.75 77.597656 Z M 39.703125 44.191406 L 42.195312 71.796875 C 42.339844 73.371094 43.640625 74.558594 45.21875 74.558594 L 65.75 74.558594 C 67.332031 74.558594 68.632812 73.371094 68.777344 71.796875 L 71.269531 44.191406 Z M 39.703125 44.191406 " fill-opacity="1" fill-rule="nonzero"/></g><g clip-path="url(#e1eddeeef0)"><g clip-path="url(#877e3a5648)"><g clip-path="url(#d136859243)"><path fill="#ffffff" d="M 0.613281 178.550781 L 179.003906 0.160156 L 179.820312 0.980469 L 1.429688 179.371094 Z M 0.613281 178.550781 " fill-opacity="1" fill-rule="nonzero"/></g></g></g></svg>