<?xml version="1.0" encoding="UTF-8"?>
<svg id="katman_2" data-name="katman 2" xmlns="http://www.w3.org/2000/svg" viewBox="0 0 154.76 96.24">
  <defs>
    <style>
      .cls-1 {
        fill: #fff;
      }
    </style>
  </defs>
  <g id="Layer_1" data-name="Layer 1">
    <g>
      <g>
        <path class="cls-1" d="m36.56,42.01c9.71-6.52,20.57-10.46,31.68-11.86l9.14-9.41,9.14,9.4c11.11,1.4,21.97,5.34,31.68,11.86,0,0,0,0,0,0h0L77.38,0l-40.83,42.01h0s0,0,0,0Z"/>
        <path class="cls-1" d="m123.01,64.01l6.23-6.45h0c-28.64-29.65-75.07-29.65-103.71,0h0s6.23,6.45,6.23,6.45c26.64-21.98,64.63-21.98,91.26,0Z"/>
      </g>
      <g>
        <g>
          <path class="cls-1" d="m3.64,76.85c-.07,0-.1.03-.12.1l-.73,1.76c-.14.32-.2.63-.2.78,0,.23.12.4.54.4h.2c.16,0,.2.03.2.1,0,.1-.08.13-.23.13-.43,0-1.02-.04-1.44-.04-.15,0-.9.04-1.6.04-.18,0-.26-.03-.26-.13,0-.08.05-.1.16-.1.12,0,.31-.01.42-.03.62-.08.88-.51,1.15-1.16l3.41-7.96c.16-.37.24-.51.38-.51.12,0,.2.12.34.41.33.71,2.5,5.84,3.37,7.79.52,1.16.91,1.33,1.19,1.4.2.04.41.05.57.05.11,0,.18.01.18.1,0,.1-.12.13-.62.13s-1.48,0-2.57-.03c-.24-.01-.41-.01-.41-.1,0-.08.05-.1.19-.12.1-.03.19-.14.12-.3l-1.09-2.64c-.03-.06-.07-.09-.14-.09h-3.03Zm2.77-.64c.07,0,.08-.04.07-.08l-1.22-3.16c-.01-.05-.03-.12-.07-.12s-.07.06-.08.12l-1.25,3.14c-.01.05,0,.09.05.09h2.5Z"/>
          <path class="cls-1" d="m16.62,78.37c.03,1,.2,1.33.48,1.42.23.08.49.09.71.09.15,0,.23.03.23.1,0,.1-.12.13-.31.13-.88,0-1.43-.04-1.68-.04-.12,0-.76.04-1.47.04-.18,0-.3-.01-.3-.13,0-.08.08-.1.22-.1.18,0,.42-.01.61-.06.35-.1.41-.47.42-1.59l.12-7.56c0-.26.04-.44.18-.44.15,0,.27.17.5.4.16.17,2.23,2.22,4.21,4.08.92.87,2.76,2.72,2.99,2.93h.07l-.14-5.76c-.01-.78-.14-1.03-.46-1.16-.2-.08-.53-.08-.72-.08-.16,0-.22-.04-.22-.12,0-.1.15-.12.35-.12.71,0,1.36.04,1.64.04.15,0,.67-.04,1.33-.04.18,0,.31.01.31.12,0,.08-.08.12-.24.12-.14,0-.24,0-.41.04-.38.1-.49.37-.5,1.09l-.15,8.1c0,.28-.05.4-.18.4-.15,0-.31-.14-.46-.28-.86-.77-2.59-2.45-4.01-3.77-1.48-1.39-2.99-2.95-3.23-3.2h-.04l.15,5.35Z"/>
          <path class="cls-1" d="m33.78,71.13l-2.02.05c-.79.03-1.11.09-1.32.37-.14.19-.2.35-.23.45-.03.1-.07.15-.15.15-.1,0-.12-.06-.12-.21,0-.21.26-1.37.29-1.48.04-.17.08-.24.16-.24.11,0,.24.13.58.15.39.04.91.06,1.36.06h5.38c.43,0,.73-.04.94-.06.2-.04.31-.06.37-.06.1,0,.11.08.11.27,0,.27-.04,1.16-.04,1.49-.01.13-.04.21-.12.21-.11,0-.14-.06-.15-.26v-.14c-.04-.33-.41-.69-1.62-.72l-1.71-.04v5.26c0,1.18,0,2.2.07,2.75.04.36.12.64.53.69.19.03.49.05.69.05.15,0,.22.04.22.1,0,.09-.11.13-.26.13-.9,0-1.75-.04-2.13-.04-.31,0-1.17.04-1.71.04-.18,0-.27-.04-.27-.13,0-.06.05-.1.22-.1.2,0,.37-.03.49-.05.27-.05.35-.33.39-.71.07-.54.07-1.55.07-2.73v-5.26Z"/>
          <path class="cls-1" d="m44.6,76.85c-.07,0-.1.03-.12.1l-.73,1.76c-.14.32-.2.63-.2.78,0,.23.12.4.54.4h.2c.16,0,.2.03.2.1,0,.1-.08.13-.23.13-.43,0-1.02-.04-1.44-.04-.15,0-.9.04-1.6.04-.18,0-.26-.03-.26-.13,0-.08.05-.1.16-.1.12,0,.31-.01.42-.03.62-.08.88-.51,1.15-1.16l3.41-7.96c.16-.37.24-.51.38-.51.12,0,.2.12.34.41.33.71,2.5,5.84,3.37,7.79.52,1.16.91,1.33,1.19,1.4.2.04.41.05.57.05.11,0,.18.01.18.1,0,.1-.12.13-.62.13s-1.48,0-2.57-.03c-.24-.01-.41-.01-.41-.1,0-.08.05-.1.19-.12.1-.03.19-.14.12-.3l-1.09-2.64c-.03-.06-.07-.09-.14-.09h-3.03Zm2.77-.64c.07,0,.08-.04.07-.08l-1.22-3.16c-.01-.05-.03-.12-.07-.12s-.07.06-.08.12l-1.25,3.14c-.01.05,0,.09.05.09h2.5Z"/>
          <path class="cls-1" d="m58.51,76.4c0,1.64,0,2.53.29,2.76.23.19.58.28,1.64.28.72,0,1.25-.01,1.59-.36.16-.17.33-.53.35-.77.01-.12.04-.19.15-.19.1,0,.11.06.11.22,0,.14-.1,1.1-.2,1.48-.08.28-.15.35-.86.35-.98,0-1.68-.03-2.29-.04-.61-.03-.79-.04-1.34-.04-.15,0-.45,0-.77.01-.31,0-.67.03-.94.03-.18,0-.27-.04-.27-.13,0-.06.05-.1.22-.1.2,0,.37-.03.49-.05.27-.05.34-.33.39-.71.07-.54.07-1.55.07-2.73v-2.26c0-1.95,0-2.31-.03-2.72-.03-.44-.14-.64-.58-.73-.11-.03-.27-.04-.45-.04-.15,0-.23-.03-.23-.12s.1-.12.3-.12c.64,0,1.49.04,1.86.04.33,0,1-.04,1.53-.04.19,0,.29.03.29.12s-.08.12-.24.12c-.15,0-.37.01-.53.04-.37.06-.48.28-.5.73-.03.41-.03.77-.03,2.72v2.26Z"/>
          <path class="cls-1" d="m69.26,76.8c0-.69-.14-.98-.31-1.35-.1-.21-1.91-3.03-2.39-3.7-.34-.48-.68-.8-.94-.94-.18-.09-.41-.17-.57-.17-.11,0-.2-.03-.2-.12,0-.08.1-.12.26-.12.24,0,1.26.04,1.71.04.29,0,.84-.04,1.45-.04.14,0,.2.04.2.12s-.1.09-.3.14c-.12.03-.19.13-.19.23s.07.26.16.44c.19.39,2.09,3.48,2.31,3.84.14-.31,1.85-3.13,2.04-3.53.14-.28.19-.5.19-.67,0-.13-.05-.27-.29-.32-.12-.03-.24-.05-.24-.13,0-.09.07-.12.23-.12.45,0,.88.04,1.28.04.3,0,1.19-.04,1.45-.04.15,0,.24.03.24.1,0,.09-.11.13-.26.13-.14,0-.39.05-.6.15-.29.13-.43.28-.73.63-.45.51-2.35,3.53-2.59,4.08-.2.46-.2.86-.2,1.28v1.05c0,.21,0,.74.04,1.28.03.37.15.65.56.71.19.03.49.05.68.05.15,0,.22.04.22.1,0,.09-.11.13-.29.13-.86,0-1.71-.04-2.08-.04-.34,0-1.19.04-1.7.04-.19,0-.3-.03-.3-.13,0-.06.07-.1.22-.1.19,0,.35-.03.48-.05.27-.05.39-.33.42-.71.04-.54.04-1.08.04-1.28v-1.05Z"/>
          <path class="cls-1" d="m80.37,76.85c-.07,0-.1.03-.12.1l-.73,1.76c-.14.32-.2.63-.2.78,0,.23.12.4.54.4h.2c.16,0,.2.03.2.1,0,.1-.08.13-.23.13-.43,0-1.02-.04-1.44-.04-.15,0-.9.04-1.6.04-.18,0-.26-.03-.26-.13,0-.08.05-.1.16-.1.12,0,.31-.01.42-.03.62-.08.88-.51,1.15-1.16l3.41-7.96c.16-.37.24-.51.38-.51.12,0,.2.12.34.41.33.71,2.5,5.84,3.37,7.79.52,1.16.91,1.33,1.19,1.4.2.04.41.05.57.05.11,0,.18.01.18.1,0,.1-.12.13-.62.13s-1.48,0-2.57-.03c-.24-.01-.41-.01-.41-.1,0-.08.05-.1.19-.12.1-.03.19-.14.12-.3l-1.09-2.64c-.03-.06-.07-.09-.14-.09h-3.03Zm2.77-.64c.07,0,.08-.04.07-.08l-1.22-3.16c-.01-.05-.03-.12-.07-.12s-.07.06-.08.12l-1.25,3.14c-.01.05,0,.09.05.09h2.5Z"/>
          <path class="cls-1" d="m99.92,74.14c0-1.95,0-2.31-.03-2.72-.03-.44-.14-.64-.58-.73-.11-.03-.34-.04-.53-.04-.15,0-.23-.03-.23-.12s.1-.12.3-.12c.72,0,1.58.04,1.85.04.67,0,1.19-.04,1.66-.04,2.46,0,2.89,1.25,2.89,1.93,0,1.05-.64,1.68-1.39,2.25,1.11.36,2.47,1.27,2.47,2.77,0,1.37-1.13,2.8-3.63,2.8-.16,0-.56-.03-.95-.04-.41-.03-.81-.04-1.02-.04-.15,0-.45,0-.77.01-.31,0-.67.03-.94.03-.18,0-.27-.04-.27-.13,0-.06.05-.1.22-.1.2,0,.37-.03.49-.05.27-.05.34-.33.39-.71.07-.54.07-1.55.07-2.73v-2.26Zm1.63.22c0,.1.04.13.1.14.12.03.33.04.64.04.45,0,.75-.05.98-.24.35-.27.56-.73.56-1.36,0-.86-.53-1.99-1.7-1.99-.19,0-.31,0-.45.03-.1.03-.12.08-.12.22v3.17Zm1.79,1.03c-.29-.19-.6-.28-1.13-.31-.24-.01-.38-.01-.58-.01-.05,0-.08.03-.08.09v3.04c0,.85.04,1.07.48,1.23.37.14.68.15.99.15.61,0,1.64-.31,1.64-1.64,0-.8-.29-1.87-1.32-2.55Z"/>
          <path class="cls-1" d="m112.5,74.14c0-1.95,0-2.31-.03-2.72-.03-.44-.16-.65-.46-.72-.15-.04-.33-.05-.49-.05-.14,0-.22-.03-.22-.13,0-.08.11-.1.33-.1.52,0,1.37.04,1.77.04.34,0,1.14-.04,1.66-.04.18,0,.29.03.29.1,0,.1-.08.13-.22.13s-.24.01-.41.04c-.37.06-.48.28-.5.73-.03.41-.03.77-.03,2.72v2.26c0,1.25,0,2.26.05,2.81.04.35.14.58.54.63.19.03.49.05.69.05.15,0,.22.04.22.1,0,.09-.11.13-.26.13-.9,0-1.75-.04-2.12-.04-.31,0-1.17.04-1.71.04-.18,0-.27-.04-.27-.13,0-.06.05-.1.22-.1.2,0,.37-.03.49-.05.27-.05.35-.27.39-.64.07-.54.07-1.55.07-2.8v-2.26Zm.08-5.43c0-.32.22-.74.76-.74.43,0,.77.27.77.69s-.31.77-.77.77c-.54,0-.76-.4-.76-.72Z"/>
          <path class="cls-1" d="m123.59,76.4c0,1.64,0,2.53.29,2.76.23.19.58.28,1.64.28.72,0,1.25-.01,1.59-.36.16-.17.33-.53.35-.77.01-.12.04-.19.15-.19.1,0,.11.06.11.22,0,.14-.1,1.1-.2,1.48-.08.28-.15.35-.86.35-.98,0-1.68-.03-2.29-.04-.61-.03-1.1-.04-1.66-.04-.15,0-.45,0-.77.01-.31,0-.67.03-.94.03-.18,0-.27-.04-.27-.13,0-.06.05-.1.22-.1.2,0,.37-.03.49-.05.27-.05.34-.33.39-.71.07-.54.07-1.55.07-2.73v-2.26c0-1.95,0-2.31-.03-2.72-.03-.44-.14-.64-.58-.73-.11-.03-.27-.04-.45-.04-.15,0-.23-.03-.23-.12s.1-.12.3-.12c.64,0,1.49.04,1.86.04.33,0,1.32-.04,1.85-.04.19,0,.29.03.29.12s-.08.12-.24.12c-.15,0-.37.01-.53.04-.37.06-.48.28-.5.73-.03.41-.03.77-.03,2.72v2.26Z"/>
          <path class="cls-1" d="m133.36,74.14c0-1.95,0-2.31-.03-2.72-.03-.44-.16-.65-.46-.72-.15-.04-.33-.05-.49-.05-.14,0-.22-.03-.22-.13,0-.08.11-.1.33-.1.52,0,1.37.04,1.77.04.34,0,1.14-.04,1.66-.04.18,0,.29.03.29.1,0,.1-.08.13-.22.13s-.24.01-.41.04c-.37.06-.48.28-.5.73-.03.41-.03.77-.03,2.72v2.26c0,1.25,0,2.26.05,2.81.04.35.14.58.54.63.19.03.49.05.69.05.15,0,.22.04.22.1,0,.09-.11.13-.26.13-.9,0-1.75-.04-2.12-.04-.31,0-1.17.04-1.71.04-.18,0-.27-.04-.27-.13,0-.06.05-.1.22-.1.2,0,.37-.03.49-.05.27-.05.35-.27.39-.64.07-.54.07-1.55.07-2.8v-2.26Zm.08-5.43c0-.32.22-.74.76-.74.43,0,.77.27.77.69s-.31.77-.77.77c-.54,0-.76-.4-.76-.72Z"/>
          <path class="cls-1" d="m143.26,70.57c.04-.22.12-.33.23-.33s.19.06.37.4l3.71,7.14,3.69-7.23c.11-.21.18-.31.3-.31s.2.13.24.4l1.24,7.86c.12.81.26,1.18.67,1.3.39.12.67.13.84.13.12,0,.22.01.22.09,0,.1-.16.14-.35.14-.34,0-2.21-.03-2.76-.06-.31-.03-.39-.06-.39-.14,0-.06.05-.1.15-.14.08-.03.12-.19.07-.55l-.81-5.58h-.05l-2.96,5.73c-.31.6-.38.72-.5.72s-.26-.26-.48-.64c-.33-.59-1.4-2.55-1.56-2.91-.12-.27-.94-1.78-1.41-2.75h-.05l-.71,5.01c-.03.23-.04.4-.04.6,0,.24.18.36.41.41.24.05.43.06.57.06.11,0,.2.03.2.09,0,.12-.12.14-.33.14-.57,0-1.18-.04-1.43-.04-.26,0-.91.04-1.34.04-.14,0-.24-.03-.24-.14,0-.06.08-.09.22-.09.11,0,.2,0,.41-.04.38-.08.49-.58.56-1.01l1.34-8.27Z"/>
        </g>
        <g>
          <path class="cls-1" d="m9.41,90.27c0-1.94,0-2.29-.03-2.69-.03-.42-.14-.62-.59-.71-.11-.02-.34-.04-.46-.04-.05,0-.11-.02-.11-.07,0-.07.07-.1.22-.1.61,0,1.44.04,1.57.04s.94-.04,1.35-.04c.15,0,.22.02.22.1,0,.05-.05.07-.11.07-.1,0-.18.01-.34.04-.37.05-.48.27-.5.71-.03.4-.03.75-.03,2.69v1.74c0,1.79.44,2.56,1.02,3.07.67.57,1.28.68,2.06.68.83,0,1.65-.36,2.14-.9.63-.71.79-1.77.79-3.05v-1.55c0-1.94,0-2.29-.03-2.69-.03-.42-.14-.62-.59-.71-.11-.02-.34-.04-.46-.04-.05,0-.11-.02-.11-.07,0-.07.07-.1.22-.1.61,0,1.36.04,1.44.04.1,0,.74-.04,1.14-.04.15,0,.22.02.22.1,0,.05-.05.07-.11.07-.1,0-.18.01-.34.04-.37.07-.48.27-.5.71-.03.4-.03.75-.03,2.69v1.33c0,1.34-.16,2.84-1.25,3.72-.98.8-2,.92-2.8.92-.46,0-1.84-.05-2.81-.88-.67-.58-1.18-1.46-1.18-3.27v-1.82Zm2.33-5.1c0-.22.16-.53.59-.53.33,0,.59.19.59.5s-.23.57-.6.57c-.41,0-.57-.3-.57-.53Zm2.74,0c0-.22.16-.53.59-.53.33,0,.59.19.59.5s-.23.57-.6.57c-.41,0-.57-.3-.57-.53Z"/>
          <path class="cls-1" d="m25.13,94.37c.03,1.02.16,1.34.53,1.44.26.06.56.07.68.07.07,0,.11.02.11.07,0,.07-.08.1-.25.1-.78,0-1.32-.04-1.44-.04s-.69.04-1.31.04c-.14,0-.22-.01-.22-.1,0-.05.04-.07.11-.07.11,0,.35-.01.56-.07.34-.09.41-.45.41-1.58v-7.13c.01-.48.05-.62.16-.62s.34.27.48.4c.2.21,2.23,2.21,4.33,4.27,1.35,1.32,2.83,2.84,3.27,3.25l-.15-6.32c-.01-.81-.11-1.08-.53-1.18-.24-.05-.56-.06-.67-.06-.1,0-.11-.04-.11-.09,0-.07.11-.09.27-.09.61,0,1.27.04,1.42.04s.6-.04,1.16-.04c.15,0,.25.01.25.09,0,.05-.05.09-.15.09-.07,0-.16,0-.33.04-.45.09-.5.36-.5,1.11l-.03,7.29c0,.82-.03.88-.12.88-.11,0-.27-.14-.99-.8-.15-.12-2.11-1.95-3.55-3.37-1.58-1.55-3.12-3.12-3.55-3.57l.18,5.96Z"/>
          <path class="cls-1" d="m42.07,92.46c0,1.19,0,2.18.07,2.7.04.36.12.63.53.68.19.02.49.05.61.05.08,0,.11.04.11.07,0,.06-.07.1-.22.1-.75,0-1.61-.04-1.68-.04s-.93.04-1.33.04c-.15,0-.22-.02-.22-.1,0-.04.03-.07.11-.07.12,0,.29-.03.41-.05.27-.05.34-.32.39-.68.07-.52.07-1.5.07-2.7v-2.19c0-1.94,0-2.29-.03-2.69-.03-.42-.16-.63-.46-.7-.15-.04-.33-.05-.42-.05-.05,0-.11-.02-.11-.07,0-.07.07-.1.22-.1.45,0,1.31.04,1.38.04s.93-.04,1.33-.04c.15,0,.22.02.22.1,0,.05-.05.07-.11.07-.1,0-.18.01-.34.04-.37.06-.48.27-.5.71-.03.4-.03.75-.03,2.69v2.19Zm-1.27-7.39c0-.27.2-.65.69-.65.39,0,.71.24.71.61s-.29.67-.71.67c-.49,0-.69-.35-.69-.63Z"/>
          <path class="cls-1" d="m53.14,94.55c.79-1.67,2.61-6.01,2.91-6.9.07-.19.12-.36.12-.47,0-.1-.04-.22-.18-.29-.16-.05-.37-.05-.52-.05-.08,0-.15-.01-.15-.07,0-.07.08-.1.3-.1.54,0,1.17.04,1.33.04.08,0,.67-.04,1.06-.04.15,0,.23.02.23.09s-.05.09-.16.09c-.1,0-.39,0-.65.15-.18.11-.38.32-.75,1.17-.15.35-.83,1.84-1.52,3.37-.83,1.82-1.44,3.16-1.76,3.77-.38.75-.44.95-.57.95-.16,0-.23-.17-.49-.77l-3.34-7.62c-.3-.7-.5-.83-.98-.96-.2-.05-.44-.05-.52-.05s-.11-.04-.11-.09c0-.07.14-.09.35-.09.65,0,1.43.04,1.59.04.14,0,.75-.04,1.27-.04.25,0,.37.02.37.09s-.04.09-.14.09c-.15,0-.39.01-.52.06-.15.06-.18.16-.18.25,0,.16.16.55.37,1.03l2.61,6.37Z"/>
          <path class="cls-1" d="m63.55,90.27c0-1.94,0-2.29-.03-2.69-.03-.42-.14-.62-.59-.71-.11-.02-.34-.04-.46-.04-.05,0-.11-.02-.11-.07,0-.07.07-.1.22-.1.31,0,.68,0,.98.01l.56.02c.1,0,2.81,0,3.12-.01.26-.01.48-.04.59-.06.07-.01.12-.06.19-.06.04,0,.05.05.05.11,0,.09-.07.24-.11.58-.01.12-.04.67-.07.82-.01.06-.04.14-.1.14-.08,0-.11-.06-.11-.16,0-.09-.01-.3-.08-.45-.1-.2-.23-.35-.97-.42-.23-.02-1.72-.04-1.87-.04-.05,0-.08.04-.08.12v3.43c0,.09.01.12.08.12.18,0,1.85,0,2.17-.02.33-.02.52-.05.64-.17.1-.1.15-.16.2-.16.04,0,.07.02.07.1s-.07.29-.11.7c-.03.25-.05.71-.05.8,0,.1,0,.24-.1.24-.07,0-.1-.05-.1-.11,0-.12,0-.25-.05-.41-.05-.17-.18-.39-.71-.44-.37-.04-1.72-.06-1.95-.06-.07,0-.1.04-.1.09v1.09c0,.42-.01,1.87,0,2.13.04.86.25,1.02,1.58,1.02.35,0,.95,0,1.31-.14s.52-.39.61-.9c.03-.14.05-.19.12-.19.08,0,.08.1.08.19,0,.1-.11.95-.18,1.21-.1.32-.2.32-.74.32-1.02,0-1.77-.02-2.3-.04-.53-.02-.86-.04-1.06-.04-.03,0-.26,0-.54.01-.27,0-.59.02-.79.02-.15,0-.22-.02-.22-.1,0-.04.03-.07.11-.07.12,0,.29-.03.41-.05.27-.05.34-.32.39-.68.07-.52.07-1.5.07-2.7v-2.19Z"/>
          <path class="cls-1" d="m75.12,90.27c0-1.94,0-2.29-.03-2.69-.03-.42-.14-.62-.59-.71-.11-.02-.34-.04-.46-.04-.05,0-.11-.02-.11-.07,0-.07.07-.1.22-.1.61,0,1.47.04,1.54.04.15,0,1.18-.04,1.61-.04.86,0,1.77.07,2.49.55.34.22.94.83.94,1.69,0,.92-.42,1.84-1.65,2.87,1.12,1.31,2.04,2.41,2.83,3.18.74.71,1.32.85,1.66.9.26.04.45.04.53.04.07,0,.12.04.12.07,0,.07-.08.1-.33.1h-.97c-.76,0-1.1-.06-1.46-.24-.59-.29-1.06-.9-1.84-1.83-.57-.68-1.21-1.52-1.48-1.84-.05-.05-.1-.07-.18-.07l-1.68-.02c-.07,0-.1.04-.1.1v.3c0,1.19,0,2.18.07,2.7.04.36.12.63.53.68.19.02.49.05.61.05.08,0,.11.04.11.07,0,.06-.07.1-.22.1-.75,0-1.61-.04-1.67-.04-.01,0-.87.04-1.28.04-.15,0-.22-.02-.22-.1,0-.04.03-.07.11-.07.12,0,.29-.03.41-.05.27-.05.34-.32.39-.68.07-.52.07-1.5.07-2.7v-2.19Zm1.09,1.08c0,.06.03.11.1.15.2.11.83.2,1.43.2.33,0,.71-.04,1.02-.24.48-.3.83-.97.83-1.92,0-1.55-.9-2.49-2.36-2.49-.41,0-.78.04-.91.07-.07.02-.11.07-.11.15v4.07Z"/>
          <path class="cls-1" d="m87.65,95.9c-.19-.09-.2-.14-.2-.47,0-.62.05-1.12.07-1.32.01-.14.04-.2.11-.2.08,0,.1.04.1.14,0,.11,0,.29.04.46.2.92,1.1,1.27,2.02,1.27,1.31,0,1.95-.86,1.95-1.65,0-.86-.39-1.36-1.57-2.24l-.61-.46c-1.44-1.08-1.77-1.85-1.77-2.7,0-1.33,1.09-2.24,2.82-2.24.53,0,.93.05,1.27.12.26.05.37.06.48.06s.14.02.14.09-.05.47-.05,1.32c0,.2-.03.29-.1.29-.08,0-.1-.06-.11-.16-.01-.15-.1-.48-.18-.62-.08-.14-.45-.66-1.7-.66-.94,0-1.68.53-1.68,1.44,0,.71.35,1.16,1.66,2.09l.38.27c1.61,1.16,1.99,1.93,1.99,2.92,0,.51-.22,1.45-1.16,2.06-.59.37-1.32.52-2.06.52-.64,0-1.27-.09-1.82-.34Z"/>
          <path class="cls-1" d="m100.69,92.46c0,1.19,0,2.18.07,2.7.04.36.12.63.53.68.19.02.49.05.61.05.08,0,.11.04.11.07,0,.06-.07.1-.22.1-.75,0-1.61-.04-1.68-.04s-.93.04-1.33.04c-.15,0-.22-.02-.22-.1,0-.04.03-.07.11-.07.12,0,.29-.03.41-.05.27-.05.34-.32.39-.68.07-.52.07-1.5.07-2.7v-2.19c0-1.94,0-2.29-.03-2.69-.03-.42-.16-.63-.46-.7-.15-.04-.33-.05-.42-.05-.05,0-.11-.02-.11-.07,0-.07.07-.1.22-.1.45,0,1.31.04,1.38.04s.93-.04,1.33-.04c.15,0,.22.02.22.1,0,.05-.05.07-.11.07-.1,0-.18.01-.34.04-.37.06-.48.27-.5.71-.03.4-.03.75-.03,2.69v2.19Zm-1.27-7.39c0-.27.2-.65.69-.65.39,0,.71.24.71.61s-.29.67-.71.67c-.49,0-.69-.35-.69-.63Z"/>
          <path class="cls-1" d="m111.7,92.46c0,1.19,0,2.18.07,2.7.04.36.12.63.53.68.19.02.49.05.61.05.08,0,.11.04.11.07,0,.06-.07.1-.22.1-.75,0-1.61-.04-1.67-.04s-.93.04-1.33.04c-.15,0-.22-.02-.22-.1,0-.04.03-.07.11-.07.12,0,.29-.03.41-.05.27-.05.34-.32.39-.68.07-.52.07-1.5.07-2.7v-5.26l-2.02.02c-.84.01-1.17.1-1.39.4-.15.21-.19.3-.23.39-.04.1-.08.12-.14.12-.04,0-.07-.04-.07-.11,0-.12.27-1.19.3-1.29.03-.07.08-.24.14-.24.1,0,.23.12.6.15.39.04.91.06,1.08.06h5.11c.44,0,.75-.02.97-.06.2-.03.33-.06.38-.06.07,0,.07.07.07.15,0,.37-.04,1.23-.04,1.37,0,.11-.04.16-.1.16-.07,0-.1-.04-.11-.21v-.14c-.05-.37-.38-.66-1.69-.68l-1.72-.02v5.26Z"/>
          <path class="cls-1" d="m121.47,90.27c0-1.94,0-2.29-.03-2.69-.03-.42-.14-.62-.59-.71-.11-.02-.34-.04-.46-.04-.05,0-.11-.02-.11-.07,0-.07.07-.1.22-.1.31,0,.68,0,.98.01l.56.02c.1,0,2.81,0,3.12-.01.26-.01.48-.04.59-.06.07-.01.12-.06.19-.06.04,0,.05.05.05.11,0,.09-.07.24-.11.58-.01.12-.04.67-.07.82-.01.06-.04.14-.1.14-.08,0-.11-.06-.11-.16,0-.09-.01-.3-.08-.45-.1-.2-.23-.35-.97-.42-.23-.02-1.72-.04-1.87-.04-.05,0-.08.04-.08.12v3.43c0,.09.01.12.08.12.18,0,1.85,0,2.17-.02.33-.02.52-.05.64-.17.1-.1.15-.16.2-.16.04,0,.07.02.07.1s-.07.29-.11.7c-.03.25-.05.71-.05.8,0,.1,0,.24-.1.24-.07,0-.1-.05-.1-.11,0-.12,0-.25-.05-.41-.05-.17-.18-.39-.71-.44-.37-.04-1.72-.06-1.95-.06-.07,0-.1.04-.1.09v1.09c0,.42-.01,1.87,0,2.13.04.86.25,1.02,1.58,1.02.35,0,.95,0,1.31-.14s.52-.39.61-.9c.03-.14.05-.19.12-.19.08,0,.08.1.08.19,0,.1-.11.95-.18,1.21-.1.32-.2.32-.74.32-1.02,0-1.77-.02-2.3-.04-.53-.02-.86-.04-1.06-.04-.03,0-.26,0-.54.01-.27,0-.59.02-.79.02-.15,0-.22-.02-.22-.1,0-.04.03-.07.11-.07.12,0,.29-.03.41-.05.27-.05.34-.32.39-.68.07-.52.07-1.5.07-2.7v-2.19Z"/>
          <path class="cls-1" d="m132.17,95.9c-.19-.09-.2-.14-.2-.47,0-.62.05-1.12.07-1.32.01-.14.04-.2.11-.2.08,0,.1.04.1.14,0,.11,0,.29.04.46.2.92,1.1,1.27,2.02,1.27,1.31,0,1.95-.86,1.95-1.65,0-.86-.39-1.36-1.57-2.24l-.61-.46c-1.44-1.08-1.77-1.85-1.77-2.7,0-1.33,1.09-2.24,2.82-2.24.53,0,.93.05,1.27.12.26.05.37.06.48.06s.14.02.14.09-.05.47-.05,1.32c0,.2-.03.29-.1.29-.08,0-.1-.06-.11-.16-.01-.15-.1-.48-.18-.62-.08-.14-.45-.66-1.7-.66-.94,0-1.68.53-1.68,1.44,0,.71.35,1.16,1.66,2.09l.38.27c1.61,1.16,1.99,1.93,1.99,2.92,0,.51-.22,1.45-1.16,2.06-.59.37-1.32.52-2.06.52-.64,0-1.27-.09-1.82-.34Z"/>
          <path class="cls-1" d="m145.22,92.46c0,1.19,0,2.18.07,2.7.04.36.12.63.53.68.19.02.49.05.61.05.08,0,.11.04.11.07,0,.06-.07.1-.22.1-.75,0-1.61-.04-1.68-.04s-.93.04-1.33.04c-.15,0-.22-.02-.22-.1,0-.04.03-.07.11-.07.12,0,.29-.03.41-.05.27-.05.34-.32.39-.68.07-.52.07-1.5.07-2.7v-2.19c0-1.94,0-2.29-.03-2.69-.03-.42-.16-.63-.46-.7-.15-.04-.33-.05-.42-.05-.05,0-.11-.02-.11-.07,0-.07.07-.1.22-.1.45,0,1.31.04,1.38.04s.93-.04,1.33-.04c.15,0,.22.02.22.1,0,.05-.05.07-.11.07-.1,0-.18.01-.34.04-.37.06-.48.27-.5.71-.03.4-.03.75-.03,2.69v2.19Zm-1.27-7.39c0-.27.2-.65.69-.65.39,0,.71.24.71.61s-.29.67-.71.67c-.49,0-.69-.35-.69-.63Z"/>
        </g>
      </g>
    </g>
  </g>
</svg>