<?xml version="1.0" encoding="UTF-8"?>
<svg id="katman_2" data-name="katman 2" xmlns="http://www.w3.org/2000/svg" viewBox="0 0 576.08 114.03">
  <defs>
    <style>
      .cls-1 {
        fill: #00abc8;
      }

      .cls-2 {
        fill: #002554;
      }
    </style>
  </defs>
  <g id="Layer_1" data-name="Layer 1">
    <g>
      <g>
        <path class="cls-1" d="m19.65,74.84c17.3-11.61,36.65-18.64,56.44-21.13l16.28-16.75,16.28,16.75c19.79,2.49,39.13,9.52,56.44,21.13,0,0,0,0,0,0h0L92.37,0,19.65,74.83h0s0,0,0,0Z"/>
        <path class="cls-2" d="m173.66,114.03l11.09-11.48h0C133.73,49.73,51.02,49.73,0,102.55h0s11.09,11.48,11.09,11.48c47.45-39.14,115.12-39.14,162.57,0Z"/>
      </g>
      <g>
        <g>
          <path class="cls-2" d="m194.05,40.56c-.17,0-.24.06-.31.26l-1.85,4.45c-.34.81-.51,1.59-.51,1.98,0,.58.31,1.01,1.37,1.01h.51c.41,0,.52.06.52.26,0,.26-.21.32-.58.32-1.1,0-2.57-.1-3.64-.1-.38,0-2.27.1-4.05.1-.45,0-.65-.06-.65-.32,0-.2.14-.26.41-.26.31,0,.79-.03,1.06-.06,1.58-.19,2.23-1.3,2.92-2.92l8.62-20.12c.41-.94.62-1.3.96-1.3.31,0,.51.29.86,1.04.82,1.78,6.32,14.76,8.51,19.7,1.3,2.92,2.3,3.37,3.02,3.54.51.1,1.03.13,1.44.13.27,0,.45.03.45.26,0,.26-.31.32-1.58.32s-3.74,0-6.49-.06c-.62-.03-1.03-.03-1.03-.26,0-.2.14-.26.48-.29.24-.06.48-.36.31-.75l-2.75-6.68c-.07-.16-.17-.23-.34-.23h-7.65Zm7-1.62c.17,0,.21-.1.17-.19l-3.09-7.98c-.03-.13-.07-.29-.17-.29s-.17.16-.21.29l-3.16,7.95c-.03.13,0,.23.14.23h6.32Z"/>
          <path class="cls-2" d="m226.86,44.42c.07,2.53.52,3.37,1.2,3.6.58.2,1.24.23,1.78.23.38,0,.58.06.58.26,0,.26-.31.32-.79.32-2.23,0-3.6-.1-4.26-.1-.31,0-1.92.1-3.71.1-.45,0-.76-.03-.76-.32,0-.2.21-.26.55-.26.45,0,1.06-.03,1.54-.16.89-.26,1.03-1.2,1.06-4.02l.31-19.11c0-.65.1-1.1.45-1.1.38,0,.69.42,1.27,1,.41.42,5.63,5.61,10.64,10.32,2.33,2.21,6.97,6.88,7.55,7.4h.17l-.34-14.57c-.03-1.98-.34-2.6-1.17-2.92-.52-.2-1.34-.2-1.82-.2-.41,0-.55-.1-.55-.29,0-.26.38-.29.89-.29,1.78,0,3.43.1,4.15.1.38,0,1.68-.1,3.36-.1.45,0,.79.03.79.29,0,.19-.21.29-.62.29-.34,0-.62,0-1.03.1-.96.26-1.24.94-1.27,2.76l-.38,20.48c0,.71-.14,1.01-.45,1.01-.38,0-.79-.36-1.17-.71-2.16-1.95-6.56-6.2-10.13-9.54-3.74-3.5-7.55-7.46-8.17-8.08h-.1l.38,13.53Z"/>
          <path class="cls-2" d="m270.24,26.12l-5.11.13c-1.99.07-2.81.23-3.33.94-.34.49-.51.88-.58,1.14-.07.26-.17.39-.38.39-.24,0-.31-.16-.31-.52,0-.52.65-3.47.72-3.73.1-.42.21-.62.41-.62.28,0,.62.32,1.48.39,1,.1,2.3.16,3.43.16h13.59c1.1,0,1.85-.1,2.37-.16.52-.1.79-.16.93-.16.24,0,.27.19.27.68,0,.68-.1,2.92-.1,3.76-.03.32-.1.52-.31.52-.27,0-.34-.16-.38-.65l-.03-.36c-.07-.84-1-1.75-4.05-1.82l-4.33-.1v13.3c0,2.99,0,5.55.17,6.94.1.91.31,1.62,1.34,1.75.48.06,1.24.13,1.75.13.38,0,.55.1.55.26,0,.23-.27.32-.65.32-2.27,0-4.43-.1-5.39-.1-.79,0-2.95.1-4.33.1-.45,0-.69-.1-.69-.32,0-.16.14-.26.55-.26.52,0,.93-.06,1.24-.13.69-.13.89-.84,1-1.78.17-1.36.17-3.93.17-6.91v-13.3Z"/>
          <path class="cls-2" d="m297.59,40.56c-.17,0-.24.06-.31.26l-1.85,4.45c-.34.81-.51,1.59-.51,1.98,0,.58.31,1.01,1.37,1.01h.51c.41,0,.52.06.52.26,0,.26-.21.32-.58.32-1.1,0-2.57-.1-3.64-.1-.38,0-2.27.1-4.05.1-.45,0-.65-.06-.65-.32,0-.2.14-.26.41-.26.31,0,.79-.03,1.06-.06,1.58-.19,2.23-1.3,2.92-2.92l8.62-20.12c.41-.94.62-1.3.96-1.3.31,0,.51.29.86,1.04.82,1.78,6.32,14.76,8.51,19.7,1.3,2.92,2.3,3.37,3.02,3.54.51.1,1.03.13,1.44.13.27,0,.45.03.45.26,0,.26-.31.32-1.58.32s-3.74,0-6.49-.06c-.62-.03-1.03-.03-1.03-.26,0-.2.14-.26.48-.29.24-.06.48-.36.31-.75l-2.75-6.68c-.07-.16-.17-.23-.34-.23h-7.65Zm7-1.62c.17,0,.21-.1.17-.19l-3.09-7.98c-.03-.13-.07-.29-.17-.29s-.17.16-.21.29l-3.16,7.95c-.03.13,0,.23.14.23h6.32Z"/>
          <path class="cls-2" d="m332.76,39.42c0,4.15,0,6.39.72,6.98.58.49,1.48.71,4.15.71,1.82,0,3.16-.03,4.02-.91.41-.42.82-1.33.89-1.95.03-.29.1-.49.38-.49.24,0,.28.16.28.55,0,.36-.24,2.79-.52,3.73-.21.71-.38.88-2.16.88-2.47,0-4.26-.06-5.8-.1-1.54-.06-1.99-.1-3.4-.1-.38,0-1.13,0-1.96.03-.79,0-1.68.06-2.37.06-.45,0-.69-.1-.69-.32,0-.16.14-.26.55-.26.51,0,.93-.06,1.24-.13.69-.13.86-.84,1-1.78.17-1.36.17-3.93.17-6.91v-5.71c0-4.93,0-5.84-.07-6.88-.07-1.1-.34-1.62-1.48-1.85-.28-.06-.69-.1-1.13-.1-.38,0-.58-.06-.58-.29s.24-.29.75-.29c1.61,0,3.78.1,4.7.1.82,0,2.54-.1,3.88-.1.48,0,.72.06.72.29s-.21.29-.62.29c-.38,0-.93.03-1.34.1-.93.16-1.2.71-1.27,1.85-.07,1.04-.07,1.95-.07,6.88v5.71Z"/>
          <path class="cls-2" d="m359.94,40.43c0-1.75-.34-2.47-.79-3.41-.24-.52-4.84-7.66-6.04-9.34-.86-1.2-1.72-2.01-2.37-2.37-.45-.23-1.03-.42-1.44-.42-.28,0-.52-.06-.52-.29,0-.2.24-.29.65-.29.62,0,3.19.1,4.33.1.72,0,2.13-.1,3.67-.1.34,0,.51.1.51.29s-.24.23-.75.36c-.31.06-.48.32-.48.58s.17.65.41,1.1c.48.97,5.29,8.79,5.84,9.7.34-.78,4.67-7.92,5.15-8.92.34-.71.48-1.26.48-1.69,0-.32-.14-.68-.72-.81-.31-.07-.62-.13-.62-.32,0-.23.17-.29.58-.29,1.13,0,2.23.1,3.23.1.75,0,3.02-.1,3.67-.1.38,0,.62.06.62.26,0,.23-.27.32-.65.32-.34,0-1,.13-1.51.39-.72.32-1.1.71-1.85,1.59-1.13,1.3-5.94,8.92-6.56,10.32-.51,1.17-.51,2.17-.51,3.25v2.66c0,.52,0,1.88.1,3.25.07.94.38,1.66,1.41,1.78.48.06,1.24.13,1.72.13.38,0,.55.1.55.26,0,.23-.27.32-.72.32-2.16,0-4.33-.1-5.25-.1-.86,0-3.02.1-4.29.1-.48,0-.75-.06-.75-.32,0-.16.17-.26.55-.26.48,0,.89-.06,1.2-.13.69-.13,1-.84,1.06-1.78.1-1.36.1-2.73.1-3.25v-2.66Z"/>
          <path class="cls-2" d="m388.01,40.56c-.17,0-.24.06-.31.26l-1.85,4.45c-.34.81-.51,1.59-.51,1.98,0,.58.31,1.01,1.37,1.01h.51c.41,0,.52.06.52.26,0,.26-.21.32-.58.32-1.1,0-2.57-.1-3.64-.1-.38,0-2.27.1-4.05.1-.45,0-.65-.06-.65-.32,0-.2.14-.26.41-.26.31,0,.79-.03,1.06-.06,1.58-.19,2.23-1.3,2.92-2.92l8.62-20.12c.41-.94.62-1.3.96-1.3.31,0,.51.29.86,1.04.82,1.78,6.32,14.76,8.51,19.7,1.3,2.92,2.3,3.37,3.02,3.54.51.1,1.03.13,1.44.13.27,0,.45.03.45.26,0,.26-.31.32-1.58.32s-3.74,0-6.49-.06c-.62-.03-1.03-.03-1.03-.26,0-.2.14-.26.48-.29.24-.06.48-.36.31-.75l-2.75-6.68c-.07-.16-.17-.23-.34-.23h-7.65Zm7-1.62c.17,0,.21-.1.17-.19l-3.09-7.98c-.03-.13-.07-.29-.17-.29s-.17.16-.21.29l-3.16,7.95c-.03.13,0,.23.14.23h6.32Z"/>
          <path class="cls-2" d="m437.43,33.71c0-4.93,0-5.84-.07-6.88-.07-1.1-.34-1.62-1.48-1.85-.28-.06-.86-.1-1.34-.1-.38,0-.58-.06-.58-.29s.24-.29.75-.29c1.82,0,3.98.1,4.67.1,1.68,0,3.02-.1,4.19-.1,6.21,0,7.31,3.15,7.31,4.87,0,2.66-1.61,4.25-3.5,5.68,2.81.91,6.25,3.21,6.25,7.01,0,3.47-2.85,7.07-9.16,7.07-.41,0-1.41-.06-2.4-.1-1.03-.06-2.06-.1-2.57-.1-.38,0-1.13,0-1.96.03-.79,0-1.68.06-2.37.06-.45,0-.69-.1-.69-.32,0-.16.14-.26.55-.26.51,0,.93-.06,1.24-.13.69-.13.86-.84,1-1.78.17-1.36.17-3.93.17-6.91v-5.71Zm4.12.55c0,.26.1.32.24.36.31.06.82.1,1.61.1,1.13,0,1.89-.13,2.47-.62.89-.68,1.41-1.85,1.41-3.44,0-2.17-1.34-5.03-4.29-5.03-.48,0-.79,0-1.13.07-.24.06-.31.19-.31.55v8.02Zm4.53,2.6c-.72-.49-1.51-.71-2.85-.78-.62-.03-.96-.03-1.48-.03-.14,0-.21.06-.21.23v7.69c0,2.14.1,2.69,1.2,3.12.93.36,1.72.39,2.51.39,1.54,0,4.15-.78,4.15-4.15,0-2.01-.72-4.74-3.33-6.46Z"/>
          <path class="cls-2" d="m469.24,33.71c0-4.93,0-5.84-.07-6.88-.07-1.1-.41-1.66-1.17-1.82-.38-.1-.82-.13-1.24-.13-.34,0-.55-.06-.55-.32,0-.19.27-.26.82-.26,1.3,0,3.47.1,4.46.1.86,0,2.88-.1,4.19-.1.45,0,.72.06.72.26,0,.26-.21.32-.55.32s-.62.03-1.03.1c-.93.16-1.2.71-1.27,1.85-.07,1.04-.07,1.95-.07,6.88v5.71c0,3.15,0,5.71.14,7.11.1.88.34,1.46,1.37,1.59.48.06,1.24.13,1.75.13.38,0,.55.1.55.26,0,.23-.27.32-.65.32-2.27,0-4.43-.1-5.35-.1-.79,0-2.95.1-4.33.1-.45,0-.69-.1-.69-.32,0-.16.14-.26.55-.26.51,0,.93-.06,1.24-.13.69-.13.89-.68,1-1.62.17-1.36.17-3.93.17-7.07v-5.71Zm.21-13.73c0-.81.55-1.88,1.92-1.88,1.1,0,1.96.68,1.96,1.75s-.79,1.95-1.96,1.95c-1.37,0-1.92-1.01-1.92-1.82Z"/>
          <path class="cls-2" d="m497.28,39.42c0,4.15,0,6.39.72,6.98.58.49,1.48.71,4.15.71,1.82,0,3.16-.03,4.02-.91.41-.42.82-1.33.89-1.95.03-.29.1-.49.38-.49.24,0,.28.16.28.55,0,.36-.24,2.79-.52,3.73-.21.71-.38.88-2.16.88-2.47,0-4.26-.06-5.8-.1-1.54-.06-2.78-.1-4.19-.1-.38,0-1.13,0-1.96.03-.79,0-1.68.06-2.37.06-.45,0-.69-.1-.69-.32,0-.16.14-.26.55-.26.51,0,.93-.06,1.24-.13.69-.13.86-.84,1-1.78.17-1.36.17-3.93.17-6.91v-5.71c0-4.93,0-5.84-.07-6.88-.07-1.1-.34-1.62-1.48-1.85-.28-.06-.69-.1-1.13-.1-.38,0-.58-.06-.58-.29s.24-.29.75-.29c1.61,0,3.78.1,4.7.1.82,0,3.33-.1,4.67-.1.48,0,.72.06.72.29s-.21.29-.62.29c-.38,0-.93.03-1.34.1-.93.16-1.2.71-1.27,1.85-.07,1.04-.07,1.95-.07,6.88v5.71Z"/>
          <path class="cls-2" d="m521.99,33.71c0-4.93,0-5.84-.07-6.88-.07-1.1-.41-1.66-1.17-1.82-.38-.1-.82-.13-1.24-.13-.34,0-.55-.06-.55-.32,0-.19.27-.26.82-.26,1.3,0,3.47.1,4.46.1.86,0,2.88-.1,4.19-.1.45,0,.72.06.72.26,0,.26-.21.32-.55.32s-.62.03-1.03.1c-.93.16-1.2.71-1.27,1.85-.07,1.04-.07,1.95-.07,6.88v5.71c0,3.15,0,5.71.14,7.11.1.88.34,1.46,1.37,1.59.48.06,1.24.13,1.75.13.38,0,.55.1.55.26,0,.23-.27.32-.65.32-2.27,0-4.43-.1-5.35-.1-.79,0-2.95.1-4.33.1-.45,0-.69-.1-.69-.32,0-.16.14-.26.55-.26.51,0,.93-.06,1.24-.13.69-.13.89-.68,1-1.62.17-1.36.17-3.93.17-7.07v-5.71Zm.21-13.73c0-.81.55-1.88,1.92-1.88,1.1,0,1.96.68,1.96,1.75s-.79,1.95-1.96,1.95c-1.37,0-1.92-1.01-1.92-1.82Z"/>
          <path class="cls-2" d="m547,24.69c.1-.55.31-.84.58-.84s.48.16.93,1l9.37,18.04,9.34-18.27c.28-.52.45-.78.76-.78s.51.32.62,1l3.12,19.86c.31,2.04.65,2.99,1.68,3.28,1,.29,1.68.32,2.13.32.31,0,.55.03.55.23,0,.26-.41.36-.89.36-.86,0-5.6-.06-6.97-.16-.79-.06-1-.16-1-.36,0-.16.14-.26.38-.36.21-.06.31-.49.17-1.4l-2.06-14.11h-.14l-7.48,14.47c-.79,1.52-.96,1.82-1.27,1.82s-.65-.65-1.2-1.62c-.82-1.49-3.54-6.46-3.95-7.37-.31-.68-2.37-4.51-3.57-6.94h-.14l-1.78,12.66c-.07.58-.1,1.01-.1,1.52,0,.62.45.91,1.03,1.04.62.13,1.1.16,1.44.16.28,0,.52.06.52.23,0,.29-.31.36-.82.36-1.44,0-2.99-.1-3.6-.1-.65,0-2.3.1-3.4.1-.34,0-.62-.06-.62-.36,0-.16.21-.23.55-.23.27,0,.51,0,1.03-.1.96-.2,1.24-1.46,1.41-2.56l3.4-20.9Z"/>
        </g>
        <g>
          <path class="cls-2" d="m208.64,74.49c0-4.9,0-5.78-.07-6.79-.07-1.07-.34-1.57-1.48-1.79-.28-.06-.86-.09-1.17-.09-.14,0-.28-.06-.28-.19,0-.19.17-.25.55-.25,1.55,0,3.65.09,3.96.09s2.37-.09,3.41-.09c.38,0,.55.06.55.25,0,.13-.14.19-.28.19-.24,0-.45.03-.86.09-.93.13-1.2.69-1.27,1.79-.07,1.01-.07,1.89-.07,6.79v4.4c0,4.53,1.1,6.48,2.58,7.77,1.69,1.45,3.24,1.73,5.2,1.73,2.1,0,4.17-.91,5.4-2.26,1.58-1.79,2-4.46,2-7.7v-3.93c0-4.9,0-5.78-.07-6.79-.07-1.07-.34-1.57-1.48-1.79-.28-.06-.86-.09-1.17-.09-.14,0-.28-.06-.28-.19,0-.19.17-.25.55-.25,1.55,0,3.44.09,3.65.09.24,0,1.86-.09,2.89-.09.38,0,.55.06.55.25,0,.13-.14.19-.28.19-.24,0-.45.03-.86.09-.93.19-1.2.69-1.27,1.79-.07,1.01-.07,1.89-.07,6.79v3.36c0,3.4-.41,7.17-3.17,9.4-2.48,2.01-5.06,2.33-7.09,2.33-1.17,0-4.65-.13-7.09-2.23-1.69-1.48-2.99-3.68-2.99-8.27v-4.59Zm5.89-12.89c0-.57.41-1.35,1.48-1.35.83,0,1.48.47,1.48,1.26s-.59,1.45-1.51,1.45c-1.03,0-1.45-.75-1.45-1.35Zm6.92,0c0-.57.41-1.35,1.48-1.35.83,0,1.48.47,1.48,1.26s-.58,1.45-1.51,1.45c-1.03,0-1.45-.75-1.45-1.35Z"/>
          <path class="cls-2" d="m248.39,84.87c.07,2.58.41,3.4,1.34,3.65.65.16,1.41.19,1.72.19.17,0,.28.06.28.19,0,.19-.21.25-.62.25-1.96,0-3.34-.09-3.65-.09s-1.76.09-3.3.09c-.34,0-.55-.03-.55-.25,0-.13.1-.19.28-.19.28,0,.89-.03,1.41-.19.86-.22,1.03-1.13,1.03-3.99l.03-18.02c0-1.23.1-1.57.38-1.57s.86.69,1.2,1.01c.52.53,5.65,5.6,10.95,10.78,3.41,3.33,7.16,7.17,8.26,8.21l-.38-15.97c-.03-2.04-.28-2.74-1.34-2.99-.62-.13-1.41-.16-1.69-.16-.24,0-.28-.09-.28-.22,0-.19.28-.22.69-.22,1.55,0,3.2.09,3.58.09s1.51-.09,2.93-.09c.38,0,.62.03.62.22,0,.13-.14.22-.38.22-.17,0-.41,0-.83.09-1.14.22-1.27.91-1.27,2.8l-.07,18.42c0,2.07-.07,2.23-.31,2.23-.28,0-.69-.35-2.51-2.01-.38-.31-5.34-4.94-8.98-8.52-3.99-3.93-7.88-7.89-8.98-9.02l.45,15.06Z"/>
          <path class="cls-2" d="m291.2,80.03c0,3.02,0,5.5.17,6.82.1.91.31,1.6,1.34,1.73.48.06,1.24.13,1.55.13.21,0,.28.09.28.19,0,.16-.17.25-.55.25-1.89,0-4.06-.09-4.23-.09s-2.34.09-3.37.09c-.38,0-.55-.06-.55-.25,0-.09.07-.19.28-.19.31,0,.72-.06,1.03-.13.69-.13.86-.82,1-1.73.17-1.32.17-3.8.17-6.82v-5.53c0-4.9,0-5.78-.07-6.79-.07-1.07-.41-1.6-1.17-1.76-.38-.09-.83-.13-1.07-.13-.14,0-.28-.06-.28-.19,0-.19.17-.25.55-.25,1.14,0,3.3.09,3.48.09s2.34-.09,3.37-.09c.38,0,.55.06.55.25,0,.13-.14.19-.28.19-.24,0-.45.03-.86.09-.93.16-1.2.69-1.27,1.79-.07,1.01-.07,1.89-.07,6.79v5.53Zm-3.2-18.67c0-.69.52-1.63,1.76-1.63,1,0,1.79.6,1.79,1.54s-.72,1.7-1.79,1.7c-1.24,0-1.76-.88-1.76-1.6Z"/>
          <path class="cls-2" d="m319.18,85.31c2-4.21,6.61-15.19,7.37-17.45.17-.47.31-.91.31-1.19,0-.25-.1-.57-.45-.72-.41-.13-.93-.13-1.31-.13-.21,0-.38-.03-.38-.19,0-.19.21-.25.76-.25,1.38,0,2.96.09,3.37.09.21,0,1.69-.09,2.68-.09.38,0,.58.06.58.22s-.14.22-.41.22c-.24,0-1,0-1.65.38-.45.28-.96.82-1.89,2.95-.38.88-2.1,4.65-3.85,8.52-2.1,4.59-3.65,7.99-4.44,9.53-.96,1.89-1.1,2.39-1.45,2.39-.41,0-.58-.44-1.24-1.95l-8.43-19.27c-.76-1.76-1.27-2.11-2.48-2.42-.52-.13-1.1-.13-1.31-.13s-.28-.09-.28-.22c0-.19.34-.22.89-.22,1.65,0,3.61.09,4.03.09.34,0,1.89-.09,3.2-.09.62,0,.93.06.93.22s-.1.22-.34.22c-.38,0-1,.03-1.31.16-.38.16-.45.41-.45.63,0,.41.41,1.38.93,2.61l6.61,16.1Z"/>
          <path class="cls-2" d="m345.5,74.49c0-4.9,0-5.78-.07-6.79-.07-1.07-.34-1.57-1.48-1.79-.28-.06-.86-.09-1.17-.09-.14,0-.28-.06-.28-.19,0-.19.17-.25.55-.25.79,0,1.72,0,2.48.03l1.41.06c.24,0,7.09,0,7.88-.03.65-.03,1.21-.09,1.48-.16.17-.03.31-.16.48-.16.1,0,.14.13.14.28,0,.22-.17.6-.28,1.48-.03.31-.1,1.7-.17,2.08-.03.16-.1.35-.24.35-.21,0-.28-.16-.28-.41,0-.22-.03-.75-.21-1.13-.24-.5-.58-.88-2.44-1.07-.58-.06-4.34-.09-4.72-.09-.14,0-.21.09-.21.31v8.68c0,.22.03.31.21.31.45,0,4.68,0,5.47-.06.83-.06,1.31-.13,1.62-.44.24-.25.38-.41.52-.41.1,0,.17.06.17.25s-.17.72-.28,1.76c-.07.63-.14,1.79-.14,2.01,0,.25,0,.6-.24.6-.17,0-.24-.13-.24-.28,0-.31,0-.63-.14-1.04-.14-.44-.45-.97-1.79-1.1-.93-.09-4.34-.16-4.92-.16-.17,0-.24.09-.24.22v2.77c0,1.07-.03,4.72,0,5.38.1,2.17.62,2.58,3.99,2.58.89,0,2.41,0,3.3-.35s1.31-.97,1.55-2.26c.07-.35.14-.47.31-.47.21,0,.21.25.21.47,0,.25-.28,2.39-.45,3.05-.24.82-.52.82-1.86.82-2.58,0-4.47-.06-5.82-.09-1.34-.06-2.17-.09-2.69-.09-.07,0-.65,0-1.38.03-.69,0-1.48.06-2,.06-.38,0-.55-.06-.55-.25,0-.09.07-.19.28-.19.31,0,.72-.06,1.03-.13.69-.13.86-.82,1-1.73.17-1.32.17-3.8.17-6.82v-5.53Z"/>
          <path class="cls-2" d="m374.75,74.49c0-4.9,0-5.78-.07-6.79-.07-1.07-.34-1.57-1.48-1.79-.28-.06-.86-.09-1.17-.09-.14,0-.28-.06-.28-.19,0-.19.17-.25.55-.25,1.55,0,3.72.09,3.89.09.38,0,2.99-.09,4.06-.09,2.17,0,4.47.19,6.3,1.38.86.57,2.38,2.11,2.38,4.28,0,2.33-1.07,4.65-4.17,7.26,2.82,3.3,5.16,6.1,7.16,8.05,1.86,1.79,3.34,2.14,4.2,2.26.65.09,1.14.09,1.34.09.17,0,.31.09.31.19,0,.19-.21.25-.83.25h-2.44c-1.93,0-2.79-.16-3.68-.6-1.48-.72-2.68-2.26-4.65-4.62-1.45-1.73-3.06-3.84-3.75-4.65-.14-.13-.24-.19-.45-.19l-4.23-.06c-.17,0-.24.09-.24.25v.75c0,3.02,0,5.5.17,6.82.1.91.31,1.6,1.34,1.73.48.06,1.24.13,1.55.13.21,0,.28.09.28.19,0,.16-.17.25-.55.25-1.89,0-4.06-.09-4.23-.09-.03,0-2.2.09-3.24.09-.38,0-.55-.06-.55-.25,0-.09.07-.19.28-.19.31,0,.72-.06,1.03-.13.69-.13.86-.82,1-1.73.17-1.32.17-3.8.17-6.82v-5.53Zm2.75,2.74c0,.16.07.28.24.38.52.28,2.1.5,3.61.5.83,0,1.79-.09,2.58-.6,1.2-.75,2.1-2.45,2.1-4.84,0-3.93-2.27-6.29-5.95-6.29-1.03,0-1.96.09-2.31.19-.17.06-.28.19-.28.38v10.28Z"/>
          <path class="cls-2" d="m406.41,88.73c-.48-.22-.52-.35-.52-1.19,0-1.57.14-2.83.17-3.33.03-.35.1-.5.28-.5.21,0,.24.09.24.35,0,.28,0,.72.1,1.16.52,2.33,2.79,3.21,5.09,3.21,3.3,0,4.92-2.17,4.92-4.18,0-2.17-1-3.43-3.96-5.66l-1.55-1.16c-3.65-2.73-4.48-4.68-4.48-6.82,0-3.36,2.75-5.66,7.13-5.66,1.34,0,2.34.13,3.2.31.65.13.93.16,1.21.16s.34.06.34.22-.14,1.19-.14,3.33c0,.5-.07.72-.24.72-.21,0-.24-.16-.28-.41-.03-.38-.24-1.23-.45-1.57-.21-.35-1.14-1.67-4.3-1.67-2.38,0-4.23,1.35-4.23,3.65,0,1.79.89,2.92,4.2,5.28l.96.69c4.06,2.92,5.03,4.87,5.03,7.39,0,1.29-.55,3.68-2.93,5.22-1.48.94-3.34,1.32-5.2,1.32-1.62,0-3.2-.22-4.61-.85Z"/>
          <path class="cls-2" d="m439.38,80.03c0,3.02,0,5.5.17,6.82.1.91.31,1.6,1.34,1.73.48.06,1.24.13,1.55.13.21,0,.28.09.28.19,0,.16-.17.25-.55.25-1.89,0-4.06-.09-4.23-.09s-2.34.09-3.37.09c-.38,0-.55-.06-.55-.25,0-.09.07-.19.28-.19.31,0,.72-.06,1.03-.13.69-.13.86-.82,1-1.73.17-1.32.17-3.8.17-6.82v-5.53c0-4.9,0-5.78-.07-6.79-.07-1.07-.41-1.6-1.17-1.76-.38-.09-.83-.13-1.07-.13-.14,0-.28-.06-.28-.19,0-.19.17-.25.55-.25,1.14,0,3.3.09,3.48.09s2.34-.09,3.37-.09c.38,0,.55.06.55.25,0,.13-.14.19-.28.19-.24,0-.45.03-.86.09-.93.16-1.2.69-1.27,1.79-.07,1.01-.07,1.89-.07,6.79v5.53Zm-3.2-18.67c0-.69.52-1.63,1.76-1.63,1,0,1.79.6,1.79,1.54s-.72,1.7-1.79,1.7c-1.24,0-1.76-.88-1.76-1.6Z"/>
          <path class="cls-2" d="m467.22,80.03c0,3.02,0,5.5.17,6.82.1.91.31,1.6,1.34,1.73.48.06,1.24.13,1.55.13.21,0,.28.09.28.19,0,.16-.17.25-.55.25-1.89,0-4.06-.09-4.23-.09s-2.34.09-3.37.09c-.38,0-.55-.06-.55-.25,0-.09.07-.19.28-.19.31,0,.72-.06,1.03-.13.69-.13.86-.82,1-1.73.17-1.32.17-3.8.17-6.82v-13.3l-5.09.06c-2.13.03-2.96.25-3.51,1.01-.38.53-.48.75-.59.97-.1.25-.21.31-.34.31-.1,0-.17-.09-.17-.28,0-.31.69-3.02.76-3.27.07-.19.21-.6.34-.6.24,0,.59.31,1.51.38,1,.09,2.31.16,2.72.16h12.91c1.1,0,1.89-.06,2.44-.16.52-.06.83-.16.96-.16.17,0,.17.19.17.38,0,.94-.1,3.11-.1,3.46,0,.28-.1.41-.24.41-.17,0-.24-.09-.28-.53l-.03-.35c-.1-.94-.93-1.67-4.23-1.73l-4.34-.06v13.3Z"/>
          <path class="cls-2" d="m491.93,74.49c0-4.9,0-5.78-.07-6.79-.07-1.07-.34-1.57-1.48-1.79-.28-.06-.86-.09-1.17-.09-.14,0-.28-.06-.28-.19,0-.19.17-.25.55-.25.79,0,1.72,0,2.48.03l1.41.06c.24,0,7.09,0,7.88-.03.65-.03,1.21-.09,1.48-.16.17-.03.31-.16.48-.16.1,0,.14.13.14.28,0,.22-.17.6-.28,1.48-.03.31-.1,1.7-.17,2.08-.03.16-.1.35-.24.35-.21,0-.28-.16-.28-.41,0-.22-.03-.75-.21-1.13-.24-.5-.58-.88-2.44-1.07-.58-.06-4.34-.09-4.72-.09-.14,0-.21.09-.21.31v8.68c0,.22.03.31.21.31.45,0,4.68,0,5.47-.06.83-.06,1.31-.13,1.62-.44.24-.25.38-.41.52-.41.1,0,.17.06.17.25s-.17.72-.28,1.76c-.07.63-.14,1.79-.14,2.01,0,.25,0,.6-.24.6-.17,0-.24-.13-.24-.28,0-.31,0-.63-.14-1.04-.14-.44-.45-.97-1.79-1.1-.93-.09-4.34-.16-4.92-.16-.17,0-.24.09-.24.22v2.77c0,1.07-.03,4.72,0,5.38.1,2.17.62,2.58,3.99,2.58.89,0,2.41,0,3.3-.35s1.31-.97,1.55-2.26c.07-.35.14-.47.31-.47.21,0,.21.25.21.47,0,.25-.28,2.39-.45,3.05-.24.82-.52.82-1.86.82-2.58,0-4.47-.06-5.82-.09-1.34-.06-2.17-.09-2.69-.09-.07,0-.65,0-1.38.03-.69,0-1.48.06-2,.06-.38,0-.55-.06-.55-.25,0-.09.07-.19.28-.19.31,0,.72-.06,1.03-.13.69-.13.86-.82,1-1.73.17-1.32.17-3.8.17-6.82v-5.53Z"/>
          <path class="cls-2" d="m518.98,88.73c-.48-.22-.52-.35-.52-1.19,0-1.57.14-2.83.17-3.33.03-.35.1-.5.28-.5.21,0,.24.09.24.35,0,.28,0,.72.1,1.16.52,2.33,2.79,3.21,5.09,3.21,3.3,0,4.92-2.17,4.92-4.18,0-2.17-1-3.43-3.96-5.66l-1.55-1.16c-3.65-2.73-4.48-4.68-4.48-6.82,0-3.36,2.75-5.66,7.13-5.66,1.34,0,2.34.13,3.2.31.65.13.93.16,1.21.16s.34.06.34.22-.14,1.19-.14,3.33c0,.5-.07.72-.24.72-.21,0-.24-.16-.28-.41-.03-.38-.24-1.23-.45-1.57-.21-.35-1.14-1.67-4.3-1.67-2.38,0-4.23,1.35-4.23,3.65,0,1.79.89,2.92,4.2,5.28l.96.69c4.06,2.92,5.03,4.87,5.03,7.39,0,1.29-.55,3.68-2.93,5.22-1.48.94-3.34,1.32-5.2,1.32-1.62,0-3.2-.22-4.61-.85Z"/>
          <path class="cls-2" d="m551.94,80.03c0,3.02,0,5.5.17,6.82.1.91.31,1.6,1.34,1.73.48.06,1.24.13,1.55.13.21,0,.28.09.28.19,0,.16-.17.25-.55.25-1.89,0-4.06-.09-4.23-.09s-2.34.09-3.37.09c-.38,0-.55-.06-.55-.25,0-.09.07-.19.28-.19.31,0,.72-.06,1.03-.13.69-.13.86-.82,1-1.73.17-1.32.17-3.8.17-6.82v-5.53c0-4.9,0-5.78-.07-6.79-.07-1.07-.41-1.6-1.17-1.76-.38-.09-.83-.13-1.07-.13-.14,0-.28-.06-.28-.19,0-.19.17-.25.55-.25,1.14,0,3.3.09,3.48.09s2.34-.09,3.37-.09c.38,0,.55.06.55.25,0,.13-.14.19-.28.19-.24,0-.45.03-.86.09-.93.16-1.2.69-1.27,1.79-.07,1.01-.07,1.89-.07,6.79v5.53Zm-3.2-18.67c0-.69.52-1.63,1.76-1.63,1,0,1.79.6,1.79,1.54s-.72,1.7-1.79,1.7c-1.24,0-1.76-.88-1.76-1.6Z"/>
        </g>
      </g>
    </g>
  </g>
</svg>