<?xml version="1.0" encoding="UTF-8"?>
<svg id="katman_2" data-name="katman 2" xmlns="http://www.w3.org/2000/svg" viewBox="0 0 240.6 47.63">
  <defs>
    <style>
      .cls-1 {
        fill: #fff;
      }
    </style>
  </defs>
  <g id="Layer_1" data-name="Layer 1">
    <g>
      <g>
        <path class="cls-1" d="m8.21,31.26c7.23-4.85,15.31-7.78,23.57-8.82l6.8-7,6.8,7c8.26,1.04,16.34,3.98,23.57,8.82,0,0,0,0,0,0h0L38.58,0,8.21,31.25h0s0,0,0,0Z"/>
        <path class="cls-1" d="m72.53,47.63l4.63-4.8h0C55.85,20.77,21.31,20.77,0,42.83h0s4.63,4.8,4.63,4.8c19.82-16.35,48.08-16.35,67.9,0Z"/>
      </g>
      <g>
        <g>
          <path class="cls-1" d="m81.05,16.94c-.07,0-.1.03-.13.11l-.77,1.86c-.14.34-.21.66-.21.83,0,.24.13.42.57.42h.21c.17,0,.22.03.22.11,0,.11-.09.14-.24.14-.46,0-1.08-.04-1.52-.04-.16,0-.95.04-1.69.04-.19,0-.27-.03-.27-.14,0-.08.06-.11.17-.11.13,0,.33-.01.44-.03.66-.08.93-.54,1.22-1.22l3.6-8.4c.17-.39.26-.54.4-.54.13,0,.21.12.36.43.34.75,2.64,6.17,3.56,8.23.54,1.22.96,1.41,1.26,1.48.21.04.43.05.6.05.11,0,.19.01.19.11,0,.11-.13.14-.66.14s-1.56,0-2.71-.03c-.26-.01-.43-.01-.43-.11,0-.08.06-.11.2-.12.1-.03.2-.15.13-.31l-1.15-2.79c-.03-.07-.07-.09-.14-.09h-3.2Zm2.92-.68c.07,0,.09-.04.07-.08l-1.29-3.33c-.01-.05-.03-.12-.07-.12s-.07.07-.09.12l-1.32,3.32c-.01.05,0,.09.06.09h2.64Z"/>
          <path class="cls-1" d="m94.75,18.55c.03,1.06.22,1.41.5,1.5.24.08.52.09.75.09.16,0,.24.03.24.11,0,.11-.13.14-.33.14-.93,0-1.51-.04-1.78-.04-.13,0-.8.04-1.55.04-.19,0-.32-.01-.32-.14,0-.08.09-.11.23-.11.19,0,.44-.01.65-.07.37-.11.43-.5.44-1.68l.13-7.98c0-.27.04-.46.19-.46.16,0,.29.18.53.42.17.18,2.35,2.35,4.44,4.31.97.92,2.91,2.87,3.15,3.09h.07l-.14-6.08c-.01-.83-.14-1.08-.49-1.22-.22-.08-.56-.08-.76-.08-.17,0-.23-.04-.23-.12,0-.11.16-.12.37-.12.75,0,1.43.04,1.73.04.16,0,.7-.04,1.4-.04.19,0,.33.01.33.12,0,.08-.09.12-.26.12-.14,0-.26,0-.43.04-.4.11-.52.39-.53,1.15l-.16,8.55c0,.3-.06.42-.19.42-.16,0-.33-.15-.49-.3-.9-.81-2.74-2.59-4.23-3.98-1.56-1.46-3.15-3.12-3.41-3.37h-.04l.16,5.65Z"/>
          <path class="cls-1" d="m112.87,10.91l-2.14.05c-.83.03-1.18.09-1.39.39-.14.2-.21.37-.24.47-.03.11-.07.16-.16.16-.1,0-.13-.07-.13-.22,0-.22.27-1.45.3-1.56.04-.18.09-.26.17-.26.11,0,.26.14.62.16.42.04.96.07,1.43.07h5.68c.46,0,.77-.04.99-.07.22-.04.33-.07.39-.07.1,0,.11.08.11.28,0,.28-.04,1.22-.04,1.57-.01.14-.04.22-.13.22-.11,0-.14-.07-.16-.27v-.15c-.04-.35-.43-.73-1.71-.76l-1.81-.04v5.56c0,1.25,0,2.32.07,2.9.04.38.13.68.56.73.2.03.52.05.73.05.16,0,.23.04.23.11,0,.09-.11.14-.27.14-.95,0-1.85-.04-2.25-.04-.33,0-1.23.04-1.81.04-.19,0-.29-.04-.29-.14,0-.07.06-.11.23-.11.22,0,.39-.03.52-.05.29-.05.37-.35.42-.75.07-.57.07-1.64.07-2.89v-5.56Z"/>
          <path class="cls-1" d="m124.29,16.94c-.07,0-.1.03-.13.11l-.77,1.86c-.14.34-.21.66-.21.83,0,.24.13.42.57.42h.21c.17,0,.22.03.22.11,0,.11-.09.14-.24.14-.46,0-1.08-.04-1.52-.04-.16,0-.95.04-1.69.04-.19,0-.27-.03-.27-.14,0-.08.06-.11.17-.11.13,0,.33-.01.44-.03.66-.08.93-.54,1.22-1.22l3.6-8.4c.17-.39.26-.54.4-.54.13,0,.21.12.36.43.34.75,2.64,6.17,3.56,8.23.54,1.22.96,1.41,1.26,1.48.21.04.43.05.6.05.11,0,.19.01.19.11,0,.11-.13.14-.66.14s-1.56,0-2.71-.03c-.26-.01-.43-.01-.43-.11,0-.08.06-.11.2-.12.1-.03.2-.15.13-.31l-1.15-2.79c-.03-.07-.07-.09-.14-.09h-3.2Zm2.92-.68c.07,0,.09-.04.07-.08l-1.29-3.33c-.01-.05-.03-.12-.07-.12s-.07.07-.09.12l-1.32,3.32c-.01.05,0,.09.06.09h2.64Z"/>
          <path class="cls-1" d="m138.98,16.47c0,1.73,0,2.67.3,2.91.24.2.62.3,1.73.3.76,0,1.32-.01,1.68-.38.17-.18.34-.56.37-.81.01-.12.04-.2.16-.2.1,0,.11.07.11.23,0,.15-.1,1.17-.22,1.56-.09.3-.16.37-.9.37-1.03,0-1.78-.03-2.42-.04-.65-.03-.83-.04-1.42-.04-.16,0-.47,0-.82.01-.33,0-.7.03-.99.03-.19,0-.29-.04-.29-.14,0-.07.06-.11.23-.11.21,0,.39-.03.52-.05.29-.05.36-.35.42-.75.07-.57.07-1.64.07-2.89v-2.39c0-2.06,0-2.44-.03-2.87-.03-.46-.14-.68-.62-.77-.11-.03-.29-.04-.47-.04-.16,0-.24-.03-.24-.12s.1-.12.32-.12c.67,0,1.58.04,1.96.04.34,0,1.06-.04,1.62-.04.2,0,.3.03.3.12s-.09.12-.26.12c-.16,0-.39.01-.56.04-.39.07-.5.3-.53.77-.03.43-.03.81-.03,2.87v2.39Z"/>
          <path class="cls-1" d="m150.33,16.89c0-.73-.14-1.03-.33-1.42-.1-.22-2.02-3.2-2.52-3.9-.36-.5-.72-.84-.99-.99-.19-.09-.43-.18-.6-.18-.11,0-.22-.03-.22-.12,0-.08.1-.12.27-.12.26,0,1.33.04,1.81.04.3,0,.89-.04,1.53-.04.14,0,.21.04.21.12s-.1.09-.32.15c-.13.03-.2.14-.2.24s.07.27.17.46c.2.41,2.21,3.67,2.44,4.05.14-.33,1.95-3.31,2.15-3.73.14-.3.2-.53.2-.7,0-.14-.06-.28-.3-.34-.13-.03-.26-.05-.26-.14,0-.09.07-.12.24-.12.47,0,.93.04,1.35.04.32,0,1.26-.04,1.53-.04.16,0,.26.03.26.11,0,.09-.11.14-.27.14-.14,0-.42.05-.63.16-.3.14-.46.3-.77.66-.47.54-2.48,3.73-2.74,4.31-.21.49-.21.91-.21,1.36v1.11c0,.22,0,.79.04,1.36.03.39.16.69.59.75.2.03.52.05.72.05.16,0,.23.04.23.11,0,.09-.11.14-.3.14-.9,0-1.81-.04-2.19-.04-.36,0-1.26.04-1.79.04-.2,0-.32-.03-.32-.14,0-.07.07-.11.23-.11.2,0,.37-.03.5-.05.29-.05.42-.35.44-.75.04-.57.04-1.14.04-1.36v-1.11Z"/>
          <path class="cls-1" d="m162.06,16.94c-.07,0-.1.03-.13.11l-.77,1.86c-.14.34-.21.66-.21.83,0,.24.13.42.57.42h.21c.17,0,.22.03.22.11,0,.11-.09.14-.24.14-.46,0-1.08-.04-1.52-.04-.16,0-.95.04-1.69.04-.19,0-.27-.03-.27-.14,0-.08.06-.11.17-.11.13,0,.33-.01.44-.03.66-.08.93-.54,1.22-1.22l3.6-8.4c.17-.39.26-.54.4-.54.13,0,.21.12.36.43.34.75,2.64,6.17,3.56,8.23.54,1.22.96,1.41,1.26,1.48.21.04.43.05.6.05.11,0,.19.01.19.11,0,.11-.13.14-.66.14s-1.56,0-2.71-.03c-.26-.01-.43-.01-.43-.11,0-.08.06-.11.2-.12.1-.03.2-.15.13-.31l-1.15-2.79c-.03-.07-.07-.09-.14-.09h-3.2Zm2.92-.68c.07,0,.09-.04.07-.08l-1.29-3.33c-.01-.05-.03-.12-.07-.12s-.07.07-.09.12l-1.32,3.32c-.01.05,0,.09.06.09h2.64Z"/>
          <path class="cls-1" d="m182.7,14.08c0-2.06,0-2.44-.03-2.87-.03-.46-.14-.68-.62-.77-.11-.03-.36-.04-.56-.04-.16,0-.24-.03-.24-.12s.1-.12.32-.12c.76,0,1.66.04,1.95.04.7,0,1.26-.04,1.75-.04,2.59,0,3.05,1.31,3.05,2.03,0,1.11-.67,1.78-1.46,2.37,1.18.38,2.61,1.34,2.61,2.93,0,1.45-1.19,2.95-3.83,2.95-.17,0-.59-.03-1-.04-.43-.03-.86-.04-1.08-.04-.16,0-.47,0-.82.01-.33,0-.7.03-.99.03-.19,0-.29-.04-.29-.14,0-.07.06-.11.23-.11.21,0,.39-.03.52-.05.29-.05.36-.35.42-.75.07-.57.07-1.64.07-2.89v-2.39Zm1.72.23c0,.11.04.14.1.15.13.03.34.04.67.04.47,0,.79-.05,1.03-.26.37-.28.59-.77.59-1.44,0-.91-.56-2.1-1.79-2.1-.2,0-.33,0-.47.03-.1.03-.13.08-.13.23v3.35Zm1.89,1.08c-.3-.2-.63-.3-1.19-.32-.26-.01-.4-.01-.62-.01-.06,0-.09.03-.09.09v3.21c0,.89.04,1.12.5,1.3.39.15.72.16,1.05.16.65,0,1.73-.32,1.73-1.73,0-.84-.3-1.98-1.39-2.7Z"/>
          <path class="cls-1" d="m195.98,14.08c0-2.06,0-2.44-.03-2.87-.03-.46-.17-.69-.49-.76-.16-.04-.34-.05-.52-.05-.14,0-.23-.03-.23-.14,0-.08.11-.11.34-.11.54,0,1.45.04,1.86.04.36,0,1.2-.04,1.75-.04.19,0,.3.03.3.11,0,.11-.09.14-.23.14s-.26.01-.43.04c-.39.07-.5.3-.53.77-.03.43-.03.81-.03,2.87v2.39c0,1.31,0,2.39.06,2.97.04.37.14.61.57.66.2.03.52.05.73.05.16,0,.23.04.23.11,0,.09-.11.14-.27.14-.95,0-1.85-.04-2.24-.04-.33,0-1.23.04-1.81.04-.19,0-.29-.04-.29-.14,0-.07.06-.11.23-.11.21,0,.39-.03.52-.05.29-.05.37-.28.42-.68.07-.57.07-1.64.07-2.95v-2.39Zm.09-5.73c0-.34.23-.79.8-.79.46,0,.82.28.82.73s-.33.81-.82.81c-.57,0-.8-.42-.8-.76Z"/>
          <path class="cls-1" d="m207.69,16.47c0,1.73,0,2.67.3,2.91.24.2.62.3,1.73.3.76,0,1.32-.01,1.68-.38.17-.18.34-.56.37-.81.01-.12.04-.2.16-.2.1,0,.11.07.11.23,0,.15-.1,1.17-.22,1.56-.09.3-.16.37-.9.37-1.03,0-1.78-.03-2.42-.04-.65-.03-1.16-.04-1.75-.04-.16,0-.47,0-.82.01-.33,0-.7.03-.99.03-.19,0-.29-.04-.29-.14,0-.07.06-.11.23-.11.21,0,.39-.03.52-.05.29-.05.36-.35.42-.75.07-.57.07-1.64.07-2.89v-2.39c0-2.06,0-2.44-.03-2.87-.03-.46-.14-.68-.62-.77-.11-.03-.29-.04-.47-.04-.16,0-.24-.03-.24-.12s.1-.12.32-.12c.67,0,1.58.04,1.96.04.34,0,1.39-.04,1.95-.04.2,0,.3.03.3.12s-.09.12-.26.12c-.16,0-.39.01-.56.04-.39.07-.5.3-.53.77-.03.43-.03.81-.03,2.87v2.39Z"/>
          <path class="cls-1" d="m218.01,14.08c0-2.06,0-2.44-.03-2.87-.03-.46-.17-.69-.49-.76-.16-.04-.34-.05-.52-.05-.14,0-.23-.03-.23-.14,0-.08.11-.11.34-.11.54,0,1.45.04,1.86.04.36,0,1.2-.04,1.75-.04.19,0,.3.03.3.11,0,.11-.09.14-.23.14s-.26.01-.43.04c-.39.07-.5.3-.53.77-.03.43-.03.81-.03,2.87v2.39c0,1.31,0,2.39.06,2.97.04.37.14.61.57.66.2.03.52.05.73.05.16,0,.23.04.23.11,0,.09-.11.14-.27.14-.95,0-1.85-.04-2.24-.04-.33,0-1.23.04-1.81.04-.19,0-.29-.04-.29-.14,0-.07.06-.11.23-.11.21,0,.39-.03.52-.05.29-.05.37-.28.42-.68.07-.57.07-1.64.07-2.95v-2.39Zm.09-5.73c0-.34.23-.79.8-.79.46,0,.82.28.82.73s-.33.81-.82.81c-.57,0-.8-.42-.8-.76Z"/>
          <path class="cls-1" d="m228.46,10.31c.04-.23.13-.35.24-.35s.2.07.39.42l3.91,7.54,3.9-7.63c.11-.22.19-.32.32-.32s.21.14.26.42l1.3,8.29c.13.85.27,1.25.7,1.37.42.12.7.14.89.14.13,0,.23.01.23.1,0,.11-.17.15-.37.15-.36,0-2.34-.03-2.91-.07-.33-.03-.42-.07-.42-.15,0-.07.06-.11.16-.15.09-.03.13-.2.07-.58l-.86-5.9h-.06l-3.13,6.04c-.33.64-.4.76-.53.76s-.27-.27-.5-.68c-.34-.62-1.48-2.7-1.65-3.08-.13-.28-.99-1.88-1.49-2.9h-.06l-.75,5.29c-.03.24-.04.42-.04.64,0,.26.19.38.43.43.26.05.46.07.6.07.11,0,.22.03.22.09,0,.12-.13.15-.34.15-.6,0-1.25-.04-1.51-.04-.27,0-.96.04-1.42.04-.14,0-.26-.03-.26-.15,0-.07.09-.09.23-.09.11,0,.21,0,.43-.04.4-.08.52-.61.59-1.07l1.42-8.73Z"/>
        </g>
        <g>
          <path class="cls-1" d="m87.14,31.11c0-2.05,0-2.42-.03-2.84-.03-.45-.14-.66-.62-.75-.12-.03-.36-.04-.49-.04-.06,0-.11-.03-.11-.08,0-.08.07-.1.23-.1.65,0,1.52.04,1.65.04s.99-.04,1.42-.04c.16,0,.23.03.23.1,0,.05-.06.08-.12.08-.1,0-.19.01-.36.04-.39.05-.5.29-.53.75-.03.42-.03.79-.03,2.84v1.84c0,1.89.46,2.7,1.08,3.24.7.6,1.35.72,2.17.72.88,0,1.74-.38,2.26-.95.66-.75.83-1.86.83-3.22v-1.64c0-2.05,0-2.42-.03-2.84-.03-.45-.14-.66-.62-.75-.11-.03-.36-.04-.49-.04-.06,0-.11-.03-.11-.08,0-.08.07-.1.23-.1.65,0,1.44.04,1.52.04.1,0,.78-.04,1.21-.04.16,0,.23.03.23.1,0,.05-.06.08-.11.08-.1,0-.19.01-.36.04-.39.08-.5.29-.53.75-.03.42-.03.79-.03,2.84v1.41c0,1.42-.17,2.99-1.32,3.93-1.04.84-2.11.97-2.96.97-.49,0-1.94-.05-2.96-.93-.7-.62-1.25-1.54-1.25-3.45v-1.92Zm2.46-5.38c0-.24.17-.56.62-.56.35,0,.62.2.62.53s-.24.6-.63.6c-.43,0-.6-.32-.6-.56Zm2.89,0c0-.24.17-.56.62-.56.34,0,.62.2.62.53s-.24.6-.63.6c-.43,0-.6-.32-.6-.56Z"/>
          <path class="cls-1" d="m103.74,35.45c.03,1.08.17,1.42.56,1.52.27.07.59.08.72.08.07,0,.11.03.11.08,0,.08-.09.11-.26.11-.82,0-1.39-.04-1.52-.04s-.73.04-1.38.04c-.14,0-.23-.01-.23-.11,0-.05.04-.08.12-.08.11,0,.37-.01.59-.08.36-.09.43-.47.43-1.67v-7.52c.01-.51.06-.66.17-.66s.36.29.5.42c.22.22,2.36,2.34,4.57,4.5,1.42,1.39,2.99,2.99,3.45,3.43l-.16-6.67c-.01-.85-.11-1.14-.56-1.25-.26-.05-.59-.07-.7-.07-.1,0-.12-.04-.12-.09,0-.08.12-.09.29-.09.65,0,1.34.04,1.5.04s.63-.04,1.22-.04c.16,0,.26.01.26.09,0,.05-.06.09-.16.09-.07,0-.17,0-.35.04-.47.09-.53.38-.53,1.17l-.03,7.69c0,.87-.03.93-.13.93-.11,0-.29-.14-1.05-.84-.16-.13-2.23-2.06-3.75-3.56-1.67-1.64-3.29-3.3-3.75-3.77l.19,6.29Z"/>
          <path class="cls-1" d="m121.62,33.42c0,1.26,0,2.3.07,2.85.04.38.13.67.56.72.2.03.52.05.65.05.09,0,.11.04.11.08,0,.07-.07.11-.23.11-.79,0-1.7-.04-1.77-.04s-.98.04-1.41.04c-.16,0-.23-.03-.23-.11,0-.04.03-.08.11-.08.13,0,.3-.03.43-.05.29-.05.36-.34.42-.72.07-.55.07-1.59.07-2.85v-2.31c0-2.05,0-2.42-.03-2.84-.03-.45-.17-.67-.49-.74-.16-.04-.35-.05-.45-.05-.06,0-.11-.03-.11-.08,0-.08.07-.1.23-.1.47,0,1.38.04,1.45.04s.98-.04,1.41-.04c.16,0,.23.03.23.1,0,.05-.06.08-.11.08-.1,0-.19.01-.36.04-.39.07-.5.29-.53.75-.03.42-.03.79-.03,2.84v2.31Zm-1.34-7.8c0-.29.22-.68.73-.68.42,0,.75.25.75.64s-.3.71-.75.71c-.52,0-.73-.37-.73-.67Z"/>
          <path class="cls-1" d="m133.31,35.63c.83-1.76,2.76-6.34,3.08-7.29.07-.2.13-.38.13-.5,0-.1-.04-.24-.19-.3-.17-.05-.39-.05-.55-.05-.09,0-.16-.01-.16-.08,0-.08.09-.1.32-.1.58,0,1.24.04,1.41.04.09,0,.7-.04,1.12-.04.16,0,.24.03.24.09s-.06.09-.17.09c-.1,0-.42,0-.69.16-.19.12-.4.34-.79,1.23-.16.37-.88,1.94-1.61,3.56-.88,1.92-1.52,3.34-1.85,3.98-.4.79-.46,1-.6,1-.17,0-.24-.18-.52-.81l-3.52-8.05c-.32-.74-.53-.88-1.04-1.01-.22-.05-.46-.05-.55-.05s-.11-.04-.11-.09c0-.08.14-.09.37-.09.69,0,1.51.04,1.68.04.14,0,.79-.04,1.34-.04.26,0,.39.03.39.09s-.04.09-.14.09c-.16,0-.42.01-.55.07-.16.07-.19.17-.19.26,0,.17.17.58.39,1.09l2.76,6.72Z"/>
          <path class="cls-1" d="m144.3,31.11c0-2.05,0-2.42-.03-2.84-.03-.45-.14-.66-.62-.75-.11-.03-.36-.04-.49-.04-.06,0-.11-.03-.11-.08,0-.08.07-.1.23-.1.33,0,.72,0,1.04.01l.59.03c.1,0,2.96,0,3.29-.01.27-.01.5-.04.62-.07.07-.01.13-.07.2-.07.04,0,.06.05.06.12,0,.09-.07.25-.12.62-.01.13-.04.71-.07.87-.01.07-.04.14-.1.14-.09,0-.12-.07-.12-.17,0-.09-.01-.31-.09-.47-.1-.21-.24-.37-1.02-.45-.24-.03-1.81-.04-1.97-.04-.06,0-.09.04-.09.13v3.62c0,.09.01.13.09.13.19,0,1.96,0,2.29-.03.34-.03.55-.05.68-.18.1-.11.16-.17.22-.17.04,0,.07.03.07.1s-.07.3-.11.74c-.03.26-.06.75-.06.84,0,.1,0,.25-.1.25-.07,0-.1-.05-.1-.12,0-.13,0-.26-.06-.43-.06-.18-.19-.41-.75-.46-.39-.04-1.81-.07-2.06-.07-.07,0-.1.04-.1.09v1.16c0,.45-.01,1.97,0,2.25.04.91.26,1.08,1.67,1.08.37,0,1.01,0,1.38-.14s.55-.41.65-.95c.03-.14.06-.2.13-.2.09,0,.09.1.09.2,0,.11-.11,1-.19,1.27-.1.34-.22.34-.78.34-1.08,0-1.87-.03-2.43-.04-.56-.03-.91-.04-1.12-.04-.03,0-.27,0-.57.01-.29,0-.62.03-.83.03-.16,0-.23-.03-.23-.11,0-.04.03-.08.11-.08.13,0,.3-.03.43-.05.29-.05.36-.34.42-.72.07-.55.07-1.59.07-2.85v-2.31Z"/>
          <path class="cls-1" d="m156.52,31.11c0-2.05,0-2.42-.03-2.84-.03-.45-.14-.66-.62-.75-.11-.03-.36-.04-.49-.04-.06,0-.11-.03-.11-.08,0-.08.07-.1.23-.1.65,0,1.55.04,1.62.04.16,0,1.25-.04,1.7-.04.91,0,1.87.08,2.63.58.36.24.99.88.99,1.79,0,.97-.45,1.94-1.74,3.03,1.18,1.38,2.16,2.55,2.99,3.36.78.75,1.39.89,1.75.95.27.04.47.04.56.04.07,0,.13.04.13.08,0,.08-.09.11-.34.11h-1.02c-.8,0-1.16-.07-1.54-.25-.62-.3-1.12-.95-1.94-1.93-.6-.72-1.28-1.6-1.57-1.94-.06-.05-.1-.08-.19-.08l-1.77-.03c-.07,0-.1.04-.1.1v.32c0,1.26,0,2.3.07,2.85.04.38.13.67.56.72.2.03.52.05.65.05.09,0,.11.04.11.08,0,.07-.07.11-.23.11-.79,0-1.7-.04-1.77-.04-.01,0-.92.04-1.35.04-.16,0-.23-.03-.23-.11,0-.04.03-.08.11-.08.13,0,.3-.03.43-.05.29-.05.36-.34.42-.72.07-.55.07-1.59.07-2.85v-2.31Zm1.15,1.14c0,.07.03.12.1.16.22.12.88.21,1.51.21.35,0,.75-.04,1.08-.25.5-.32.88-1.02.88-2.02,0-1.64-.95-2.63-2.49-2.63-.43,0-.82.04-.96.08-.07.03-.12.08-.12.16v4.29Z"/>
          <path class="cls-1" d="m169.74,37.06c-.2-.09-.22-.14-.22-.5,0-.66.06-1.18.07-1.39.01-.14.04-.21.12-.21.09,0,.1.04.1.14,0,.12,0,.3.04.49.22.97,1.16,1.34,2.13,1.34,1.38,0,2.06-.91,2.06-1.75,0-.91-.42-1.43-1.65-2.36l-.65-.49c-1.52-1.14-1.87-1.96-1.87-2.85,0-1.41,1.15-2.36,2.98-2.36.56,0,.98.05,1.34.13.27.05.39.07.5.07s.14.03.14.09-.06.5-.06,1.39c0,.21-.03.3-.1.3-.09,0-.1-.07-.11-.17-.01-.16-.1-.51-.19-.66-.09-.14-.47-.7-1.8-.7-.99,0-1.77.56-1.77,1.52,0,.75.37,1.22,1.75,2.21l.4.29c1.7,1.22,2.1,2.04,2.1,3.09,0,.54-.23,1.54-1.22,2.18-.62.39-1.39.55-2.17.55-.68,0-1.34-.09-1.93-.35Z"/>
          <path class="cls-1" d="m183.51,33.42c0,1.26,0,2.3.07,2.85.04.38.13.67.56.72.2.03.52.05.65.05.09,0,.11.04.11.08,0,.07-.07.11-.23.11-.79,0-1.7-.04-1.77-.04s-.98.04-1.41.04c-.16,0-.23-.03-.23-.11,0-.04.03-.08.11-.08.13,0,.3-.03.43-.05.29-.05.36-.34.42-.72.07-.55.07-1.59.07-2.85v-2.31c0-2.05,0-2.42-.03-2.84-.03-.45-.17-.67-.49-.74-.16-.04-.35-.05-.45-.05-.06,0-.11-.03-.11-.08,0-.08.07-.1.23-.1.47,0,1.38.04,1.45.04s.98-.04,1.41-.04c.16,0,.23.03.23.1,0,.05-.06.08-.11.08-.1,0-.19.01-.36.04-.39.07-.5.29-.53.75-.03.42-.03.79-.03,2.84v2.31Zm-1.34-7.8c0-.29.22-.68.73-.68.42,0,.75.25.75.64s-.3.71-.75.71c-.52,0-.73-.37-.73-.67Z"/>
          <path class="cls-1" d="m195.14,33.42c0,1.26,0,2.3.07,2.85.04.38.13.67.56.72.2.03.52.05.65.05.09,0,.11.04.11.08,0,.07-.07.11-.23.11-.79,0-1.7-.04-1.77-.04s-.98.04-1.41.04c-.16,0-.23-.03-.23-.11,0-.04.03-.08.11-.08.13,0,.3-.03.43-.05.29-.05.36-.34.42-.72.07-.55.07-1.59.07-2.85v-5.55l-2.13.03c-.89.01-1.24.1-1.47.42-.16.22-.2.32-.24.41-.04.11-.09.13-.14.13-.04,0-.07-.04-.07-.12,0-.13.29-1.26.32-1.37.03-.08.09-.25.14-.25.1,0,.24.13.63.16.42.04.96.07,1.14.07h5.39c.46,0,.79-.03,1.02-.07.22-.03.35-.07.4-.07.07,0,.07.08.07.16,0,.39-.04,1.3-.04,1.44,0,.12-.04.17-.1.17-.07,0-.1-.04-.11-.22v-.14c-.06-.39-.4-.7-1.78-.72l-1.81-.03v5.55Z"/>
          <path class="cls-1" d="m205.46,31.11c0-2.05,0-2.42-.03-2.84-.03-.45-.14-.66-.62-.75-.11-.03-.36-.04-.49-.04-.06,0-.11-.03-.11-.08,0-.08.07-.1.23-.1.33,0,.72,0,1.04.01l.59.03c.1,0,2.96,0,3.29-.01.27-.01.5-.04.62-.07.07-.01.13-.07.2-.07.04,0,.06.05.06.12,0,.09-.07.25-.12.62-.01.13-.04.71-.07.87-.01.07-.04.14-.1.14-.09,0-.12-.07-.12-.17,0-.09-.01-.31-.09-.47-.1-.21-.24-.37-1.02-.45-.24-.03-1.81-.04-1.97-.04-.06,0-.09.04-.09.13v3.62c0,.09.01.13.09.13.19,0,1.96,0,2.29-.03.34-.03.55-.05.68-.18.1-.11.16-.17.22-.17.04,0,.07.03.07.1s-.07.3-.11.74c-.03.26-.06.75-.06.84,0,.1,0,.25-.1.25-.07,0-.1-.05-.1-.12,0-.13,0-.26-.06-.43-.06-.18-.19-.41-.75-.46-.39-.04-1.81-.07-2.06-.07-.07,0-.1.04-.1.09v1.16c0,.45-.01,1.97,0,2.25.04.91.26,1.08,1.67,1.08.37,0,1.01,0,1.38-.14s.55-.41.65-.95c.03-.14.06-.2.13-.2.09,0,.09.1.09.2,0,.11-.11,1-.19,1.27-.1.34-.22.34-.78.34-1.08,0-1.87-.03-2.43-.04-.56-.03-.91-.04-1.12-.04-.03,0-.27,0-.57.01-.29,0-.62.03-.83.03-.16,0-.23-.03-.23-.11,0-.04.03-.08.11-.08.13,0,.3-.03.43-.05.29-.05.36-.34.42-.72.07-.55.07-1.59.07-2.85v-2.31Z"/>
          <path class="cls-1" d="m216.76,37.06c-.2-.09-.22-.14-.22-.5,0-.66.06-1.18.07-1.39.01-.14.04-.21.11-.21.09,0,.1.04.1.14,0,.12,0,.3.04.49.22.97,1.16,1.34,2.13,1.34,1.38,0,2.06-.91,2.06-1.75,0-.91-.42-1.43-1.65-2.36l-.65-.49c-1.52-1.14-1.87-1.96-1.87-2.85,0-1.41,1.15-2.36,2.98-2.36.56,0,.98.05,1.34.13.27.05.39.07.5.07s.14.03.14.09-.06.5-.06,1.39c0,.21-.03.3-.1.3-.09,0-.1-.07-.11-.17-.01-.16-.1-.51-.19-.66-.09-.14-.47-.7-1.8-.7-.99,0-1.77.56-1.77,1.52,0,.75.37,1.22,1.75,2.21l.4.29c1.7,1.22,2.1,2.04,2.1,3.09,0,.54-.23,1.54-1.22,2.18-.62.39-1.39.55-2.17.55-.68,0-1.34-.09-1.93-.35Z"/>
          <path class="cls-1" d="m230.53,33.42c0,1.26,0,2.3.07,2.85.04.38.13.67.56.72.2.03.52.05.65.05.09,0,.11.04.11.08,0,.07-.07.11-.23.11-.79,0-1.7-.04-1.77-.04s-.98.04-1.41.04c-.16,0-.23-.03-.23-.11,0-.04.03-.08.11-.08.13,0,.3-.03.43-.05.29-.05.36-.34.42-.72.07-.55.07-1.59.07-2.85v-2.31c0-2.05,0-2.42-.03-2.84-.03-.45-.17-.67-.49-.74-.16-.04-.35-.05-.45-.05-.06,0-.11-.03-.11-.08,0-.08.07-.1.23-.1.47,0,1.38.04,1.45.04s.98-.04,1.41-.04c.16,0,.23.03.23.1,0,.05-.06.08-.11.08-.1,0-.19.01-.36.04-.39.07-.5.29-.53.75-.03.42-.03.79-.03,2.84v2.31Zm-1.34-7.8c0-.29.22-.68.73-.68.42,0,.75.25.75.64s-.3.71-.75.71c-.52,0-.73-.37-.73-.67Z"/>
        </g>
      </g>
    </g>
  </g>
</svg>