<?xml version="1.0" encoding="UTF-8"?>
<svg id="katman_2" data-name="katman 2" xmlns="http://www.w3.org/2000/svg" viewBox="0 0 295.84 170.8">
  <defs>
    <style>
      .cls-1 {
        fill: #003865;
      }

      .cls-2 {
        fill: none;
      }

      .cls-3 {
        fill: #004a83;
      }

      .cls-4 {
        fill: #043e74;
      }

      .cls-5 {
        fill: #266fa8;
      }
    </style>
  </defs>
  <g id="katman_2-2" data-name="katman 2">
    <g id="katman_1" data-name="katman 1">
      <polygon class="cls-5" points="246.53 170.8 197.23 170.8 221.88 128.1 246.53 85.4 271.18 128.1 295.84 170.8 246.53 170.8"/>
      <polygon class="cls-5" points="49.31 170.8 0 170.8 24.65 128.1 49.31 85.4 73.96 128.1 98.61 170.8 49.31 170.8"/>
      <polygon class="cls-4" points="197.26 85.4 147.96 85.4 172.61 42.7 197.26 0 221.92 42.7 246.57 85.4 197.26 85.4"/>
      <polygon class="cls-1" points="246.57 85.4 221.91 128.1 197.26 170.8 182.27 144.85 176.56 134.94 172.6 128.1 147.95 85.4 246.57 85.4"/>
      <polygon class="cls-1" points="147.92 85.4 123.27 128.1 119.32 134.94 113.6 144.85 98.61 170.8 73.96 128.1 49.3 85.4 147.92 85.4"/>
      <polygon class="cls-5" points="140.98 151.86 140.98 170.8 112.3 170.8 123.23 151.86 140.98 151.86"/>
      <polygon class="cls-5" points="183.68 170.8 155 170.8 155 151.86 172.75 151.86 183.68 170.8"/>
      <polygon class="cls-3" points="164.65 137.83 131.33 137.83 147.99 108.98 164.65 137.83"/>
      <polygon class="cls-1" points="170.41 147.82 125.57 147.82 128.99 141.87 166.98 141.87 170.41 147.82"/>
      <rect class="cls-1" x="145.02" y="147.82" width="5.94" height="22.99"/>
      <line class="cls-2" x1="131.33" y1="168.74" x2="130.15" y2="170.8"/>
      <polygon class="cls-4" points="98.61 85.4 49.47 85.4 74.04 42.84 98.61 .29 123.18 42.84 147.75 85.4 98.61 85.4"/>
    </g>
  </g>
</svg>