<?xml version="1.0" encoding="UTF-8"?>
<svg id="katman_2" data-name="katman 2" xmlns="http://www.w3.org/2000/svg" viewBox="0 0 241.41 201.62">
  <defs>
    <style>
      .cls-1 {
        fill: #fff;
      }
    </style>
  </defs>
  <g id="katman_2-2" data-name="katman 2">
    <g id="katman_1" data-name="katman 1">
      <g>
        <path class="cls-1" d="m222.57,89.16c-17.18,1.45-34.35,2.9-51.53,4.34-4.13.35-8.31.56-12.42,1.07-1.39.17-2.77.46-4.16.7-.21-1.79-.65-3.58-1.62-4.96,7.28-15.37,14.83-30.61,22.6-45.76,7.13-13.91,14.39-27.75,21.67-41.59,1.18-2.24-2.22-4.23-3.4-1.99-15,28.51-29.82,57.12-43.7,86.17,0,0,0,0,0,0-.28.28-.57.55-.86.82-2.99-.4-5.64,2.34-6.2,5.54-3.48,2.83-7.18,5.36-11.22,7.36-2.93,1.45-6.31,2.93-9.65,2.84-3.98-.11-5.54-3.27-5.98-6.8-.8-6.45-.47-14.19-4.37-19.76-1.56-2.24-3.98-3.7-6.76-3.46-3.31.28-6.04,2.93-8.49,4.92-6.03,4.88-11.52,10.36-17.23,15.6-1.15,1.05-2.87,3.25-4.58,3.28-2.39.04-2.97-3.21-3.09-4.93-.26-3.81-.21-7.56-.8-11.35-.8-5.11-2.54-14.24-9.83-12.3-3.09.82-5.92,3.22-8.36,5.18-2.52,2.02-4.84,4.27-6.98,6.68-4.46,5.04-8.09,10.66-11.27,16.54.09-.66.19-1.31.26-1.98.72-6.79.66-16.16-4.25-21.56-5-5.49-12.99-3.29-17.91,1.01-5.74,5-9.76,12.2-12.31,19.28-.86,2.39,2.94,3.42,3.8,1.05,2.19-6.07,5.59-11.96,10.2-16.52,4.36-4.31,11.82-6.52,14.92.38,2.71,6.04,2.21,13.73,1.08,20.07-1.22,6.82-3.48,13.41-5.76,19.93-.03.08-.01.15-.03.24-.09.21-.17.42-.26.62-.96,2.34,2.84,3.36,3.8,1.05,5.05-12.29,10.34-24.96,18.83-35.34,2.04-2.5,4.26-4.85,6.68-6.99,2.26-2.01,5.58-5.2,8.62-5.85,3.81-.8,4.42,6.21,4.84,8.65.67,3.89.53,7.74.84,11.64.48,6.12,5.7,11,11.4,6.61,5.95-4.58,11.05-10.37,16.72-15.29,1.49-1.29,3-2.55,4.54-3.78,1.39-1.11,3.05-2.71,4.9-2.89,3.58-.36,4.71,4.59,5.33,7.24.87,3.7,1.16,7.41,1.51,11.18.27,2.93.78,5.97,2.72,8.3,4.66,5.58,12.65,2.88,18.15.28,3.92-1.85,7.55-4.21,10.97-6.86.23.24.48.46.76.65-8.12,17.41-15.89,34.98-23.08,52.82-6.26,15.55-12.12,31.26-17.58,47.11-.14.41-.11.76-.02,1.08-.09,1.57,1.91,3.02,3.31,1.58,11.96-12.3,21.05-26.76,29.29-41.72,7.53-13.68,13.24-28.15,16.24-43.52,1.06-5.43,1.89-11.04,1.82-16.59.92-.14,1.77-.29,2.45-.42,4.89-.88,9.96-1.01,14.91-1.42,5.51-.46,11.02-.93,16.53-1.39,11.34-.96,22.69-1.91,34.03-2.87,2.51-.21,2.53-4.15,0-3.94Zm-72.05,6.08c.03.14.05.29.08.43-.09,0-.19,0-.28,0,.07-.15.14-.3.21-.44Zm.16,6.78c-.24,5.41-1.16,10.79-2.34,16.07-3.05,13.7-8.19,26.58-14.94,38.86-6.68,12.14-13.9,23.94-22.8,34.51,11.11-31.28,23.93-61.83,37.89-91.89.74.06,1.51.07,2.29.03-.02.84-.07,1.66-.1,2.41Z"/>
        <path class="cls-1" d="m241.15,90.33c-.26-.4-.68-.83-1.18-.9-.99-.15-1.97-.23-2.96-.11-1,.12-1.95.31-2.89.69-.49.2-.9.43-1.18.9-.25.42-.35,1.04-.2,1.52.15.48.45.94.9,1.18.44.23,1.04.39,1.52.2.63-.26,1.29-.43,1.97-.55.71-.07,1.43-.08,2.14.02-.11-.01-.22-.03-.33-.04.53.08,1.01.08,1.49-.2.41-.24.8-.71.9-1.18.11-.5.09-1.07-.2-1.52Z"/>
      </g>
    </g>
  </g>
</svg>