<svg xmlns="http://www.w3.org/2000/svg" xmlns:xlink="http://www.w3.org/1999/xlink" width="400" zoomAndPan="magnify" viewBox="0 0 300 299.999988" height="400" preserveAspectRatio="xMidYMid meet" version="1.0"><defs><clipPath id="594bd575e1"><path d="M 58.664062 58.664062 L 241.664062 58.664062 L 241.664062 241.664062 L 58.664062 241.664062 Z M 58.664062 58.664062 " clip-rule="nonzero"/></clipPath><clipPath id="4f67d5dfcd"><path d="M 5.578125 5.578125 L 294.328125 5.578125 L 294.328125 294.328125 L 5.578125 294.328125 Z M 5.578125 5.578125 " clip-rule="nonzero"/></clipPath></defs><g clip-path="url(#594bd575e1)"><path fill="#043e74" d="M 110.511719 58.664062 L 189.820312 58.664062 C 220.964844 58.664062 241.664062 80.894531 241.664062 112.800781 L 241.664062 187.527344 C 241.664062 219.433594 220.964844 241.664062 189.808594 241.664062 L 110.511719 241.664062 C 79.363281 241.664062 58.664062 219.433594 58.664062 187.527344 L 58.664062 112.800781 C 58.664062 80.921875 79.410156 58.664062 110.511719 58.664062 Z M 189.820312 72.417969 L 110.511719 72.417969 C 87.230469 72.417969 72.417969 88.3125 72.417969 112.800781 L 72.417969 187.527344 C 72.417969 194.34375 73.558594 200.492188 75.710938 205.816406 L 86.234375 193.039062 L 90.882812 187.308594 C 102.585938 172.808594 113.316406 166.542969 127.367188 172.429688 C 129.5 173.324219 131.328125 174.292969 133.664062 175.734375 L 139.707031 179.632812 C 145.742188 183.460938 148.617188 184.007812 153.035156 181.617188 C 156.957031 179.492188 159.710938 176.523438 163.894531 170.082031 L 166.644531 165.710938 L 168.511719 162.710938 C 170.191406 160.058594 171.386719 158.316406 172.851562 156.417969 C 182.535156 143.886719 197.632812 139.808594 210.832031 147.746094 C 216.546875 151.191406 220.699219 154.609375 227.910156 161.492188 L 227.910156 112.800781 C 227.910156 88.28125 213.140625 72.417969 189.820312 72.417969 Z M 227.910156 180.492188 L 227.460938 180.09375 C 226.507812 179.214844 225.488281 178.253906 224.265625 177.082031 L 217.867188 170.921875 C 211.730469 165.09375 208.21875 162.230469 203.734375 159.53125 C 196.957031 155.449219 189.40625 157.492188 183.738281 164.828125 L 182.59375 166.371094 C 182.210938 166.902344 181.824219 167.46875 181.40625 168.097656 L 177.824219 173.78125 C 171.070312 184.726562 166.96875 189.714844 159.582031 193.710938 C 150.484375 198.640625 143.070312 197.617188 134.054688 192.296875 L 130.046875 189.761719 L 126.675781 187.585938 C 124.804688 186.425781 123.46875 185.707031 122.050781 185.113281 C 115.914062 182.542969 110.464844 185.386719 102.9375 194.308594 L 86.410156 214.5 C 85.515625 215.582031 84.59375 216.695312 83.636719 217.851562 C 90.195312 224.296875 99.378906 227.910156 110.511719 227.910156 L 189.808594 227.910156 C 213.140625 227.910156 227.910156 212.046875 227.910156 187.527344 Z M 97.746094 120.882812 C 97.746094 107.742188 108.40625 97.078125 121.539062 97.078125 C 134.683594 97.078125 145.34375 107.742188 145.34375 120.882812 C 145.34375 134.023438 134.683594 144.6875 121.539062 144.6875 C 108.40625 144.6875 97.746094 134.023438 97.746094 120.882812 Z M 131.589844 120.882812 C 131.589844 115.335938 127.085938 110.832031 121.539062 110.832031 C 116.003906 110.832031 111.5 115.335938 111.5 120.882812 C 111.5 126.425781 116.003906 130.933594 121.539062 130.933594 C 127.085938 130.933594 131.589844 126.429688 131.589844 120.882812 Z M 131.589844 120.882812 " fill-opacity="1" fill-rule="evenodd"/></g><path stroke-linecap="butt" transform="matrix(0.118876, 0, 0, 0.118876, 5.579125, 5.579119)" fill-opacity="1" fill="#ff0000" fill-rule="nonzero" stroke-linejoin="miter" d="M 666.455082 1782.309942 C 659.751672 1788.290435 658.831596 1790.689204 653.015403 1796.899716 C 658.634437 1791.477841 662.47904 1787.896117 666.225063 1784.150094 C 667.638036 1782.73712 669.773927 1780.141192 669.905366 1779.746874 C 669.971086 1779.418275 668.032355 1780.929829 666.455082 1782.309942 Z M 666.455082 1782.309942 " stroke="#ffffff" stroke-width="1" stroke-opacity="1" stroke-miterlimit="10"/><path stroke-linecap="butt" transform="matrix(0.118876, 0, 0, 0.118876, 5.579125, 5.579119)" fill-opacity="1" fill="#ff0000" fill-rule="nonzero" stroke-linejoin="miter" d="M 693.104421 1716.163063 C 686.433871 1722.702173 679.763321 1729.208424 673.059912 1735.714674 C 673.059912 1735.911833 673.027052 1736.076132 673.027052 1736.240432 C 679.697602 1729.668461 686.401011 1723.129351 693.071561 1716.557381 C 693.071561 1716.425942 693.104421 1716.294502 693.104421 1716.163063 Z M 693.104421 1716.163063 " stroke="#ffffff" stroke-width="1" stroke-opacity="1" stroke-miterlimit="10"/><path stroke-linecap="butt" transform="matrix(0.118876, 0, 0, 0.118876, 5.579125, 5.579119)" fill-opacity="1" fill="#ff0000" fill-rule="nonzero" stroke-linejoin="miter" d="M 725.372794 1681.890239 L 710.81588 1696.545732 C 710.94732 1696.578592 711.045899 1696.644311 711.177339 1696.677171 L 725.701393 1682.021678 C 725.602813 1681.955958 725.471374 1681.923098 725.372794 1681.890239 Z M 725.372794 1681.890239 " stroke="#ffffff" stroke-width="1" stroke-opacity="1" stroke-miterlimit="10"/><path stroke-linecap="butt" transform="matrix(0.118876, 0, 0, 0.118876, 5.579125, 5.579119)" fill-opacity="1" fill="#ff0000" fill-rule="nonzero" stroke-linejoin="miter" d="M 678.580367 1751.421683 C 673.125632 1756.744978 667.703756 1762.068274 662.249021 1767.42443 C 662.249021 1767.555869 662.216161 1767.720169 662.216161 1767.884468 C 667.670896 1762.561172 673.092772 1757.270736 678.547507 1751.9803 C 678.547507 1751.783141 678.580367 1751.618842 678.580367 1751.421683 Z M 678.580367 1751.421683 " stroke="#ffffff" stroke-width="1" stroke-opacity="1" stroke-miterlimit="10"/><path stroke-linecap="butt" transform="matrix(0.118876, 0, 0, 0.118876, 5.579125, 5.579119)" fill-opacity="1" fill="#ff0000" fill-rule="nonzero" stroke-linejoin="miter" d="M 803.809258 1594.713055 C 808.212478 1590.178395 812.615698 1585.643736 817.051778 1581.109076 C 812.549978 1585.643736 808.081038 1590.178395 803.579239 1594.680195 C 803.644959 1594.680195 803.743538 1594.680195 803.809258 1594.680195 Z M 803.809258 1594.713055 " stroke="#ffffff" stroke-width="1" stroke-opacity="1" stroke-miterlimit="10"/><path stroke-linecap="butt" transform="matrix(0.118876, 0, 0, 0.118876, 5.579125, 5.579119)" fill-opacity="1" fill="#ff0000" fill-rule="nonzero" stroke-linejoin="miter" d="M 817.183217 1580.977637 C 817.183217 1580.977637 817.216077 1580.944777 817.216077 1580.944777 C 817.150357 1581.010497 817.084637 1581.076217 817.051778 1581.109076 L 817.183217 1581.010497 Z M 817.183217 1580.977637 " stroke="#ffffff" stroke-width="1" stroke-opacity="1" stroke-miterlimit="10"/><path stroke-linecap="butt" transform="matrix(0.118876, 0, 0, 0.118876, 5.579125, 5.579119)" fill-opacity="1" fill="#ff0000" fill-rule="nonzero" stroke-linejoin="miter" d="M 702.962376 1698.090145 L 695.798929 1705.319312 C 695.963228 1705.220733 696.094667 1705.122153 696.258966 1705.023573 L 703.093815 1698.155865 C 703.093815 1698.155865 702.995236 1698.123005 702.962376 1698.090145 Z M 702.962376 1698.090145 " stroke="#ffffff" stroke-width="1" stroke-opacity="1" stroke-miterlimit="10"/><path stroke-linecap="butt" transform="matrix(0.118876, 0, 0, 0.118876, 5.579125, 5.579119)" fill-opacity="1" fill="#ff0000" fill-rule="nonzero" stroke-linejoin="miter" d="M 1776.526558 1760.75388 C 1767.490099 1752.177459 1763.185459 1746.985603 1758.815099 1741.530868 C 1760.983849 1743.10814 1762.88972 1744.521114 1765.781387 1746.657004 C 1760.819549 1741.925186 1756.580629 1738.113443 1755.233375 1736.53617 C 1747.839908 1727.959749 1738.409131 1718.561832 1728.846915 1708.901036 C 1732.198619 1711.234085 1735.944642 1714.52007 1740.052124 1718.726131 C 1749.74578 1728.649806 1759.472296 1738.606341 1768.607334 1747.905679 C 1771.367562 1749.77869 1773.273433 1751.093084 1775.212164 1752.374618 C 1767.555819 1744.126796 1760.293792 1737.193367 1753.196064 1731.344314 C 1749.450041 1726.678215 1746.394075 1722.833613 1741.727976 1717.050279 C 1761.115288 1735.681814 1776.427979 1752.440338 1792.857904 1768.443085 C 1789.703358 1763.382668 1780.634039 1754.707668 1773.339153 1747.281341 C 1762.92258 1736.63475 1762.133943 1735.747534 1762.298243 1733.743083 C 1771.76188 1744.225375 1774.554967 1747.182762 1779.286786 1751.750281 C 1778.39957 1750.173008 1777.512354 1748.497156 1776.296539 1746.295546 C 1767.26008 1737.127648 1758.059322 1727.86117 1747.182711 1716.85312 C 1746.426935 1716.031623 1743.272389 1712.055581 1741.629397 1710.544028 C 1732.724377 1702.329066 1729.142653 1697.465808 1723.786498 1691.485315 C 1720.303354 1687.574993 1716.820209 1683.598951 1712.877027 1679.42575 C 1695.001268 1660.498476 1676.402593 1641.406902 1657.015281 1622.21675 C 1652.644921 1617.912109 1648.241701 1613.541749 1643.937061 1609.171389 C 1618.174938 1582.982088 1592.511394 1556.759927 1566.617832 1530.570626 C 1536.386769 1499.978105 1506.024267 1469.418444 1475.694625 1438.858783 C 1453.185627 1416.152626 1430.709489 1393.380749 1408.069052 1370.806032 C 1363.839693 1326.642393 1319.511755 1282.643053 1275.249536 1238.545133 C 1268.151808 1231.480265 1261.02122 1224.415397 1253.923493 1217.350529 C 1296.476999 1174.797023 1339.030506 1132.276376 1381.584013 1089.722869 C 1402.910056 1068.396826 1424.268959 1047.070783 1445.660721 1025.876179 C 1469.681272 1002.085647 1493.833263 978.525134 1517.755234 954.636023 C 1562.60893 909.913766 1607.396907 864.99435 1652.152023 820.140654 C 1666.938956 805.353721 1681.693029 790.435349 1696.282803 775.582696 C 1721.486308 749.886293 1746.591234 724.15703 1771.69616 698.427767 C 1774.062069 696.028998 1776.1651 693.630229 1777.939532 691.757217 C 1776.855157 691.855797 1774.587827 693.30163 1775.376463 691.822937 C 1778.038111 686.82824 1782.178452 680.486289 1782.999949 677.200303 C 1784.445782 671.515549 1789.30904 662.51195 1787.00885 660.44178 C 1785.661597 659.225965 1783.657146 658.667348 1782.63849 657.155795 C 1781.061217 654.822745 1779.878263 652.128237 1778.958187 649.137991 C 1778.596729 647.889317 1778.925327 645.917726 1779.648244 643.584676 C 1780.699759 640.200112 1784.741521 633.825301 1778.563869 637.604183 C 1772.813395 641.120187 1770.316046 641.284487 1770.283186 638.918577 C 1770.283186 638.622839 1769.757429 638.819998 1768.935933 639.345755 C 1765.15705 641.941684 1766.767182 639.444335 1773.240573 632.182308 C 1767.720118 637.571324 1764.105535 641.087328 1760.819549 644.274733 C 1758.322201 645.391968 1755.660553 646.870661 1754.11614 647.19926 C 1752.604587 647.494998 1748.825704 650.649544 1743.14095 656.202859 C 1733.578733 665.535057 1723.819358 675.064413 1714.4543 684.56091 C 1635.853537 764.246048 1556.727017 843.471148 1477.041879 922.20335 C 1458.706082 940.341988 1440.304566 958.316326 1422.001629 976.487824 C 1403.271514 995.086499 1384.607119 1013.783754 1365.877004 1032.448149 C 1355.000393 1043.2919 1344.090923 1054.102791 1333.214312 1064.946542 C 1317.967342 1080.094933 1302.687511 1095.210464 1287.4734 1110.424575 C 1267.067433 1130.830542 1246.727185 1151.335089 1226.288358 1171.708197 C 1223.265252 1174.731303 1220.242146 1177.721549 1217.251899 1180.711796 C 1174.796972 1138.256869 1132.342045 1095.834801 1089.919978 1053.379874 C 1068.593935 1032.053831 1047.267892 1010.694928 1026.073288 989.303165 C 1002.282756 965.282615 978.722243 941.130624 954.865991 917.208653 C 910.110875 872.322097 865.191459 827.56698 820.337763 782.779004 C 805.55083 768.024931 790.632458 753.237998 775.779805 738.681084 C 750.083402 713.444719 724.354139 688.372653 698.624876 663.234867 C 696.226107 660.901818 693.827337 658.765927 691.954326 657.024355 C 692.085765 658.07587 693.498739 660.37606 692.020046 659.587424 C 687.025348 656.925776 680.683397 652.785434 677.397412 651.963938 C 671.712658 650.485245 662.709059 645.621987 660.638888 647.922177 C 659.423074 649.26943 658.864456 651.273881 657.352903 652.325397 C 655.019854 653.86981 652.325346 655.085624 649.3351 655.97284 C 648.086425 656.367158 646.114834 656.03856 643.781785 655.315643 C 640.39722 654.264128 634.055269 650.189506 637.801292 656.367158 C 641.317296 662.150492 641.481595 664.647841 639.115686 664.647841 C 638.819947 664.647841 639.017107 665.173598 639.575724 665.995094 C 642.171652 669.773977 639.641444 668.163845 632.379417 661.690454 C 637.768432 667.210909 641.317296 670.858352 644.504702 674.144337 C 645.589077 676.608826 647.06777 679.270474 647.396368 680.814887 C 647.724967 682.32644 650.846653 686.138183 656.399968 691.790077 C 665.765025 701.352294 675.261522 711.111669 684.758019 720.476727 C 764.443157 799.11035 843.668257 878.20401 922.400459 957.889148 C 940.539097 976.224945 958.546295 994.626461 976.684932 1012.929398 C 995.283608 1031.659513 1014.013723 1050.323908 1032.645258 1069.054023 C 1043.521869 1079.930634 1054.332759 1090.840104 1065.14365 1101.749574 C 1080.324901 1116.996545 1095.440433 1132.276376 1110.621684 1147.457627 C 1131.027651 1167.896454 1151.565058 1188.203842 1171.938165 1208.642669 C 1174.764112 1211.501476 1177.622919 1214.360283 1180.448866 1217.21909 C 1168.225002 1229.344375 1156.033997 1241.4368 1143.875853 1253.594945 C 1107.302839 1290.135099 1070.828405 1326.773832 1034.35397 1363.412566 C 993.969214 1403.961621 953.683037 1444.576397 913.199701 1484.994013 C 891.972237 1506.188617 871.139092 1527.777539 849.51731 1548.709264 C 844.654052 1553.408222 839.166457 1559.191556 834.664658 1564.054814 C 828.224127 1570.955383 822.867971 1575.785781 817.216077 1580.944777 L 817.216077 1580.911917 C 814.25869 1584.165043 811.465603 1587.385308 808.311057 1590.605573 C 795.002818 1604.143832 781.563139 1617.64923 768.18918 1631.154629 C 765.626111 1633.750557 762.504425 1636.773664 760.631414 1638.876694 C 754.618061 1645.645823 749.097606 1652.053494 742.919954 1659.118362 C 749.064746 1653.893646 760.105656 1641.735501 763.7531 1640.388247 C 758.035486 1646.27016 752.77791 1651.724896 747.783212 1656.883892 C 747.060296 1658.395445 746.501678 1659.5784 745.975921 1660.662775 C 741.375541 1665.558893 737.432359 1669.797813 731.714745 1675.942606 C 739.141072 1668.943457 740.356886 1667.826222 743.97147 1665.098855 L 708.67999 1700.718933 C 708.67999 1700.718933 708.74571 1700.784653 708.77857 1700.817513 C 712.228854 1697.564387 715.646278 1694.311262 721.692491 1688.560788 C 716.467775 1694.311262 713.773267 1697.498668 710.8816 1700.390334 C 702.338039 1708.901036 693.728758 1717.313158 685.152337 1725.725279 C 674.571465 1736.076132 664.023453 1746.394125 651.53671 1758.58513 C 654.198358 1756.252081 654.954134 1755.627743 655.742771 1754.904827 C 681.044856 1730.06278 706.346941 1705.220733 731.649026 1680.345826 C 736.117965 1675.942606 740.849784 1670.915048 746.271659 1666.676128 C 730.038893 1683.76325 714.331884 1698.747342 699.249213 1713.797154 C 683.936522 1729.076984 668.492393 1744.093936 651.175251 1761.115339 C 662.840498 1751.290243 673.51995 1741.432288 685.579515 1729.274143 C 687.419667 1727.401132 689.456977 1725.65956 691.395709 1723.885128 C 691.297129 1724.115147 691.16569 1724.378025 691.06711 1724.608044 L 653.015403 1762.364013 C 652.982543 1762.561172 652.916823 1762.791191 652.883964 1763.02121 C 669.445328 1747.182762 686.006693 1731.311454 702.568058 1715.473006 L 702.765217 1715.867324 C 698.986334 1719.843366 695.174591 1723.819408 691.625727 1727.565431 C 690.935671 1728.748386 690.245614 1729.93134 689.588417 1731.081435 C 666.159343 1753.228974 664.154892 1755.266285 661.986142 1759.340907 C 682.786428 1738.967799 703.323834 1718.824711 725.734253 1696.87433 C 719.852339 1704.267797 711.965975 1710.971206 706.346941 1717.214578 L 707.924213 1717.773195 L 691.06711 1734.794598 C 698.690595 1727.631151 705.985482 1720.401984 713.214649 1713.107097 C 723.729802 1702.591944 728.264461 1698.320164 732.86484 1694.80416 L 693.400159 1734.597439 C 693.3673 1734.794598 693.33444 1735.024617 693.30158 1735.254636 C 697.836239 1730.917136 702.370899 1726.612495 707.727054 1721.486359 C 703.981031 1726.382476 698.033398 1731.902931 693.465879 1736.733329 C 691.329989 1738.934939 688.044004 1742.450943 687.813985 1742.910981 C 687.025348 1744.783993 683.082166 1748.562876 679.106124 1752.473198 C 676.247317 1755.299145 673.42137 1758.157952 669.01815 1762.561172 C 672.599874 1760.063823 675.918719 1757.435035 681.242015 1752.07888 C 687.945424 1745.37547 691.428568 1742.713822 694.845993 1740.117894 C 693.925917 1741.728027 693.203 1743.009561 692.184345 1744.849712 C 699.479232 1737.554826 705.328285 1731.738632 711.210198 1725.889579 C 711.045899 1725.100942 710.91446 1724.575185 710.81588 1724.115147 C 707.759914 1726.678215 705.032547 1728.978405 701.319383 1732.067231 C 716.106316 1716.85312 720.772415 1712.942797 719.523741 1716.491661 C 719.096563 1717.707476 718.603665 1718.98901 718.012188 1720.599143 C 701.253664 1737.127648 684.265121 1753.886171 665.140688 1772.747726 C 683.772223 1756.3178 702.403759 1736.174712 721.101014 1719.120449 C 714.233305 1726.579635 705.525444 1734.794598 704.802528 1737.259087 C 708.844289 1734.071681 717.354991 1724.378025 720.312377 1723.162211 C 710.585861 1732.987306 701.023645 1742.943841 691.757167 1751.881721 C 683.410765 1759.965244 677.660291 1765.978596 672.106976 1772.484847 C 675.55726 1769.56032 681.702053 1762.561172 683.213606 1762.528312 C 673.55281 1772.714866 661.361805 1783.690056 651.076672 1795.848201 C 662.5119 1784.90587 671.942677 1775.869412 681.932072 1766.274335 C 678.843246 1770.283237 676.543056 1773.306343 674.210007 1776.329449 C 682.786428 1767.29299 687.978284 1762.98835 693.433019 1758.61799 C 691.855746 1760.78674 690.442773 1762.692611 688.306883 1765.584278 C 693.038701 1760.622441 696.850444 1756.38352 698.427717 1755.036266 C 707.004138 1747.6428 716.402055 1738.212023 726.062851 1728.682666 C 723.696942 1732.001511 720.410957 1735.747534 716.204896 1739.855015 C 706.281221 1749.548671 696.357546 1759.275187 687.025348 1768.410225 C 685.152337 1771.170453 683.870803 1773.076324 682.556409 1775.015055 C 690.804231 1767.35871 697.73766 1760.129543 703.586713 1752.998955 C 708.252812 1749.285792 712.097414 1746.196966 717.913608 1741.530868 C 699.282073 1760.918179 682.523549 1776.23087 666.487942 1792.693655 C 671.581219 1789.50625 680.223359 1780.469791 687.682545 1773.142044 C 698.296277 1762.725471 699.216353 1761.936835 701.187944 1762.101134 C 690.738512 1771.564771 687.781125 1774.357858 683.180746 1779.089677 C 684.790879 1778.235321 686.466731 1777.315245 688.668341 1776.13229 C 697.803379 1767.062972 707.102717 1757.862213 718.077907 1746.985603 C 718.932263 1746.262686 722.908305 1743.075281 724.386999 1741.465148 C 732.634821 1732.560128 737.465219 1728.945545 743.478572 1723.589389 C 747.388894 1720.106245 751.332076 1716.655961 755.505277 1712.712778 C 774.465411 1694.80416 793.556984 1676.205484 812.714277 1656.818172 C 817.018918 1652.447812 821.422138 1648.044592 825.792498 1643.772812 C 851.981799 1617.977829 878.20396 1592.314286 904.393261 1566.453583 C 934.985782 1536.22252 965.512583 1505.827159 996.105104 1475.497516 C 1018.778401 1452.988519 1041.583137 1430.512381 1064.157855 1407.904803 C 1108.288634 1363.675444 1152.320834 1319.314646 1196.385894 1275.052427 C 1203.286463 1268.086139 1210.219891 1261.15271 1217.12046 1254.219282 C 1229.344324 1266.541726 1241.535329 1278.83131 1253.824913 1291.120894 C 1290.332207 1327.661048 1327.003801 1364.135482 1363.609674 1400.609917 C 1404.15873 1440.994673 1444.806365 1481.28085 1485.223982 1521.764186 C 1506.418585 1543.024509 1527.974647 1563.824795 1548.906372 1585.446577 C 1553.605331 1590.342694 1559.388665 1595.79743 1564.251923 1600.332089 C 1571.152491 1606.73976 1575.982889 1612.095916 1581.141886 1617.78067 L 1581.109026 1617.74781 C 1584.362151 1620.705197 1587.615276 1623.498284 1590.835542 1626.65283 C 1604.34094 1639.993929 1617.846339 1653.400748 1631.351738 1666.774707 C 1633.947666 1669.370635 1636.970772 1672.459461 1639.073803 1674.332473 C 1645.842932 1680.345826 1652.250603 1685.86628 1659.315471 1692.043932 C 1654.090754 1685.932 1641.965469 1674.85823 1640.585356 1671.210787 C 1646.467269 1676.928401 1651.922004 1682.185977 1657.113861 1687.180674 C 1658.592554 1687.903591 1659.775509 1688.495069 1660.859884 1688.987966 C 1665.756001 1693.588345 1669.994922 1697.564387 1676.139714 1703.282001 C 1669.140566 1695.855675 1668.056191 1694.607001 1665.295963 1690.992417 L 1700.916042 1726.283897 C 1700.916042 1726.283897 1700.981761 1726.218177 1701.014621 1726.185317 C 1697.761496 1722.735033 1694.508371 1719.317608 1688.757897 1713.271396 C 1694.508371 1718.496112 1697.695776 1721.19062 1700.587443 1724.082287 C 1709.098144 1732.625848 1717.510266 1741.235129 1725.922388 1749.84441 C 1736.273241 1760.392422 1746.591234 1770.973294 1758.815099 1783.427177 C 1756.449189 1780.765529 1755.824852 1780.009753 1755.101935 1779.221116 C 1730.259888 1753.919031 1705.417841 1728.616946 1680.575794 1703.314861 C 1676.139714 1698.845921 1671.112157 1694.114103 1666.906096 1688.692228 C 1683.960359 1704.924994 1698.944451 1720.632003 1713.994262 1735.714674 C 1729.274093 1751.027364 1744.291045 1766.504354 1761.312447 1783.788636 C 1751.487352 1772.123389 1741.629397 1761.476797 1729.471252 1749.384372 C 1727.59824 1747.54422 1725.856668 1745.506909 1724.082236 1743.568178 C 1724.312255 1743.699618 1724.575134 1743.798197 1724.805153 1743.896777 L 1762.561122 1781.981344 C 1762.758281 1782.014204 1762.9883 1782.047063 1763.218319 1782.079923 C 1747.37987 1765.518559 1731.508563 1748.957194 1715.670115 1732.395829 L 1716.064433 1732.19867 C 1720.040475 1736.010413 1724.016517 1739.822155 1727.76254 1743.371019 C 1728.945494 1744.061076 1730.128449 1744.718273 1731.278544 1745.40833 C 1753.426083 1768.804544 1755.496254 1770.808995 1759.538015 1772.977745 C 1739.164908 1752.177459 1719.054679 1731.640052 1697.071439 1709.229634 C 1704.464905 1715.144407 1711.168315 1722.997912 1717.411687 1728.649806 L 1717.970304 1727.039673 L 1734.991707 1743.929637 C 1727.828259 1736.273291 1720.599092 1729.011264 1713.304205 1721.749237 C 1702.789053 1711.266945 1698.517273 1706.732286 1695.001268 1702.131907 L 1734.794548 1741.563727 C 1735.024567 1741.596587 1735.221726 1741.629447 1735.451745 1741.695167 C 1731.114244 1737.160507 1726.809604 1732.625848 1721.683467 1727.269692 C 1726.579585 1731.015715 1732.10004 1736.963348 1736.930438 1741.530868 C 1739.132048 1743.633898 1742.648052 1746.952743 1743.10809 1747.149902 C 1745.013961 1747.938538 1748.759984 1751.91458 1752.670306 1755.857762 C 1755.496254 1758.716569 1758.355061 1761.575376 1762.758281 1765.978596 C 1760.260932 1762.364013 1757.632144 1759.078028 1752.275988 1753.754732 C 1745.572579 1747.018463 1742.910931 1743.568178 1740.315003 1740.150754 C 1741.925135 1741.07083 1743.206669 1741.793746 1745.046821 1742.812402 C 1737.751934 1735.484655 1731.935741 1729.668461 1726.086687 1723.753688 C 1725.298051 1723.950847 1724.772293 1724.049427 1724.345115 1724.148007 C 1726.875324 1727.203973 1729.175513 1729.9642 1732.264339 1733.644503 C 1717.083088 1718.89043 1713.172766 1714.224332 1716.68877 1715.473006 C 1717.937444 1715.900184 1719.186119 1716.393082 1720.796251 1716.984559 C 1737.324756 1733.743083 1754.11614 1750.731626 1772.944834 1769.823199 C 1756.514909 1751.224524 1736.371821 1732.592988 1719.317558 1713.895733 C 1726.809604 1720.763442 1735.024567 1729.471302 1737.456196 1730.194219 C 1734.26879 1726.119598 1724.575134 1717.608896 1723.35932 1714.65151 C 1733.184415 1724.410885 1743.14095 1733.973102 1752.078829 1743.20672 C 1760.162352 1751.585982 1766.175705 1757.336456 1772.681956 1762.889771 C 1769.757429 1759.439486 1762.758281 1753.261834 1762.725421 1751.783141 C 1772.944834 1761.411077 1783.887165 1773.634942 1796.045309 1783.887215 C 1785.102979 1772.484847 1776.06652 1763.05407 1766.504304 1753.064675 C 1770.513205 1756.120641 1773.536312 1758.453691 1776.526558 1760.75388 Z M 717.026392 1728.124048 C 718.209347 1728.025469 715.744858 1731.081435 709.600066 1737.357667 C 712.557452 1733.677363 714.430464 1731.344314 717.026392 1728.124048 Z M 697.409061 1755.266285 C 707.431316 1744.159656 709.205748 1742.418084 722.053949 1730.489958 C 714.759062 1738.8035 707.464176 1745.506909 697.409061 1755.266285 Z M 722.875445 1709.393934 C 718.406506 1712.877078 715.054801 1715.440146 711.210198 1718.430393 C 714.726203 1713.994313 719.950919 1709.426793 726.095711 1703.249141 C 724.912756 1705.549331 724.0584 1707.126604 722.875445 1709.393934 Z M 1718.594641 1723.753688 C 1714.158561 1720.270544 1709.623902 1715.045828 1703.44625 1708.868176 C 1705.74644 1710.08399 1707.290853 1710.905487 1709.591042 1712.121301 C 1713.041327 1716.590241 1715.604395 1719.909086 1718.594641 1723.753688 Z M 1728.321157 1717.970355 C 1728.189718 1716.75454 1731.278544 1719.219029 1737.554775 1725.363821 C 1733.841612 1722.406434 1731.541422 1720.533423 1728.321157 1717.970355 Z M 1730.654206 1712.909938 C 1738.967749 1720.237684 1745.704018 1727.499711 1755.430534 1737.554826 C 1744.356764 1727.565431 1742.615192 1725.790999 1730.654206 1712.909938 Z M 1730.654206 1712.909938 " stroke="#ffffff" stroke-width="1" stroke-opacity="1" stroke-miterlimit="10"/><path stroke-linecap="butt" transform="matrix(0.118876, 0, 0, 0.118876, 5.579125, 5.579119)" fill-opacity="1" fill="#ff0000" fill-rule="nonzero" stroke-linejoin="miter" d="M 1779.943983 1765.09138 C 1779.582524 1764.992801 1781.094077 1766.931532 1782.474191 1768.508805 C 1788.487544 1775.212215 1790.853453 1776.13229 1797.096825 1781.915624 C 1791.674949 1776.29659 1788.060366 1772.484847 1784.314343 1768.738824 C 1782.934229 1767.32585 1780.338301 1765.1571 1779.943983 1765.058521 Z M 1779.943983 1765.09138 " stroke="#ffffff" stroke-width="1" stroke-opacity="1" stroke-miterlimit="10"/><path stroke-linecap="butt" transform="matrix(0.118876, 0, 0, 0.118876, 5.579125, 5.579119)" fill-opacity="1" fill="#ff0000" fill-rule="nonzero" stroke-linejoin="miter" d="M 1716.327312 1741.859466 C 1722.866422 1748.530016 1729.372672 1755.233425 1735.911783 1761.903975 C 1736.076082 1761.903975 1736.240381 1761.936835 1736.40468 1761.936835 C 1729.86557 1755.266285 1723.2936 1748.562876 1716.72163 1741.892326 C 1716.59019 1741.892326 1716.458751 1741.859466 1716.327312 1741.859466 Z M 1716.327312 1741.859466 " stroke="#ffffff" stroke-width="1" stroke-opacity="1" stroke-miterlimit="10"/><path stroke-linecap="butt" transform="matrix(0.118876, 0, 0, 0.118876, 5.579125, 5.579119)" fill-opacity="1" fill="#ff0000" fill-rule="nonzero" stroke-linejoin="miter" d="M 1682.054487 1709.623953 L 1696.709981 1724.148007 C 1696.7757 1724.016567 1696.80856 1723.917988 1696.84142 1723.786548 L 1682.185927 1709.262494 C 1682.153067 1709.393934 1682.087347 1709.492513 1682.054487 1709.623953 Z M 1682.054487 1709.623953 " stroke="#ffffff" stroke-width="1" stroke-opacity="1" stroke-miterlimit="10"/><path stroke-linecap="butt" transform="matrix(0.118876, 0, 0, 0.118876, 5.579125, 5.579119)" fill-opacity="1" fill="#ff0000" fill-rule="nonzero" stroke-linejoin="miter" d="M 1751.585931 1756.38352 C 1756.942087 1761.838255 1762.265383 1767.260131 1767.588679 1772.714866 C 1767.752978 1772.714866 1767.884417 1772.747726 1768.048717 1772.747726 C 1762.758281 1767.32585 1757.434985 1761.871115 1752.144549 1756.41638 C 1751.98025 1756.41638 1751.78309 1756.41638 1751.585931 1756.38352 Z M 1751.585931 1756.38352 " stroke="#ffffff" stroke-width="1" stroke-opacity="1" stroke-miterlimit="10"/><path stroke-linecap="butt" transform="matrix(0.118876, 0, 0, 0.118876, 5.579125, 5.579119)" fill-opacity="1" fill="#ff0000" fill-rule="nonzero" stroke-linejoin="miter" d="M 1594.877303 1631.154629 C 1590.342644 1626.751409 1585.807985 1622.348189 1581.306185 1617.912109 C 1585.807985 1622.413909 1590.342644 1626.915708 1594.877303 1631.384648 C 1594.877303 1631.318928 1594.877303 1631.253209 1594.877303 1631.154629 Z M 1594.877303 1631.154629 " stroke="#ffffff" stroke-width="1" stroke-opacity="1" stroke-miterlimit="10"/><path stroke-linecap="butt" transform="matrix(0.118876, 0, 0, 0.118876, 5.579125, 5.579119)" fill-opacity="1" fill="#ff0000" fill-rule="nonzero" stroke-linejoin="miter" d="M 1581.174746 1617.81353 C 1581.174746 1617.81353 1581.141886 1617.74781 1581.141886 1617.74781 C 1581.174746 1617.81353 1581.240465 1617.879249 1581.306185 1617.912109 Z M 1581.174746 1617.81353 " stroke="#ffffff" stroke-width="1" stroke-opacity="1" stroke-miterlimit="10"/><path stroke-linecap="butt" transform="matrix(0.118876, 0, 0, 0.118876, 5.579125, 5.579119)" fill-opacity="1" fill="#ff0000" fill-rule="nonzero" stroke-linejoin="miter" d="M 1698.320113 1731.870071 C 1698.320113 1731.870071 1698.287254 1731.968651 1698.254394 1732.001511 L 1705.483561 1739.164958 C 1705.417841 1739.033519 1705.319262 1738.86922 1705.220682 1738.70492 Z M 1698.320113 1731.870071 " stroke="#ffffff" stroke-width="1" stroke-opacity="1" stroke-miterlimit="10"/><g clip-path="url(#4f67d5dfcd)"><path fill="#ff0000" d="M 259.308594 5.578125 L 40.597656 5.578125 C 21.257812 5.578125 5.578125 21.257812 5.578125 40.597656 L 5.578125 259.308594 C 5.578125 278.648438 21.257812 294.328125 40.597656 294.328125 L 259.308594 294.328125 C 278.648438 294.328125 294.328125 278.648438 294.328125 259.308594 L 294.328125 40.597656 C 294.328125 21.257812 278.648438 5.578125 259.308594 5.578125 Z M 287.960938 259.308594 C 287.960938 275.105469 275.105469 287.960938 259.308594 287.960938 L 40.597656 287.960938 C 24.800781 287.960938 11.945312 275.105469 11.945312 259.308594 L 11.945312 40.597656 C 11.945312 24.800781 24.800781 11.945312 40.597656 11.945312 L 259.308594 11.945312 C 275.109375 11.945312 287.960938 24.800781 287.960938 40.597656 Z M 287.960938 259.308594 " fill-opacity="1" fill-rule="nonzero"/></g></svg>